<?xml version="1.0" encoding="utf-8"?>
<!-- Generator: Adobe Illustrator 27.4.0, SVG Export Plug-In . SVG Version: 6.00 Build 0)  -->
<svg version="1.1" id="Ebene_1"
	xmlns="http://www.w3.org/2000/svg"
	xmlns:xlink="http://www.w3.org/1999/xlink" x="0px" y="0px" viewBox="0 0 24 24" style="enable-background:new 0 0 24 24;" xml:space="preserve">
	<g stroke-linecap="round" stroke-width="2" stroke="#641e78" fill="none" stroke-linejoin="round">
		<line x1="6.7" y1="17.2" x2="12" y2="12"/>
		<line x1="17.2" y1="6.7" x2="12" y2="12"/>
		<path d="M11.9,12.1L11.9,12.1c-1.6-1.6-4.3-1.6-5.9,0l-1.7,1.7l0,0c-1.6,1.6-1.6,4.3,0,5.9l0,0l0,0
		c1.6,1.6,4.3,1.6,5.9,0l1.7-1.7l0,0c1-1,1.4-2.4,1.2-3.7"/>
		<path d="M14.3,13L14.3,13c1.3,0.2,2.7-0.2,3.7-1.2l1.7-1.7l0,0c1.6-1.6,1.6-4.3,0-5.9c-1.6-1.6-4.3-1.6-5.9,0l-1.7,1.7
		l0,0c-1.6,1.6-1.6,4.3,0,5.9l0,0"/>
	</g>
</svg>
