<?xml version="1.0" encoding="utf-8"?>
<!-- Generator: Adobe Illustrator 25.1.0, SVG Export Plug-In . SVG Version: 6.00 Build 0)  -->
<svg version="1.1" id="Ebene_1"
	xmlns="http://www.w3.org/2000/svg"
	xmlns:xlink="http://www.w3.org/1999/xlink" x="0px" y="0px" viewBox="0 0 24 24" style="enable-background:new 0 0 24 24;" xml:space="preserve">
	<g stroke-linecap="round" stroke="#641e78" fill="none" stroke-linejoin="round">
		<path stroke-width="2.0" d="M11,12h10"/>
		<path stroke-width="2.0" d="M11,5h10"/>
		<path stroke-width="2.0" d="M11,19h10"/>
		<path stroke-width="1.5" d="M6.4,10.6c0.8,0.8,0.8,2,0,2.8s-2,0.8-2.8,0s-0.8-2,0-2.8S5.6,9.8,6.4,10.6"/>
		<path stroke-width="1.5" d="M6.4,17.6c0.8,0.8,0.8,2,0,2.8s-2,0.8-2.8,0s-0.8-2,0-2.8C4.4,16.8,5.6,16.8,6.4,17.6"/>
		<path stroke-width="1.5" d="M6.4,3.6c0.8,0.8,0.8,2,0,2.8s-2,0.8-2.8,0s-0.8-2,0-2.8S5.6,2.8,6.4,3.6"/>
	</g>
</svg>
