<?xml version="1.0" encoding="utf-8"?>
<!-- Generator: Adobe Illustrator 26.0.3, SVG Export Plug-In . SVG Version: 6.00 Build 0)  -->
<svg version="1.1" id="Ebene_1"
	xmlns="http://www.w3.org/2000/svg"
	xmlns:xlink="http://www.w3.org/1999/xlink" x="0px" y="0px" viewBox="0 0 24 24" style="enable-background:new 0 0 24 24;" xml:space="preserve">
	<g stroke="currentColor" stroke-linecap="round" fill="none" stroke-linejoin="round" stroke-width="1.5">
		<path d="M6,11h6"/>
		<path d="M6,8h3"/>
		<path d="M12.5,17.2H15V21h-2.5h0c-0.3,0-0.5-0.2-0.5-0.5l0,0v-2.8l0,0C12,17.5,12.2,17.2,12.5,17.2L12.5,17.2z"/>
		<path d="M15.5,13h2h0c0.3,0,0.5,0.2,0.5,0.5V21h-3v-7.5l0,0C15,13.2,15.2,13,15.5,13L15.5,13z"/>
		<path d="M18.5,15.2h2h0c0.3,0,0.5,0.2,0.5,0.5v4.8l0,0c0,0.3-0.2,0.5-0.5,0.5H18v-5.2l0,0C18,15.5,18.2,15.2,18.5,15.2
		L18.5,15.2z"/>
		<path d="M9,21H5l0,0c-1.1,0-2-0.9-2-2l0,0V5l0,0c0-1.1,0.9-2,2-2h8.2h0c0.5,0,1,0.2,1.4,0.6l2.8,2.8l0,0
		c0.4,0.4,0.6,0.9,0.6,1.4V10"/>
	</g>
	<g stroke="currentColor" stroke-linecap="round" fill="none" stroke-linejoin="round" stroke-width="1.5">
		<path d="M8.8,17.5c-0.3,0.2-0.6,0.4-1,0.4c-1,0-1.8-0.9-1.8-2.1s0.8-2.1,1.8-2.1c0.4,0,0.7,0.1,1,0.4"/>
	</g>
	<g stroke="currentColor" stroke-linecap="round" fill="none" stroke-linejoin="round" stroke-width="0.75">
		<line x1="4.9" y1="15.3" x2="8.1" y2="15.3"/>
		<line x1="4.9" y1="16.3" x2="8.1" y2="16.3"/>
	</g>
</svg>
