<?xml version="1.0" encoding="utf-8"?>
<!-- Generator: Adobe Illustrator 25.4.1, SVG Export Plug-In . SVG Version: 6.00 Build 0)  -->
<svg version="1.1" id="Layer_3"
	xmlns="http://www.w3.org/2000/svg"
	xmlns:xlink="http://www.w3.org/1999/xlink" x="0px" y="0px" viewBox="0 0 24 24" style="enable-background:new 0 0 24 24;" xml:space="preserve">
	<g stroke-linecap="round" stroke-width="1.5" stroke="currentColor" fill="none" stroke-linejoin="round">
		<line x1="6" y1="11" x2="7" y2="11"/>
		<line x1="10" y1="11" x2="11" y2="11"/>
		<line x1="6" y1="14" x2="7" y2="14"/>
		<line x1="10" y1="14" x2="11" y2="14"/>
		<line x1="6" y1="11" x2="7" y2="11"/>
		<line x1="10" y1="11" x2="11" y2="11"/>
		<line x1="6" y1="17" x2="7" y2="17"/>
		<line x1="10" y1="17" x2="11" y2="17"/>
		<line x1="6" y1="17" x2="7" y2="17"/>
		<line x1="10" y1="17" x2="11" y2="17"/>
		<line x1="18" y1="8" x2="3" y2="8"/>
		<path d="M11,20H5c-1.1,0-2-0.9-2-2V5c0-1.1,0.9-2,2-2h11c1.1,0,2,0.9,2,2v6"/>
		<line x1="6" y1="11" x2="7" y2="11"/>
		<line x1="10" y1="11" x2="11" y2="11"/>
		<line x1="14" y1="11" x2="15" y2="11"/>
		<path d="M21.8,20.1L17.5,22"/>
		<path d="M17.5,22l-4.2-1.9"/>
		<path d="M21.8,17.8l-4.3,1.9"/>
		<path d="M17.5,19.6l-4.2-1.9"/>
		<path d="M13.2,15.4l4.2,1.9l4.3-1.9l-4.2-1.9L13.2,15.4z"/>
	</g>
</svg>
