<?xml version="1.0" encoding="utf-8"?>
<!-- Generator: Adobe Illustrator 25.4.1, SVG Export Plug-In . SVG Version: 6.00 Build 0)  -->
<svg version="1.1" id="Layer_3"
	xmlns="http://www.w3.org/2000/svg"
	xmlns:xlink="http://www.w3.org/1999/xlink" x="0px" y="0px" viewBox="0 0 24 24" style="enable-background:new 0 0 24 24;" xml:space="preserve">
	<g stroke-linecap="round" stroke="currentColor" fill="none" stroke-linejoin="round">
		<path stroke-width="1.5" d="M12,15h-1.5C9.7,15,9,14.3,9,13.5v-3C9,9.7,9.7,9,10.5,9h3c0.8,0,1.5,0.7,1.5,1.5V12"/>
		<path stroke-width="1.5" d="M12,18.5H8.8c-1.8,0-3.2-1.5-3.2-3.2V8.8C5.5,7,7,5.5,8.8,5.5h6.5c1.8,0,3.2,1.5,3.2,3.2V12"/>
		<line stroke-width="1.5" x1="21" y1="9" x2="18.5" y2="9"/>
		<line stroke-width="1.5" x1="5.5" y1="9" x2="3" y2="9"/>
		<line stroke-width="1.5" x1="5.5" y1="12" x2="3" y2="12"/>
		<line stroke-width="1.5" x1="5.5" y1="15" x2="3" y2="15"/>
		<line stroke-width="1.5" x1="9" y1="3" x2="9" y2="5.5"/>
		<line stroke-width="1.5" x1="12" y1="3" x2="12" y2="5.5"/>
		<line stroke-width="1.5" x1="15" y1="3" x2="15" y2="5.5"/>
		<line stroke-width="1.5" x1="9" y1="18.5" x2="9" y2="21"/>
		<path stroke-width="1.0" d="M20.4,14.7v6.7l0,0c0,0.4-0.4,0.8-0.8,0.8h-4.7l0,0c-0.4,0-0.8-0.4-0.8-0.8l0,0v-6.7l0,0c0-0.4,0.4-0.8,0.8-0.8
	h4.7l0,0C20,13.9,20.4,14.2,20.4,14.7L20.4,14.7z"/>
		<path stroke-width="1.0" d="M20.4,16.6H14"/>
		<path stroke-width="1.0" d="M16.2,18.4L16.2,18.4C16.2,18.4,16.2,18.4,16.2,18.4C16.2,18.4,16.2,18.5,16.2,18.4
	C16.2,18.5,16.3,18.4,16.2,18.4L16.2,18.4C16.3,18.4,16.2,18.4,16.2,18.4L16.2,18.4"/>
		<path stroke-width="1.0" d="M18.2,18.4L18.2,18.4C18.2,18.4,18.2,18.4,18.2,18.4C18.2,18.4,18.2,18.5,18.2,18.4
	C18.2,18.5,18.2,18.4,18.2,18.4L18.2,18.4C18.2,18.4,18.2,18.4,18.2,18.4L18.2,18.4"/>
		<path stroke-width="1.0" d="M16.2,20.4L16.2,20.4C16.2,20.4,16.2,20.4,16.2,20.4C16.2,20.4,16.2,20.4,16.2,20.4
	C16.2,20.4,16.3,20.4,16.2,20.4L16.2,20.4C16.3,20.4,16.2,20.4,16.2,20.4L16.2,20.4"/>
		<path stroke-width="1.0" d="M18.2,20.4L18.2,20.4C18.2,20.4,18.2,20.4,18.2,20.4C18.2,20.4,18.2,20.4,18.2,20.4
	C18.2,20.4,18.2,20.4,18.2,20.4L18.2,20.4C18.2,20.4,18.2,20.4,18.2,20.4L18.2,20.4"/>
	</g>
</svg>
