<?xml version="1.0" encoding="UTF-8"?>
<svg
  id="Ebene_1"
  data-name="Ebene 1"
  xmlns="http://www.w3.org/2000/svg"
  version="1.1"
  viewBox="0 0 24 24"
>
  <g stroke-width="0" fill="currentColor">
    <path
      d="M20.6,3c.7,0,1,.4,1,1,0,2,0,4.1,0,6.1,0,.3,0,.5-.3.6-.2,0-.5,0-.7-.1-.3-.2-.7-.6-.9-.9-.2-.2-.3-.2-.6,0-1.4,1.4-2.7,2.8-4.1,4.1-.6.6-1.1.6-1.7,0-.9-.9-1.8-1.7-2.7-2.6-.5-.5-.5-1,0-1.5,1.4-1.4,2.8-2.9,4.3-4.3.3-.3.2-.4,0-.6-.3-.3-.6-.5-.9-.8-.2-.2-.3-.4-.2-.7.1-.3.3-.4.6-.4,1.1,0,5.2,0,6.2,0Z"
    />
    <path
      d="M15.8,19.7c-.1-.1-.3-.3-.4-.4-.5-.5-.5-1,0-1.5.8-.8,1.5-1.6,2.3-2.3.9-.9,1.9-1.9,2.8-2.8.3-.3.7-.4.9-.1.3.3.2.6,0,.9-1.6,1.6-3.2,3.2-4.7,4.8,0,0-.2.2-.2.3.3.3.7.7,1,1,.1.1.2.2.3.3.3.5,0,1-.5,1.1,0,0-.1,0-.2,0-2.2,0-4.5,0-6.7,0-.1,0-.3,0-.4,0-.4-.1-.6-.5-.6-.9,0-2.3,0-4.6,0-6.9,0-.3.1-.6.4-.7.3-.1.6,0,.9.2.8.8,1.6,1.6,2.4,2.4.3.3.3.7,0,.9-.3.3-.6.2-.9,0-.5-.5-.9-.9-1.4-1.4,0,0-.2-.2-.3-.3v5.5h5.5s0,0,0,0Z"
    />
    <path
      d="M7.9,20.9c0,0,0,0,0,0q-.6,0-.9-.6c-1.5-4.1-3-8.2-4.5-12.4-.2-.6,0-.9.5-1.1.5-.2,1.1-.4,1.7-.6,1.1,4.9,2.2,9.7,3.3,14.6Z"
    />
    <path
      d="M7.9,3.7v12.5s0,0,0,0c-.1-.6-.3-1.3-.4-1.9-.6-3.1-1.3-6.1-1.9-9.2-.1-.6,0-.9.7-1,.6-.1,1.1-.2,1.7-.3Z"
    />
  </g>
</svg>
