<?xml version="1.0" encoding="UTF-8"?>
<svg
  id="Ebene_1"
  data-name="Ebene 1"
  xmlns="http://www.w3.org/2000/svg"
  version="1.1"
  viewBox="0 0 24 24"
>
  <g stroke-width="0" fill="currentColor">
    <path
      d="M20.6,3c.7,0,1,.4,1,1v6.1c0,.3,0,.5-.3.6-.2,0-.5,0-.7-.1-.3-.2-.7-.6-.9-.9-.2-.2-.3-.2-.6,0-1.4,1.4-2.7,2.8-4.1,4.1-.6.6-1.1.6-1.7,0-.9-.9-1.8-1.7-2.7-2.6-.5-.5-.5-1,0-1.5,1.4-1.4,2.8-2.9,4.3-4.3.3-.3.2-.4,0-.6-.3-.3-.6-.5-.9-.8-.2-.2-.3-.4-.2-.7s.3-.4.6-.4h6.2,0Z"
    />
    <path
      d="M13.6,21h-3.6c-.4-.1-.6-.5-.6-.9v-6.9c0-.3.1-.6.4-.7.3-.1.6,0,.9.2.8.8,1.6,1.6,2.4,2.4.3.3.3.7,0,.9-.3.3-.6.2-.9,0l-1.4-1.4-.3-.3v5.5h3.1c.3,0,.6,0,.6.6s-.3.6-.6.6Z"
    />
    <path
      d="M7.9,20.9h0c-.4,0-.7-.2-.9-.6-1.5-4.1-3-8.2-4.5-12.4-.2-.6,0-.9.5-1.1s1.1-.4,1.7-.6c1.1,4.9,2.2,9.7,3.3,14.6h0Z"
    />
    <path
      d="M7.9,3.7v12.5h0c0-.6-.3-1.3-.4-1.9-.6-3.1-1.3-6.1-1.9-9.2,0-.6,0-.9.7-1,.6,0,1.1-.2,1.7-.3h0Z"
    />
  </g>
  <g
    stroke-linecap="round"
    stroke-width="1.2"
    stroke="currentColor"
    fill="none"
    stroke-linejoin="round"
  >
    <path
      d="M18.6,14l1,2.1,2.3.3h0c.3,0,.5.3.4.6,0,.1,0,.2-.1.3l-1.7,1.6.4,2.3h0c0,.3-.1.5-.4.6-.1,0-.2,0-.3,0l-2-1.1-2,1.1h0c-.2.1-.6,0-.7-.2,0,0,0-.2,0-.3l.4-2.3-1.7-1.6h0c-.2-.2-.2-.5,0-.7,0,0,.2-.1.3-.1l2.3-.3,1-2.1h0c.1-.2.4-.4.7-.2,0,0,.2.1.2.2Z"
    />
  </g>
</svg>
