<?xml version="1.0" encoding="UTF-8"?>
<svg version="1.1" viewBox="0 0 24 24"
	xmlns="http://www.w3.org/2000/svg"
	xmlns:xlink="http://www.w3.org/1999/xlink">
	<g stroke-linecap="round" stroke-width="1.5" stroke="currentColor" fill="none"
		stroke-linejoin="round">
		<path
			d="M14,21v-2.9c0-0.4,0.1-0.9,0.4-1.2l1.7-2.2c0.5-0.7,1.6-0.9,2.3-0.3c0.1,0,0.1,0.1,0.2,0.2l0,0
	c0.6,0.6,0.6,1.5,0.2,2.1L17.6,18" />
		<path
			d="M21,21l0.6-1.2c0.3-0.6,0.4-1.2,0.4-1.8v-6.6c0-0.8-0.7-1.5-1.5-1.5l0,0c-0.8,0-1.5,0.7-1.5,1.5v4.1" />
		<path
			d="M10,21v-2.9c0-0.4-0.1-0.9-0.4-1.2l-1.7-2.2c-0.5-0.7-1.6-0.9-2.3-0.3c-0.1,0-0.1,0.1-0.2,0.2l0,0
	C4.9,15,4.8,16,5.3,16.6L6.4,18" />
		<path
			d="M3,21l-0.6-1.2C2.1,19.3,2,18.7,2,18.1v-6.6C2,10.7,2.7,10,3.5,10l0,0C4.3,10,5,10.7,5,11.5v4.1" />
	</g>
	<g stroke-linecap="round" stroke-width="1.0" stroke="currentColor" fill="none"
		stroke-linejoin="round">
		<path d="M12,1.4c2.6,2.8,2.6,7.3,0,10.1" />
		<path d="M12,11.5C9.4,8.7,9.4,4.2,12,1.4" />
		<path d="M12,1.4c2.8,0,5.1,2.3,5.1,5.1s-2.3,5.1-5.1,5.1" />
		<path d="M12,11.5c-2.8,0-5.1-2.3-5.1-5.1S9.2,1.4,12,1.4" />
		<path d="M7.2,4.8h9.6" />
		<path d="M7.2,8.1h9.6" />
	</g>
</svg>