<svg data-name="Layer 3"
    xmlns="http://www.w3.org/2000/svg" viewBox="0 0 24 24">
    <g id="uploadArrow">
        <line x1="15" y1="15" x2="12" y2="12" fill="none" stroke="currentColor" stroke-linecap="round" stroke-linejoin="round" stroke-width="1.5"/>
        <line x1="12" y1="12" x2="9" y2="15" fill="none" stroke="currentColor" stroke-linecap="round" stroke-linejoin="round" stroke-width="1.5"/>
        <line x1="12" y1="20" x2="12" y2="12" fill="none" stroke="currentColor" stroke-linecap="round" stroke-linejoin="round" stroke-width="1.5"/>
    </g>
    <path d="M8,19H6a4,4,0,0,1-4-4H2a4,4,0,0,1,4-4H6l-.01-.07036A6.07106,6.07106,0,0,1,12,4h0a6.07106,6.07106,0,0,1,6.01,6.92964L18,11h0a4,4,0,0,1,4,4h0a4,4,0,0,1-4,4H16" fill="none" stroke="currentColor" stroke-linecap="round" stroke-linejoin="round" stroke-width="1.5"/>
</svg>