<?xml version="1.0" encoding="UTF-8"?>
<svg
  id="Ebene_1"
  data-name="Ebene 1"
  xmlns="http://www.w3.org/2000/svg"
  version="1.1"
  viewBox="0 0 24 24"
>
  <g stroke-width="0" fill="currentColor">
    <path
      d="M7.6,6.2c0-.4,0-.8,0-1.2,0-.6.2-1.2.4-1.7.2-.4.4-.8.8-1.2.5-.4,1-.7,1.7-.9.3,0,.6-.1,1-.1.4,0,.9,0,1.3,0,.4,0,.8.1,1.3.3.8.3,1.5.9,1.9,1.7.2.5.4,1,.5,1.6,0,.7.1,1.3.1,2,0,1.1-.3,2.2-1,3.2-.6.9-1.3,1.5-2.3,1.8-.5.2-1,.2-1.6.2-.7,0-1.4-.4-1.9-.8-.6-.5-1.1-1.1-1.4-1.8-.4-.8-.6-1.6-.6-2.5,0-.1,0-.3,0-.4Z"
    />
    <path
      d="M8.8,15.3c-.1.1-.2.2-.3.3-.3.3-.5.6-.8.8,0,.1,0,.1,0,.2.4.6.7,1.1,1.1,1.7,1,1.5,2,3,3,4.5,0,0,0,.1.1.2,0,0,0,0-.1,0-.4,0-.8,0-1.2,0-1.3-.2-2.5-.6-3.6-1.2-1.2-.6-2.2-1.4-3.1-2.4,0,0-.1-.2-.1-.3,0-.7,0-1.3.1-2,0-.5.2-1,.3-1.5.2-.5.4-.9.7-1.3.3-.4.8-.7,1.2-1,.5-.3,1-.4,1.5-.6.7-.2,1.3-.3,2-.5,0,0,0,0,0,0,0,0,0,0,0,0,0,0,0,0,0,0-.5.2-1,.5-1.3,1-.2.3-.4.6-.7.9,0,0,0,0,0,.1.3.3.7.6,1,.9,0,0,.1.1.2.2Z"
    />
    <path
      d="M12.2,23c0,0,0-.2.1-.2,1.3-2,2.6-4,4-6,0,0,.1-.2.1-.3,0,0-.1-.1-.2-.2-.3-.3-.6-.6-.8-.9,0,0,0,0,0,0,0,0,0,0,0,0,0,0,0,0,.1-.1.3-.3.6-.5.9-.8,0,0,.1,0,.1-.2,0-.1-.2-.2-.3-.4-.1-.2-.3-.4-.5-.6-.2-.3-.5-.5-.8-.7-.2-.1-.3-.2-.5-.2,0,0,0,0,0,0,0,0,0,0,0,0,0,0,0,0,0,0,0,0,.1,0,.2,0,.8.2,1.6.3,2.4.6.5.2,1,.4,1.4.7.6.4,1,1,1.3,1.6.2.5.3.9.4,1.4,0,.7.2,1.3.2,2,0,.1,0,.3,0,.4,0,0,0,.1,0,.1,0,0,0,0,0,0-1.5,1.6-3.3,2.8-5.4,3.3-.5.1-1,.2-1.5.3-.4,0-.7,0-1.1,0Z"
    />
    <path
      d="M12,23s0,0,0,0c-.5-3.4-1.1-6.7-1.6-10.1,0,0,0,0,0,0,0,0,.1,0,.2,0,.5.2.9.2,1.4.3.5,0,1,0,1.5-.3,0,0,.1,0,.2,0,0,0,0,0,0,0,0,0,0,0,0,0,0,.4-.1.8-.2,1.2,0,.6-.2,1.1-.3,1.7-.1.6-.2,1.3-.3,1.9,0,.6-.2,1.1-.3,1.7,0,.5-.2,1.1-.3,1.6,0,.5-.2,1.1-.3,1.6,0,0,0,.2,0,.3Z"
    />
  </g>
</svg>
