<?xml version="1.0" encoding="utf-8"?>
<!-- Generator: Adobe Illustrator 26.0.3, SVG Export Plug-In . SVG Version: 6.00 Build 0)  -->
<svg version="1.1" id="Ebene_1"
    xmlns="http://www.w3.org/2000/svg"
    xmlns:xlink="http://www.w3.org/1999/xlink" x="0px" y="0px" viewBox="0 0 24 24" style="enable-background:new 0 0 24 24;" xml:space="preserve">
    <g stroke-linecap="round" stroke-width="1.5" stroke="currentColor" fill="none" stroke-linejoin="round">
        <path d="M14.2,18.6l4.4,3.3v-3.3h1.1c1.2,0,2.2-1,2.2-2.2V9.7c0-1.2-1-2.2-2.2-2.2h-8.9c-1.2,0-2.2,1-2.2,2.2v6.7
		c0,1.2,1,2.2,2.2,2.2H14.2z"/>
        <path d="M8.7,15.3l-3.3,2.2v-3.3H4.2c-1.2,0-2.2-1-2.2-2.2V5.3c0-1.2,1-2.2,2.2-2.2h10c1.2,0,2.2,1,2.2,2.2v2.2"/>
        <path d="M12.5,13C12.5,13,12.5,13.1,12.5,13C12.5,13.1,12.4,13.1,12.5,13C12.4,13.1,12.4,13,12.5,13
		C12.4,13,12.5,13,12.5,13"/>
        <path d="M15.4,13C15.4,13,15.4,13.1,15.4,13C15.4,13.1,15.3,13.1,15.4,13C15.3,13.1,15.3,13,15.4,13
		C15.3,13,15.4,13,15.4,13"/>
        <path d="M18.3,13C18.3,13,18.3,13.1,18.3,13C18.2,13.1,18.2,13.1,18.3,13C18.2,13.1,18.2,13,18.3,13
		C18.2,13,18.2,13,18.3,13"/>
    </g>
</svg>
