<?xml version="1.0" encoding="UTF-8"?>
<svg
  id="Ebene_1"
  xmlns="http://www.w3.org/2000/svg"
  version="1.1"
  viewBox="0 0 24 24"
>
  <g
    stroke-linecap="round"
    stroke="currentColor"
    fill="none"
    stroke-linejoin="round"
  >
    <g stroke-width="1.5">
      <path d="M17.5,19.7h-1.1c-.3,0-.6,0-.8.2l-4.2,1.9" />
      <path d="M10.5,13.7c-.5-.3-1.1-.4-1.7-.2l-2.3.8" />
      <path
        d="M13,15.9l-1.5.7c-.5.3-1.2.2-1.6-.2h0c-.6-.6-.7-1.5-.1-2.1,0,0,.2-.2.3-.3l2.6-1.7c.6-.4,1.3-.4,1.9-.2l3,1.3"
      />
      <path
        d="M13,15.9l.9.7c.8.7.9,2,.2,2.8,0,0-.1.1-.2.2l-2,1.8c-.8.7-1.9.7-2.7,0l-1.4-1.3c-.3-.3-.7-.5-1.2-.5"
      />
      <path d="M3,13h2.5c.6,0,1,.4,1,1v6c0,.6-.4,1-1,1h-2.5" />
      <path d="M21,21h-2.5c-.6,0-1-.4-1-1v-6c0-.6.4-1,1-1h2.5" />
      <path d="M21,10v-5.8c0-1.2-1-2.2-2.2-2.2H5.2c-1.2,0-2.2,1-2.2,2.2v5.8" />
      <path d="M12.5,8h4.5" />
    </g>
    <g stroke-width="1.25">
      <path
        d="M9.7,9.9c-.3.2-.7.4-1.1.4-1.1,0-2-1-2-2.3s.9-2.3,2-2.3.8,0,1.1.4"
      />
    </g>
    <g stroke-width="0.75">
      <line x1="5.5" y1="7.4" x2="8.9" y2="7.4" />
      <line x1="5.5" y1="8.5" x2="8.9" y2="8.5" />
    </g>
  </g>
</svg>
