<?xml version="1.0" encoding="UTF-8"?>
<svg
  id="Ebene_1"
  data-name="Ebene 1"
  xmlns="http://www.w3.org/2000/svg"
  version="1.1"
  viewBox="0 0 24 24"
>
  <g
    stroke-linecap="round"
    stroke-width="1.5"
    stroke="currentColor"
    fill="none"
    stroke-linejoin="round"
  >
    <path
      d="M9,22h-3.1c-1.2,0-2.2-1-2.2-2.2V4.2c0-1.2,1-2.2,2.2-2.2h10.4c.4,0,.9.2,1.2.4l2.3,2.3c.2.3.4.8.4,1.2v4.1"
    />
    <path d="M7.6,10.4h8.8" />
    <path d="M7.6,14.2h4.1" />
    <path d="M7.6,17.9h1.1" />
    <path d="M7.6,6.7h2.9" />
    <path d="M20.3,6.3h-3.6c-.4,0-.9-.4-.9-.9v-3.4" />
    <path
      d="M14.4,22.2h0c-.2.2-.4.3-.7.3h-2v-2h0c0-.3.1-.5.3-.7l6.8-6.8h0c.7-.7,1.8-.7,2.4,0,0,0,0,0,0,0h0c.7.7.7,1.8,0,2.4,0,0,0,0,0,0l-6.8,6.8Z"
    />
    <path d="M16.3,15.5l2.4,2.4" />
    <path d="M20.4,16.2l.9.9h0c.5.5.5,1.2,0,1.7l-1.6,1.6" />
  </g>
</svg>
