<?xml version="1.0" encoding="utf-8"?>
<!-- Generator: Adobe Illustrator 27.8.0, SVG Export Plug-In . SVG Version: 6.00 Build 0)  -->
<svg
  version="1.1"
  id="Ebene_1"
  xmlns="http://www.w3.org/2000/svg"
  xmlns:xlink="http://www.w3.org/1999/xlink"
  x="0px"
  y="0px"
  viewBox="0 0 24 24"
  style="enable-background: new 0 0 24 24"
  xml:space="preserve"
>
  <g
    fill="none"
    stroke="currentColor"
    stroke-linecap="round"
    stroke-linejoin="round"
    stroke-width="1.5"
  >
    <path d="M22,14h-3.5c-0.3,0-0.5-0.2-0.5-0.5V10h3.2" />
    <path
      d="M18.6,18.4c0.6,0.6,0.6,1.5,0,2.1s-1.5,0.6-2.1,0c-0.6-0.6-0.6-1.5,0-2.1l0,0C17,17.9,18,17.9,18.6,18.4
	L18.6,18.4"
    />
    <path
      d="M7.6,18.4c0.6,0.6,0.6,1.5,0,2.1s-1.5,0.6-2.1,0s-0.6-1.5,0-2.1h0l0,0l0,0C6,17.9,7,17.9,7.6,18.4L7.6,18.4
	L7.6,18.4"
    />
    <path d="M16.1,19H7.9" />
    <path
      d="M18.9,19H21c0.6,0,1-0.4,1-1v-5.6c0-0.3,0-0.5-0.1-0.7l-1.4-3.4c-0.3-0.8-1-1.3-1.9-1.3H15"
    />
    <path d="M5.1,19H3c-0.6,0-1-0.4-1-1v-6" />
    <path d="M2,15h12c0.6,0,1-0.4,1-1V6c0-0.6-0.4-1-1-1h-1" />
    <path d="M9.5,3.5L5,8L2.2,5.3" />
  </g>
</svg>
