<?xml version="1.0" encoding="utf-8"?>
<!-- Generator: Adobe Illustrator 26.0.3, SVG Export Plug-In . SVG Version: 6.00 Build 0)  -->
<svg version="1.1" id="Ebene_1"
	xmlns="http://www.w3.org/2000/svg"
	xmlns:xlink="http://www.w3.org/1999/xlink" x="0px" y="0px" viewBox="0 0 24 24" style="enable-background:new 0 0 24 24;" xml:space="preserve">
	<g stroke-linecap="round" stroke-width="1.5" stroke="currentColor" fill="none" stroke-linejoin="round">
		<path d="M20.2,5.4l-2.8-2.8C17,2.2,16.4,2,15.9,2H8.7C7.4,2,6.4,3,6.4,4.2v11.9c0,1.2,1,2.2,2.2,2.2h10
		c1.2,0,2.2-1,2.2-2.2V7C20.9,6.4,20.7,5.9,20.2,5.4z"/>
		<path d="M20.9,7.6h-4.4c-0.7,0-1.1-0.4-1.1-1.1V2"/>
		<path d="M17.6,18.3v1.4c0,1.2-1,2.2-2.2,2.2h-10c-1.2,0-2.2-1-2.2-2.2V7.6c0-1.2,1-2.2,2.2-2.2h1.1"/>
		<path d="M9.2,10.9h6.7"/>
		<path d="M9.2,14.8h6.7"/>
		<path d="M9.2,7h2.2"/>
	</g>
</svg>
