<?xml version="1.0" encoding="utf-8"?>
<!-- Generator: Adobe Illustrator 26.0.2, SVG Export Plug-In . SVG Version: 6.00 Build 0)  -->
<svg version="1.1" id="Ebene_1"
	xmlns="http://www.w3.org/2000/svg"
	xmlns:xlink="http://www.w3.org/1999/xlink" x="0px" y="0px" viewBox="0 0 24 24" style="enable-background:new 0 0 24 24;" xml:space="preserve">
	<g stroke="none" stroke-width="1" fill="none" fill-rule="evenodd">
		<path fill="#000000" fill-rule="nonzero" opacity="0.3" d="M10.8,22.5C5,22.5,0.3,17.8,0.3,12C0.3,6.2,5,1.5,10.8,1.5c1.5,0,3,0.3,4.4,1c0.5,0.2,0.7,0.8,0.5,1.3
	c-0.2,0.5-0.8,0.7-1.3,0.5c-1.1-0.5-2.3-0.8-3.6-0.8c-4.7,0-8.5,3.8-8.5,8.5s3.8,8.5,8.5,8.5c4.4,0,8.1-3.4,8.5-7.8
	c0-0.5,0.5-1,1.1-0.9c0.6,0,1,0.5,0.9,1.1C20.8,18.3,16.2,22.5,10.8,22.5z"/>
		<path fill="#000000" fill-rule="nonzero" d="M18.6,6l-1.3-1.3l-5.7,5.7l1.3,1.3L18.6,6z M22.4,4.7l-9.6,9.6L9,10.5l-1.3,1.3l5.1,5.1L23.7,6L22.4,4.7z M2.6,11.8l5.1,5.1
	L9,15.5l-5.1-5.1L2.6,11.8z"/>
	</g>
</svg>
