<?xml version="1.0" encoding="utf-8"?>
<!-- Generator: Adobe Illustrator 26.1.0, SVG Export Plug-In . SVG Version: 6.00 Build 0)  -->
<svg
  version="1.1"
  id="Ebene_1"
  xmlns="http://www.w3.org/2000/svg"
  xmlns:xlink="http://www.w3.org/1999/xlink"
  x="0px"
  y="0px"
  viewBox="0 0 24 24"
  enable-background="new 0 0 24 24"
  xml:space="preserve"
>
  <g>
    <path
      fill="currentColor"
      id="Rectangle"
      opacity="0.3"
      fill-rule="evenodd"
      clip-rule="evenodd"
      enable-background="new    "
      d="M12,3.4L12,3.4
		c0.5,0,0.9,0.4,0.9,0.9v6.9c0,0.5-0.4,0.9-0.9,0.9l0,0c-0.5,0-0.9-0.4-0.9-0.9V4.3C11.1,3.8,11.5,3.4,12,3.4z"
    />
    <path
      fill="currentColor"
      d="M12,16.9c-0.2,0-0.4-0.1-0.5-0.2l-4.6-4.6c-0.3-0.3-0.3-0.7,0-1c0.3-0.3,0.7-0.3,1,0l4.1,4.1l4.1-4.1c0.3-0.3,0.7-0.3,1,0
		c0.3,0.3,0.3,0.7,0,1l-4.6,4.6C12.4,16.8,12.2,16.9,12,16.9z"
    />
    <path
      fill="currentColor"
      opacity="0.63"
      d="M19.9,17.4c-0.4-0.2-0.8,0-1,0.4l-0.6,1.3H12H5.6L5,17.8c-0.2-0.4-0.6-0.5-1-0.4c-0.4,0.2-0.5,0.6-0.4,1
		l0.8,1.8c0.1,0.3,0.4,0.4,0.7,0.4H12h6.9c0.3,0,0.6-0.2,0.7-0.4l0.8-1.8C20.5,18,20.3,17.6,19.9,17.4z"
    />
  </g>
</svg>
