<?xml version="1.0" encoding="utf-8"?>
<!-- Generator: Adobe Illustrator 26.0.2, SVG Export Plug-In . SVG Version: 6.00 Build 0)  -->
<svg version="1.1" id="Layer_3"
	xmlns="http://www.w3.org/2000/svg"
	xmlns:xlink="http://www.w3.org/1999/xlink" x="0px" y="0px" viewBox="0 0 24 24" style="enable-background:new 0 0 24 24;" xml:space="preserve">
	<g stroke-linecap="round" stroke-width="1.5" stroke="currentColor" fill="none" stroke-linejoin="round">
		<path d="M16.9,18.9C16.5,20.1,15.4,21,14,21H6c-1.7,0-3-1.3-3-3v-8c0-1.3,0.9-2.5,2.1-2.8"/>
		<path d="M14,12V8"/>
		<path d="M12,10h4"/>
		<path d="M7,14.7L7,14.7C7,16,8,17,9.3,17l0,0"/>
		<path d="M18.7,3L18.7,3C20,3,21,4,21,5.3l0,0"/>
		<path d="M15.2,17h-2.3"/>
		<path d="M15.2,3h-2.3"/>
		<path d="M18.7,17L18.7,17c1.3,0,2.3-1,2.3-2.3l0,0"/>
		<path d="M7,5.3L7,5.3C7,4,8,3,9.3,3l0,0"/>
		<path d="M21,8.8v2.3"/>
		<path d="M7,8.8v2.3"/>
		<line x1="14" y1="7.7" x2="14" y2="12.3"/>
		<line x1="11.7" y1="10" x2="16.3" y2="10"/>
	</g>
</svg>
