<?xml version="1.0" encoding="utf-8"?>
<!-- Generator: Adobe Illustrator 25.2.3, SVG Export Plug-In . SVG Version: 6.00 Build 0)  -->
<svg version="1.1" id="Ebene_1"
    xmlns="http://www.w3.org/2000/svg"
    xmlns:xlink="http://www.w3.org/1999/xlink" x="0px" y="0px" viewBox="0 0 24 24" style="enable-background:new 0 0 24 24;" xml:space="preserve">
    <g stroke-linecap="round" stroke-width="1.5" stroke="currentColor" fill="none" stroke-linejoin="round">
        <path d="M20,11v4.8c0,0.8-0.3,1.6-0.9,2.1l-2.2,2.2c-0.6,0.6-1.3,0.9-2.1,0.9H7c-2.2,0-4-1.8-4-4V8c0-2.2,1.8-4,4-4h6" />
        <path d="M15,20.6l0-3.6c0-0.6,0.4-1,1-1h3.6"/>
        <path d="M9,15l3.1-0.4l0,0c0.2,0,0.4-0.1,0.6-0.3l7.6-7.6l0,0c0.8-0.8,0.8-2.2,0-3.1l0,0l0,0c-0.8-0.8-2.2-0.8-3.1,0
		l-7.6,7.6l0,0c-0.2,0.2-0.3,0.4-0.3,0.6L9,15z"/>
    </g>
</svg>
