<?xml version="1.0" encoding="utf-8"?>
<!-- Generator: Adobe Illustrator 27.1.0, SVG Export Plug-In . SVG Version: 6.00 Build 0)  -->
<svg version="1.1" id="Ebene_1" xmlns="http://www.w3.org/2000/svg"
	xmlns:xlink="http://www.w3.org/1999/xlink" x="0px" y="0px"
	viewBox="0 0 24 24" style="enable-background:new 0 0 24 24;" xml:space="preserve">
<g stroke-linecap="round" stroke-width="1.5" stroke="currentColor" fill="none"
stroke-linejoin="round">
<path d="M15,4h5.5"/>
<path d="M6,17v-3"/>
<path d="M12.6,10.6h3"/>
<path d="M12.6,13.6h3"/>
<path d="M17.5,21H5c-1.1,0-2-0.9-2-2v-1c0-0.6,0.4-1,1-1h11c0.6,0,1,0.4,1,1v1.5C16,20.3,16.7,21,17.5,21L17.5,21
	c0.8,0,1.5-0.7,1.5-1.5v-14C19,4.7,19.7,4,20.5,4l0,0C21.3,4,22,4.7,22,5.5V8c0,0.6-0.4,1-1,1h-2"/>
	<path d="M9,5L9,5c1.6,1.6,1.6,4.2,0,5.8c-1.6,1.6-4.2,1.6-5.8,0C1.6,9.2,1.6,6.6,3.2,5l0,0C4.8,3.3,7.4,3.3,9,5
		C9,5,9,5,9,5"/>
	<path d="M4.7,1.7h2.9"/>
	<path d="M11.6,3.8l-1.4-1.4l0.7,0.7L9.2,4.8"/>
</g>
</svg>