<svg
  id="Layer_3"
  data-name="Layer 3"
  xmlns="http://www.w3.org/2000/svg"
  viewBox="0 0 24 24"
>
  <g
    stroke-linecap="round"
    stroke-width="1.5"
    stroke="currentColor"
    fill="none"
    stroke-linejoin="round"
  >
    <line x1="16" y1="7" x2="8" y2="7" />
    <path
      d="M10,3h4a2,2,0,0,1,2,2V9a4,4,0,0,1-4,4h0A4,4,0,0,1,8,9V5A2,2,0,0,1,10,3Z"
    />
    <path d="M9,15.5l-3.65.72971A2.923,2.923,0,0,0,3,19.09592L3,21" />
    <path
      d="M12.05,17.00006a.05.05,0,1,1-.05006-.05006.05.05,0,0,1,.05006.05006"
    />
    <path
      d="M12.05,20.00006a.05.05,0,1,1-.05006-.05006.05.05,0,0,1,.05006.05006"
    />
    <path d="M15,15.5l3.65.72971A2.923,2.923,0,0,1,21,19.09592L21,21" />
  </g>
</svg>
