<?xml version="1.0" encoding="UTF-8"?>
<svg
  id="Ebene_1"
  data-name="Ebene 1"
  xmlns="http://www.w3.org/2000/svg"
  version="1.1"
  xmlns:xlink="http://www.w3.org/1999/xlink"
  viewBox="0 0 24 24"
>
  <defs>
    <style>
      .england-flag-1 {
        fill: url(#Unbenannter_Verlauf_2);
      }

      .england-flag-1,
      .england-flag-2,
      .england-flag-3,
      .england-flag-4 {
        stroke-width: 0px;
      }

      .england-flag-2 {
        fill: #01257c;
      }

      .england-flag-5 {
        filter: url(#luminosity-invert);
      }

      .england-flag-3 {
        fill: #fff;
        opacity: 0.6;
      }

      .england-flag-4 {
        fill: #cd142b;
      }

      .england-flag-6 {
        mask: url(#mask);
      }
    </style>
    <filter
      id="luminosity-invert"
      x="1"
      y="4.3"
      width="22"
      height="15.4"
      color-interpolation-filters="sRGB"
      filterUnits="userSpaceOnUse"
    >
      <feColorMatrix
        result="cm"
        values="-1 0 0 0 1 0 -1 0 0 1 0 0 -1 0 1 0 0 0 1 0"
      />
    </filter>
    <linearGradient
      id="Unbenannter_Verlauf_2"
      data-name="Unbenannter Verlauf 2"
      x1="1"
      y1="12"
      x2="23"
      y2="12"
      gradientUnits="userSpaceOnUse"
    >
      <stop offset="0" stop-color="#dbdbdb" />
      <stop offset=".2" stop-color="#acacac" />
      <stop offset=".6" stop-color="#505050" />
      <stop offset=".9" stop-color="#161616" />
      <stop offset="1" stop-color="#000" />
    </linearGradient>
    <mask
      id="mask"
      x="1"
      y="4.3"
      width="22"
      height="15.4"
      maskUnits="userSpaceOnUse"
    >
      <g class="england-flag-5">
        <rect class="england-flag-1" x="1" y="4.3" width="22" height="15.4" />
      </g>
    </mask>
  </defs>
  <g>
    <path
      class="england-flag-4"
      d="M1,10.5c1,0,2,0,3,0,2.2,0,4.5,0,6.7,0,0,0,.1,0,.1-.1,0-2,0-3.9,0-5.9q0-.1.1-.1c.6,0,1.3,0,1.9,0,.1,0,.1,0,.1.1,0,2,0,3.9,0,5.9,0,.1,0,.1.1.1,3.2,0,6.4,0,9.7,0,0,0,0,0,.1,0v3.1c-1.1,0-2.1,0-3.2,0-2.2,0-4.4,0-6.6,0,0,0-.1,0-.1.1,0,2,0,4,0,5.9,0,.1,0,.1-.1.1-.6,0-1.3,0-1.9,0-.1,0-.1,0-.1-.1,0-2,0-3.9,0-5.9,0-.1,0-.1-.1-.1-3.2,0-6.4,0-9.6,0,0,0,0,0-.1,0v-3.1Z"
    />
    <path
      class="england-flag-2"
      d="M1,6.1s0,0,0,0c1.6,1.1,3.2,2.2,4.7,3.3,0,0,0,0,0,0,0,0,0,0-.1,0-1.5,0-3.1,0-4.6,0,0,0,0,0,0,0v-3.4Z"
    />
    <path
      class="england-flag-2"
      d="M1,14.6c1,0,2.1,0,3.1,0,.6,0,1.1,0,1.7,0,0,0,0,0,0,0-1.6,1.1-3.1,2.2-4.7,3.3,0,0,0,0,0,0v-3.4Z"
    />
    <path
      class="england-flag-2"
      d="M23,9.4c-1.1,0-2.2,0-3.3,0-.5,0-1,0-1.5,0,0,0,0,0,0,0,1.6-1.1,3.1-2.2,4.7-3.3,0,0,0,0,0,0v3.4Z"
    />
    <path
      class="england-flag-2"
      d="M23,18c0,0-.1,0-.2,0-1.5-1.1-3.1-2.1-4.6-3.2,0,0,0,0-.1,0,0,0,0,0,.1,0,1.5,0,3.1,0,4.6,0,0,0,0,0,.1,0v3.4Z"
    />
    <path
      class="england-flag-4"
      d="M1,4.3c.3.2.6.4.8.6,2.1,1.5,4.2,3,6.4,4.4,0,0,0,0,.1,0-.3,0-.6,0-.9,0-.2,0-.3,0-.5,0-.2,0-.4,0-.5-.2-1.8-1.3-3.6-2.5-5.4-3.8,0,0,0,0,0,0,0-.4,0-.8,0-1.1Z"
    />
    <path
      class="england-flag-4"
      d="M23,5.5c-.8.5-1.5,1.1-2.3,1.6-1.1.8-2.2,1.5-3.3,2.3,0,0-.1,0-.2,0-.5,0-.9,0-1.4,0,0,0,0,0,0,0,0,0,0,0,0,0,2.4-1.7,4.7-3.3,7.1-5,0,0,0,0,0,0v1.1Z"
    />
    <path
      class="england-flag-4"
      d="M1,18.6c.6-.4,1.3-.9,1.9-1.3,1.2-.9,2.4-1.7,3.7-2.6,0,0,.1,0,.2,0,.5,0,.9,0,1.4,0,0,0,0,0,.1,0,0,0,0,0,0,0-2.4,1.7-4.8,3.3-7.2,5,0,0,0,0,0,0,0-.4,0-.8,0-1.1Z"
    />
    <path
      class="england-flag-4"
      d="M23,19.7c-.4-.3-.8-.5-1.1-.8-2-1.4-4.1-2.8-6.1-4.2,0,0,0,0,0,0,.3,0,.6,0,.9,0,.2,0,.4,0,.6,0,.1,0,.2,0,.3.1,1.8,1.3,3.6,2.5,5.5,3.8,0,0,0,0,0,0v1.1Z"
    />
    <path
      class="england-flag-2"
      d="M20.4,19.7c-.4,0-.8,0-1.2,0-1.8,0-3.5,0-5.3,0,0,0-.1,0-.1-.1,0-1.5,0-3,0-4.4,0,0,0,0,0-.1,2.2,1.6,4.4,3.1,6.6,4.7,0,0,0,0,0,0Z"
    />
    <path
      class="england-flag-2"
      d="M3.5,19.7c2.2-1.6,4.4-3.1,6.6-4.7,0,0,0,0,0,0,0,1.5,0,3,0,4.5,0,0,0,.1-.1.1-2.1,0-4.3,0-6.4,0,0,0,0,0,0,0Z"
    />
    <path
      class="england-flag-2"
      d="M20.5,4.3c-2.2,1.6-4.4,3.1-6.6,4.7,0,0,0,0,0,0,0-1.5,0-3,0-4.5,0,0,0-.1.1-.1,2.1,0,4.3,0,6.4,0,0,0,0,0,.1,0Z"
    />
    <path
      class="england-flag-2"
      d="M10.1,9c-2.2-1.5-4.4-3.1-6.6-4.7,0,0,0,0,.1,0,2.1,0,4.3,0,6.4,0,0,0,.1,0,.1,0,0,1.5,0,3,0,4.5,0,0,0,0,0,0Z"
    />
  </g>
  <g class="england-flag-6">
    <path
      class="england-flag-3"
      d="M1,4.3h22v1.7c-3.9,1.7-7.1,5.5-9.6,6.4-6.4,2.4-12.4.6-12.4.6V4.3Z"
    />
  </g>
</svg>
