<?xml version="1.0" encoding="utf-8"?>
<!-- Generator: Adobe Illustrator 26.0.3, SVG Export Plug-In . SVG Version: 6.00 Build 0)  -->
<svg version="1.1" id="Ebene_1"
	xmlns="http://www.w3.org/2000/svg"
	xmlns:xlink="http://www.w3.org/1999/xlink" x="0px" y="0px" viewBox="0 0 24 24" style="enable-background:new 0 0 24 24;" xml:space="preserve">
	<g fill="none" stroke="currentColor" stroke-linecap="round" stroke-linejoin="round" stroke-width="1.5">
		<path d="M18.9,16.3H5.1c-1.7,0-3.1,1.4-3.1,3.1l0,0c0,1.7,1.4,3.1,3.1,3.1h13.8c1.7,0,3.1-1.4,3.1-3.1l0,0
		C22,17.7,20.6,16.3,18.9,16.3z"/>
		<polyline points="8,11 5,14 2,11"/>
		<line x1="5" y1="2.2" x2="5" y2="14"/>
		<path d="M10,19.4h8"/>
		<path d="M4.9,19.4L4.9,19.4C4.9,19.5,4.9,19.5,4.9,19.4C4.8,19.4,4.8,19.4,4.9,19.4L4.9,19.4"/>
	</g>
	<g fill="none" stroke="currentColor" stroke-linecap="round" stroke-linejoin="round" stroke-width="1">
		<path d="M22,5.2h-2.7l0,0c-0.4,0-0.7-0.3-0.7-0.7l0,0V1.9"/>
		<path d="M12.6,5.2v-2l0,0c0-0.7,0.6-1.3,1.3-1.3h4.8l0,0c0.4,0,0.7,0.1,1,0.4l1.9,1.9l0,0c0.3,0.3,0.4,0.6,0.4,1v7.5
		l0,0c0,0.7-0.6,1.3-1.3,1.3H14l0,0c-0.7,0-1.3-0.6-1.3-1.3l0,0V12"/>
		<line x1="15" y1="9.8" x2="12.9" y2="7.4"/>
		<line x1="12.9" y1="9.8" x2="15" y2="7.4"/>
		<rect x="10.5" y="5.2" width="6.7" height="6.7"/>
	</g>
</svg>
