<?xml version="1.0" encoding="utf-8"?>
<!-- Generator: Adobe Illustrator 27.6.1, SVG Export Plug-In . SVG Version: 6.00 Build 0)  -->
<svg
  version="1.1"
  id="Ebene_1"
  xmlns="http://www.w3.org/2000/svg"
  xmlns:xlink="http://www.w3.org/1999/xlink"
  x="0px"
  y="0px"
  viewBox="0 0 24 24"
  style="enable-background: new 0 0 24 24"
  xml:space="preserve"
>
  <g      fill="#000000">
    <path

      opacity="0.63"
      fill-rule="evenodd"
      clip-rule="evenodd"
      d="M12,21.7c-4,0-7.6-3.2-9.5-6.4c-0.3-0.5-0.3-1.2,0-1.8C4.4,10.4,8,7.2,12,7.2c4,0,7.6,3.2,9.5,6.4c0.3,0.5,0.3,1.2,0,1.8
			C19.6,18.6,16,21.7,12,21.7z M12,8.7c-3.4,0-6.6,2.8-8.2,5.6c0,0.1,0,0.2,0,0.2c0,0,0,0,0,0c1.7,2.8,4.8,5.6,8.2,5.6
			c3.4,0,6.6-2.8,8.2-5.6c0-0.1,0-0.2,0-0.2C18.6,11.6,15.4,8.7,12,8.7z"
    />
    <path
      d="M12,18.2c-1,0-1.9-0.4-2.6-1.1c-1.4-1.4-1.4-3.8,0-5.3c1.4-1.4,3.9-1.4,5.3,0l0,0l0,0c1.4,1.4,1.4,3.8,0,5.3
			C13.9,17.9,13,18.2,12,18.2z M12,12.2c-0.6,0-1.2,0.2-1.6,0.7c-0.9,0.9-0.9,2.3,0,3.2c0.9,0.9,2.3,0.9,3.2,0
			c0.9-0.9,0.9-2.3,0-3.2l0,0C13.2,12.5,12.6,12.2,12,12.2z"
    />
    <path
      opacity="0.3"
      d="M12,5.7c-0.4,0-0.8-0.3-0.8-0.8V2.5c0-0.4,0.3-0.8,0.8-0.8s0.8,0.3,0.8,0.8V5C12.8,5.4,12.4,5.7,12,5.7z"
    />
    <path
      opacity="0.3"
      d="M6.7,7.2C6.5,7.2,6.3,7.2,6.1,7L4.4,5C4.2,4.7,4.2,4.2,4.5,3.9C4.8,3.7,5.3,3.7,5.6,4l1.7,2c0.3,0.3,0.2,0.8-0.1,1.1
			C7,7.2,6.9,7.2,6.7,7.2z"
    />
    <path
      opacity="0.3"
      d="M17.3,7.2c-0.2,0-0.3-0.1-0.5-0.2c-0.3-0.3-0.4-0.7-0.1-1.1l1.7-2c0.3-0.3,0.7-0.4,1.1-0.1c0.3,0.3,0.4,0.7,0.1,1.1
			l-1.7,2C17.7,7.2,17.5,7.2,17.3,7.2z"
    />
  </g>
</svg>
