<?xml version="1.0" encoding="utf-8"?>
<!-- Generator: Adobe Illustrator 26.1.0, SVG Export Plug-In . SVG Version: 6.00 Build 0)  -->
<svg
  version="1.1"
  id="Ebene_1"
  xmlns="http://www.w3.org/2000/svg"
  xmlns:xlink="http://www.w3.org/1999/xlink"
  x="0px"
  y="0px"
  viewBox="0 0 24 24"
  style="enable-background: new 0 0 24 24"
  xml:space="preserve"
>
  <g
    fill="none"
    stroke="currentColor"
    stroke-linecap="round"
    stroke-linejoin="round"
    stroke-width="1.5"
  >
    <path
      d="M14.1,17.9c-0.5,0.3-0.9,0.6-1.6,0.6c-1.6,0-2.8-1.4-2.8-3.3S11,12,12.6,12c0.6,0,1.1,0.2,1.6,0.6"
    />
    <path
      d="M9.8,5.9c-0.2,0.8-3.9,3.6-5.7,9c-2.7,8.4,5.7,7.9,7.8,7.9c3.4,0,10.2,0.6,7.9-7.9c-1.9-6.8-6.1-8-6.5-9
		c-0.4-1.1,3-3,2.5-4.2c-0.2-0.5-1.5,0.1-2,0c-0.5-0.1-1.4-0.9-1.9-1c-0.5-0.1-1.4,0.7-1.9,0.8C9.4,1.7,7.7,0.7,7.3,1.3
		C6.6,2.4,10.1,4.6,9.8,5.9z"
    />
    <line x1="14.3" y1="5.3" x2="8.9" y2="5.8" />
    <line x1="14.2" y1="6.1" x2="9.1" y2="6.1" />
    <path d="M12.2,8.4c0,0,0.7-1.1,0.5-2.3" />
    <path d="M15.3,9.7c0,0-0.7-2.3-2.2-3.7" />
  </g>
  <g
    fill="none"
    stroke="currentColor"
    stroke-linecap="round"
    stroke-linejoin="round"
    stroke-width="1"
  >
    <line x1="8.1" y1="14.5" x2="13.1" y2="14.5" />
    <line x1="8.1" y1="16.1" x2="13.1" y2="16.1" />
  </g>
</svg>
