<?xml version="1.0" encoding="utf-8"?>
<!-- Generator: Adobe Illustrator 26.2.1, SVG Export Plug-In . SVG Version: 6.00 Build 0)  -->
<svg
  version="1.1"
  id="Ebene_1"
  xmlns="http://www.w3.org/2000/svg"
  xmlns:xlink="http://www.w3.org/1999/xlink"
  x="0px"
  y="0px"
  viewBox="0 0 24 24"
  style="enable-background: new 0 0 24 24"
  xml:space="preserve"
>
  <g
    stroke-linecap="round"
    stroke-width="1.5"
    stroke="currentColor"
    fill="none"
    stroke-linejoin="round"
  >
    <path
      d="M22,10.5c0-1.8-0.5-3.4-1.3-4.9c-0.8-1.4-2.1-2.5-3.6-3.4c-1.6-0.7-3.3-1.1-5.1-1.1S8.4,1.5,6.9,2.3
		C5.4,3.1,4.1,4.2,3.3,5.7C2.5,7.1,2,8.7,2,10.5c0,1.6,0.4,3.1,1,4.4V15c0.1,0.1,0.1,0.2,0.2,0.3c0,0,0,0,0,0.1
		c0.8,1.4,1.7,2.5,3.2,3.3c1.2,0.7,2.5,1,3.9,1.1c-0.3-1.7-0.8-3.5-1.5-4c0,0-0.3-0.3-0.4-0.3c-0.4-0.5-0.8-1-1.3-1.6
		c0,0,0-0.1-0.1-0.1c0-0.1-0.1-0.1-0.1-0.2l0,0c-0.5-0.8-0.7-1.9-0.7-3s0.3-2.1,0.7-3c0.5-0.9,1.2-1.7,2.1-2.1C9.9,5,11,4.7,12,4.7
		s2.1,0.3,2.9,0.7c0.8,0.5,1.6,1.2,2.1,2.1s0.7,1.9,0.7,3s-0.3,2.1-0.7,3l0,0c-0.1,0.1-0.1,0.2-0.2,0.3l0,0c-0.5,0.7-0.6,1-1.4,1.6
		c-0.1,0-0.1,0.1-0.2,0.1c-0.1,0.1-0.1,0.1-0.2,0.2c-0.3,0.3-0.6,0.9-0.8,1.7c-0.3,0.7-0.5,1.6-0.6,2.4c1.4-0.2,2.7-0.6,3.8-1.1
		c1.5-0.8,2.3-1.9,3.2-3.3C21.5,13.9,22,12.2,22,10.5L22,10.5z"
    />
  </g>
  <path
    fill="currentColor"
    d="M12,22.4c-0.2,0-0.3,0-0.3,0c0,0,0-2.2,0-2.3c0-0.1,0-0.1,0-0.2c-0.1-1.8-0.7-4.4-1.5-5.3c-0.1-0.1-0.1-0.1-0.2-0.2
	c-0.1-0.1-0.1-0.1-0.2-0.2c-0.6-0.4-1.1-0.9-1.4-1.5c-0.4-0.7-0.6-1.4-0.6-2.3c0-0.1,0-0.3,0-0.4c0-0.2,0-0.7,0.1-0.9
	C7.9,9,8.5,8.5,9.2,8.5c0.4,0,1,0.4,1.6,0.9c0.8,0.6,1.8,1.3,2.8,1.4c0,0,0.1,0,0.1,0c0.7,0,2-0.5,2.6-0.8c0,0.1,0,0.4,0,0.5
	c0,0.9-0.2,1.6-0.6,2.3c-0.4,0.6-0.8,1.1-1.4,1.5c-0.1,0.1-0.2,0.1-0.2,0.2c-0.1,0.1-0.1,0.1-0.2,0.2c-0.4,0.4-0.7,1.1-0.9,1.6
	c-0.4,1.1-0.6,2.5-0.7,3.6c0,0.1,0,0.1,0,0.2c0,0.1,0,2.3,0,2.3C12.2,22.3,12.2,22.4,12,22.4z"
  />
  <path
    fill="currentColor"
    d="M17,22.9c0,0.4-0.9,0.7-2.3,0.9C14,23.9,13,24,12,24c-0.9,0-1.7,0-2.4-0.1c-1.6-0.2-2.7-0.6-2.7-1c0-0.4,0.5-0.9,1.9-1.1
	c0.8-0.1,2.1,0,3.1,0c1,0,2.3,0,3.1,0.1C16.5,22,17,22.5,17,22.9z"
  />
</svg>
