<?xml version="1.0" encoding="utf-8"?>
<!-- Generator: Adobe Illustrator 25.2.3, SVG Export Plug-In . SVG Version: 6.00 Build 0)  -->
<svg version="1.1" id="Ebene_1" xmlns="http://www.w3.org/2000/svg" xmlns:xlink="http://www.w3.org/1999/xlink" x="0px" y="0px"
	 viewBox="0 0 24 24" style="enable-background:new 0 0 24 24;" xml:space="preserve">
<g stroke-linecap="round" stroke-width="1.5" stroke="currentColor" fill="none" stroke-linejoin="round">
	<path d="M15.5,21H7.2C4.9,21,3,19.1,3,16.8V7.2C3,4.9,4.9,3,7.2,3h9.5C19.1,3,21,4.9,21,7.2v8.3c0,0.8-0.3,1.7-1,2.2
		L17.7,20C17.1,20.7,16.3,21,15.5,21z"/>
	<line x1="10.7" y1="15.5" x2="13.3" y2="15.5"/>
	<polyline points="12,15.5 12,10.9 10.8,10.9 	"/>
	<path d="M11.9,7.8L11.9,7.8c0,0.1-0.1,0.2-0.2,0.2s-0.2-0.1-0.2-0.2c0-0.1,0.1-0.2,0.2-0.2"/>
	<path d="M11.7,7.4L11.7,7.4c0.1,0,0.2,0.1,0.2,0.2"/>
	<path d="M15.7,20.6v-3.8c0-0.6,0.4-1.1,1.1-1.1h3.8"/>
</g>
</svg>
