<?xml version="1.0" encoding="utf-8"?>
<!-- Generator: Adobe Illustrator 23.0.0, SVG Export Plug-In . SVG Version: 6.00 Build 0)  -->
<svg version="1.1" id="Ebene_1"
	xmlns="http://www.w3.org/2000/svg"
	xmlns:xlink="http://www.w3.org/1999/xlink" x="0px" y="0px" viewBox="0 0 24 24" style="enable-background:new 0 0 24 24;" xml:space="preserve">
	<g stroke-linecap="round" stroke-width="1.5" stroke="currentColor" fill="none" stroke-linejoin="round">
		<line class="infoIcon" x1="10.8" y1="15.8" x2="13.2" y2="15.8"/>
		<polyline class="infoIcon" points="12,15.8 12,11.5 10.9,11.5 	"/>
		<path class="infoIcon" d="M11.9,8.5L11.9,8.5c0,0.1-0.1,0.3-0.3,0.3s-0.3-0.1-0.3-0.3s0.1-0.3,0.3-0.3"/>
		<path class="infoIcon" d="M11.7,8.2L11.7,8.2c0.1,0,0.3,0.1,0.3,0.3"/>
		<path class="infoIcon" d="M18.3,15.1L20,16c0.6-1.2,1-2.6,1-4c0-5-4-9-9-9C9.8,3,7.8,3.8,6.2,5.1"/>
		<path class="infoIcon" d="M5.7,8.9L4,8c-0.6,1.2-1,2.6-1,4c0,5,4,9,9,9c2.2,0,4.2-0.8,5.8-2.1"/>
	</g>
</svg>
