<?xml version="1.0" encoding="UTF-8"?>
<svg
  id="Ebene_1"
  xmlns="http://www.w3.org/2000/svg"
  version="1.1"
  xmlns:xlink="http://www.w3.org/1999/xlink"
  viewBox="0 0 24 24"
>
  <g
    fill="none"
    stroke="currentColor"
    stroke-linecap="round"
    stroke-linejoin="round"
  >
    <g stroke-width="1.5">
      <path
        d="M6.2,4.3v-.4c0-1.2,1-2.2,2.2-2.2h9.9c1.2,0,2.2,1,2.2,2.2v14.3c0,1.2-1,2.2-2.2,2.2h-.4"
      />
      <path
        class="st3"
        d="M17.8,7.9v12.4c0,1.1-.9,2-2,2H4.8c-1.1,0-2-.9-2-2V6.2c0-1.1.9-2,2-2h9.3c.4,0,.8.2,1.1.4l2.1,2.1c.3.4.4.8.4,1.2Z"
      />
      <path class="st3" d="M12.3,11.7h2" />
      <path class="st3" d="M6.4,16.2h8" />
      <path class="st3" d="M6.4,19.3h8" />
      <path class="st3" d="M17.8,8.1h-3.2c-.4,0-.8-.4-.8-.8v-3.1" />
    </g>
    <g stroke-width="1.25">
      <path
        d="M9.3,12c-.3.2-.6.4-1,.4-1,0-1.8-.9-1.8-2.1s.8-2.1,1.8-2.1.7,0,1,.4"
      />
    </g>
    <g stroke-width="0.75">
      <line x1="5.6" y1="9.7" x2="8.6" y2="9.7" />
      <line x1="5.6" y1="10.7" x2="8.6" y2="10.7" />
    </g>
  </g>
</svg>
