<?xml version="1.0" encoding="utf-8"?>
<!-- Generator: Adobe Illustrator 27.8.0, SVG Export Plug-In . SVG Version: 6.00 Build 0)  -->
<svg
  version="1.1"
  id="Ebene_1"
  xmlns="http://www.w3.org/2000/svg"
  xmlns:xlink="http://www.w3.org/1999/xlink"
  x="0px"
  y="0px"
  viewBox="0 0 24 24"
  style="enable-background: new 0 0 24 24"
  xml:space="preserve"
>
  <g
    fill="none"
    stroke="currentColor"
    stroke-linecap="round"
    stroke-linejoin="round"
  >
    <g stroke-width="1.5">
      <path
        d="M12.4,22H5.9c-1.2,0-2.2-1-2.2-2.2V4.2C3.7,3,4.7,2,5.9,2h10.4c0.4,0,0.9,0.2,1.2,0.4l2.3,2.3
		c0.2,0.3,0.4,0.8,0.4,1.2v8.2"
      />
      <path d="M14.2,10.3h2.2" />
      <path d="M7.6,15.3h4.1" />
      <path d="M7.6,18.7h2" />
      <path d="M20.3,6.3h-3.6c-0.4,0-0.9-0.4-0.9-0.9V2" />
    </g>
    <g stroke-width="1.25">
      <path
        d="M10.9,10.6c-0.3,0.2-0.7,0.4-1.1,0.4c-1.1,0-2-1-2-2.3s0.9-2.3,2-2.3c0.4,0,0.8,0.1,1.1,0.4"
      />
    </g>
    <g stroke-width="1.0">
      <path
        d="M16.8,22.2l5.4-2.9c0.3-0.2,0.3-0.7,0-0.9l-5.4-2.8c-0.4-0.2-0.9,0.2-0.7,0.6l1.1,2.6l-1.1,2.7
		C16,22,16.4,22.4,16.8,22.2z"
      />
      <path d="M17.2,18.9l5.2,0" />
    </g>
    <g stroke-width="0.75">
      <line x1="6.7" y1="8.1" x2="10.1" y2="8.1" />
      <line x1="6.7" y1="9.2" x2="10.1" y2="9.2" />
      <path d="M13.7,20.4h0.8" />
      <path d="M13.2,18.9h1.3" />
      <path d="M12.7,17.4h1.8" />
    </g>
  </g>
</svg>
