<?xml version="1.0" encoding="utf-8"?>
<!-- Generator: Adobe Illustrator 23.0.0, SVG Export Plug-In . SVG Version: 6.00 Build 0)  -->
<svg version="1.1" id="Ebene_1" xmlns="http://www.w3.org/2000/svg" xmlns:xlink="http://www.w3.org/1999/xlink" x="0px" y="0px"
	viewBox="0 0 24 24" style="enable-background:new 0 0 24 24;" xml:space="preserve">
	<g stroke-linecap="round" stroke-width="1.5" stroke="currentColor" fill="none" stroke-linejoin="round">
		<path d="M3.1,7.5C3.1,5,5.1,3,7.6,3s4.5,2,4.5,4.5" />
		<path d="M9.1,12V7.5C9.1,6.7,8.4,6,7.6,6l0,0C6.8,6,6.1,6.7,6.1,7.5V10v5l-0.9-0.9c-0.6-0.6-1.6-0.6-2.2,0l0,0
		c-0.5,0.5-0.6,1.3-0.2,2l2.7,4c0.4,0.6,1,0.9,1.7,0.9h5.3c1,0,1.9-0.8,2-1.8l0.5-4.3c0.1-1.1-0.6-2-1.7-2.2
		C13.3,12.7,9.1,12,9.1,12z" />
		<path d="M19.1,3.1L21,5l-2,2" />
		<path d="M21,5h-6" />
	</g>
</svg>