<?xml version="1.0" encoding="utf-8"?>
<!-- Generator: Adobe Illustrator 25.1.0, SVG Export Plug-In . SVG Version: 6.00 Build 0)  -->
<svg version="1.1" id="Ebene_1" xmlns="http://www.w3.org/2000/svg" xmlns:xlink="http://www.w3.org/1999/xlink" x="0px" y="0px"
	 viewBox="0 0 670 670.01" style="enable-background:new 0 0 670 670.01;" xml:space="preserve">
<style type="text/css">
	.goldweb_svg_logo{fill:url(#SVGID_1_);}
</style>
<linearGradient id="SVGID_1_" gradientUnits="userSpaceOnUse" x1="335" y1="0" x2="335" y2="670.0102">
	<stop  offset="0" style="stop-color:#D4AF37"/>
	<stop  offset="1" style="stop-color:#C5A028"/>
</linearGradient>
<path class="goldweb_svg_logo" d="M79.15,526.27c0.39,3.33,0.25,6.86-0.42,10.15c-0.83,4.11-3.83,5.52-7.35,3.3c-3.3-2.08-6.37-4.8-8.92-7.77
	c-12.88-15-22.6-32.02-30.73-49.95C13.52,441.83,3.42,399.64,0.78,355.64c-0.1-1.66-0.51-3.31-0.78-4.96c0-10.25,0-20.49,0-30.74
	c0.85-8.45,1.58-16.92,2.57-25.36c4.49-38.18,15.39-74.45,32.51-108.85c0.36-0.72,0.86-1.38,1.89-2.99
	C38.08,191.68,76.6,504.53,79.15,526.27z M138.75,432.18c-7.64,0-14.06-5.75-14.91-13.34L104.9,248.66
	c-0.99-8.89,5.97-16.66,14.91-16.66h122.09C262.73,124.7,279.94,35.77,281,29.47c1.81-10.71-4.47-19.73-14.63-21.59
	c-3.55-0.65-7.41-0.46-11,0.11c-24.37,3.86-47.18,12.45-69.12,23.47c-35.1,17.63-66.94,39.71-93.53,68.96
	c-17.59,19.35-25.11,41.83-21.9,67.84c0.63,5.08,1.19,10.17,1.81,15.25c3.28,26.67,47.12,383.51,50.26,408.47
	c0.15,1.15,0.62,2.65,1.46,3.27c13.38,9.79,26.85,19.45,41.07,29.7c0.31-1.45,16.98-86.97,37.56-192.78H138.75z M393.02,232.01
	C371.28,119.7,352.31,21.77,348.7,3.17C348.34,1.32,346.73,0,344.84,0h-19.69c-1.88,0-3.5,1.33-3.86,3.18
	c-3.61,18.64-22.49,116.58-44.11,228.82H393.02z M669.27,314.94c-2.08-16.92-3.54-33.94-6.35-50.74
	c-3.28-19.64-8.51-38.86-17.06-56.99c-1.2-2.54-2.72-5.04-4.57-7.14c-2.98-3.38-6.09-2.98-8.14,0.98c-1.15,2.23-2.06,4.75-2.39,7.22
	c-2.92,22.41-41.31,334.54-42.56,344.78c4.44-4.21,8.26-8.73,11.86-13.42c37.45-48.82,60.1-103.71,67.41-164.86
	c0.96-8.02,1.69-16.07,2.53-24.1c0-10.53,0-21.06,0-31.59C669.75,317.71,669.44,316.33,669.27,314.94z M600.31,152.97
	c-1-19.93-8.92-37.23-22.53-52.13C553,73.72,523.76,52.61,491.53,35.45c-24.32-12.95-49.72-23.01-77.09-27.53
	c-13.16-2.18-23.08,3.79-24.71,15.77c-0.52,3.83,0.11,7.94,0.85,11.81c3.68,19.12,19.44,100.29,38.13,196.52H550.8
	c8.94,0,15.9,7.77,14.91,16.66l-18.94,170.17c-0.85,7.6-7.27,13.34-14.91,13.34h-64.26c19.44,100,35.34,181.83,37.15,191.13
	c1.08-0.44,1.65-0.56,2.09-0.87c13.05-9.11,26.11-18.18,39.05-27.44c1.13-0.81,1.8-2.78,2-4.3c2.51-19.46,46.53-376.98,49.98-406.34
	C599.11,173.93,600.83,163.37,600.31,152.97z M431.75,432.18H238.66c-18.62,96.87-33.39,173.87-34.87,182.11
	c-3.22,17.95,5.39,32.49,22.29,38.61c21.5,7.78,43.83,11.84,66.46,14.47c8.91,1.04,17.85,1.77,26.78,2.64
	c10.7-0.02,21.32-0.04,32.02-0.07c11.11-1.14,22.25-2.04,33.32-3.49c21.17-2.77,41.96-7.18,62.11-14.47
	c10.7-3.87,17.01-11.45,19.04-22.14c1.19-6.27,1.5-13.13,0.32-19.37C462.38,590.72,448.62,519.44,431.75,432.18z M317.91,271.84
	H299.6c-2.36,0-4.38,0.62-6.06,1.85c-1.68,1.23-2.75,2.67-3.2,4.29l-16.83,63.94c-0.5,1.96-1,4.05-1.47,6.27
	c-0.17,0.77-0.33,1.56-0.49,2.36c-0.21,1.05-1.69,1.09-1.95,0.05c-0.78-3.14-1.66-6.03-2.65-8.68l-19.69-63.94
	c-0.79-1.79-1.94-3.27-3.45-4.42c-1.52-1.15-3.51-1.72-5.97-1.72h-8.41c-2.36,0-4.36,0.63-6.02,1.89c-1.65,1.26-2.73,2.68-3.24,4.25
	l-19.86,63.94c-1.01,2.83-1.91,5.94-2.7,9.33c-0.24,1.04-1.74,1.02-1.95-0.03c-0.19-0.91-0.37-1.81-0.56-2.69
	c-0.51-2.38-1.01-4.58-1.51-6.6l-16.83-63.94c-0.51-1.85-1.59-3.34-3.24-4.46c-1.65-1.12-3.72-1.68-6.18-1.68h-19.83
	c-2.02,0-3.46,1.96-2.87,3.89l35.57,115.17c0.65,2.1,2.58,3.52,4.78,3.52h18.36c2.19,0,4.13-1.43,4.78-3.53l22.3-72.44
	c0.45-1.18,0.87-2.48,1.26-3.91c0-0.01,0.01-0.03,0.01-0.04c0.33-1.19,2.01-1.19,2.33,0c0,0.01,0.01,0.03,0.01,0.04
	c0.39,1.43,0.81,2.73,1.26,3.91l21.98,72.42c0.64,2.11,2.58,3.55,4.78,3.55h18.35c2.19,0,4.13-1.43,4.78-3.52l35.57-115.17
	C321.37,273.8,319.93,271.84,317.91,271.84z M365.78,293.72h44.31c1.66,0,3-1.34,3-3v-15.87c0-1.66-1.34-3-3-3h-72.91
	c-1.66,0-3,1.34-3,3v116.58c0,1.66,1.34,3,3,3h72.91c1.66,0,3-1.34,3-3v-15.87c0-1.66-1.34-3-3-3h-44.31c-1.66,0-3-1.34-3-3v-23.19
	c0-1.66,1.34-3,3-3h32.53c1.66,0,3-1.34,3-3v-15.03c0-1.66-1.34-3-3-3h-32.53c-1.66,0-3-1.34-3-3v-22.6
	C362.78,295.06,364.12,293.72,365.78,293.72z M433.58,271.84c-1.66,0-3,1.34-3,3v116.58c0,1.66,1.34,3,3,3h45.96
	c7.35,0,13.88-0.94,19.6-2.82c5.72-1.88,10.53-4.49,14.43-7.82c3.9-3.34,6.86-7.25,8.88-11.74c2.02-4.49,3.03-9.34,3.03-14.55
	c0-6.95-1.93-12.62-5.8-16.99c-3.87-4.38-9.84-7.54-17.92-9.51c3.7-1.35,6.87-2.94,9.51-4.79c2.63-1.85,4.79-3.88,6.48-6.1
	c1.68-2.21,2.92-4.6,3.7-7.15c0.78-2.55,1.18-5.2,1.18-7.95c0-5.05-0.86-9.62-2.57-13.71c-1.71-4.09-4.45-7.57-8.2-10.43
	c-3.76-2.86-8.61-5.08-14.55-6.65c-5.95-1.57-13.15-2.36-21.62-2.36H433.58z M462.02,293.13h13.66c3.2,0,5.96,0.25,8.29,0.76
	c2.33,0.5,4.25,1.35,5.76,2.52c1.51,1.18,2.63,2.73,3.37,4.67c0.73,1.93,1.09,4.36,1.09,7.28c0,2.97-0.46,5.44-1.39,7.4
	c-0.93,1.96-2.27,3.51-4.04,4.63c-1.77,1.12-3.91,1.91-6.44,2.36c-2.52,0.45-5.36,0.67-8.5,0.67h-11.81c-1.66,0-3-1.34-3-3v-24.29
	C459.02,294.47,460.36,293.13,462.02,293.13z M462.02,372.97c-1.66,0-3-1.34-3-3v-24.54c0-1.66,1.34-3,3-3h16.85
	c3.59,0,6.56,0.34,8.92,1.01s4.25,1.63,5.68,2.86c1.43,1.23,2.44,2.75,3.03,4.54c0.59,1.8,0.88,3.82,0.88,6.06
	c0,1.96-0.25,3.9-0.76,5.8c-0.51,1.91-1.43,3.62-2.78,5.13c-1.35,1.51-3.21,2.75-5.59,3.7c-2.38,0.95-5.46,1.43-9.21,1.43H462.02z"
	/>
</svg>
