<?xml version="1.0" encoding="utf-8"?>
<!-- Generator: Adobe Illustrator 26.0.2, SVG Export Plug-In . SVG Version: 6.00 Build 0)  -->
<svg version="1.1" id="Ebene_1"
	xmlns="http://www.w3.org/2000/svg"
	xmlns:xlink="http://www.w3.org/1999/xlink" x="0px" y="0px" viewBox="0 0 24 24" style="enable-background:new 0 0 24 24;" xml:space="preserve">
	<g stroke-linecap="round" stroke-width="1.5" stroke="currentColor" fill="none" stroke-linejoin="round">
		<circle cx="7" cy="17" r="4"/>
		<path d="M21,13.5V8l0,0c0-1.1-0.9-2-2-2h-8"/>
		<path d="M19,21"/>
		<path d="M7,21h5"/>
		<path d="M3,16.8V6v0c0-2.2,1.8-4,4-4c2.2,0,4,1.8,4,4l0,0v10.8"/>
		<path d="M6.9,17L6.9,17C6.9,17,7,17,6.9,17c0.1,0,0.1,0,0.1,0C7.1,17,7,16.9,6.9,17L6.9,17C7,16.9,6.9,17,6.9,17
		L6.9,17"/>
		<path d="M17.3,15.4L17.3,15.4c0.2-0.4,0.8-0.6,1.2-0.4c0.1,0.1,0.3,0.2,0.4,0.4l0.7,1.3l0,0c0.1,0.1,0.2,0.3,0.4,0.4
		l1.3,0.7l0,0c0.4,0.2,0.6,0.8,0.4,1.2c-0.1,0.1-0.2,0.3-0.4,0.4L19.9,20l0,0c-0.2,0.1-0.3,0.2-0.4,0.4l-0.7,1.3l0,0
		c-0.2,0.4-0.8,0.6-1.2,0.4c-0.2-0.1-0.3-0.2-0.4-0.4l-0.7-1.3l0,0c-0.1-0.2-0.2-0.3-0.4-0.4l-1.3-0.7l0,0c-0.4-0.2-0.6-0.8-0.4-1.2
		c0.1-0.2,0.2-0.3,0.4-0.4l1.3-0.7l0,0c0.1-0.1,0.3-0.2,0.4-0.4L17.3,15.4z"/>
	</g>
</svg>
