<?xml version="1.0" encoding="utf-8"?>
<!-- Generator: Adobe Illustrator 26.0.2, SVG Export Plug-In . SVG Version: 6.00 Build 0)  -->
<svg version="1.1" id="Ebene_1"
	xmlns="http://www.w3.org/2000/svg"
	xmlns:xlink="http://www.w3.org/1999/xlink" x="0px" y="0px" viewBox="0 0 24 24" style="enable-background:new 0 0 24 24;" xml:space="preserve">
	<g stroke-linecap="round" stroke-width="1.5" stroke="currentColor" fill="none" stroke-linejoin="round">
		<path d="M20.6,5.2h0.9c0.9,0,1.5,0.8,1.3,1.7L21,14.2c-0.3,1.1-1.2,1.9-2.4,2l-9.3,0.9c-1.4,0.1-2.6-0.8-2.9-2.1
		l-2-9.8h1.9"/>
		<path d="M4.4,5.2L3.5,1.1H1.1"/>
		<path d="M19.6,21.9c-0.3,0-0.5,0.2-0.5,0.5s0.2,0.5,0.5,0.5s0.5-0.2,0.5-0.5S19.9,21.9,19.6,21.9"/>
		<path d="M8.2,21.9c-0.3,0-0.5,0.2-0.5,0.5s0.2,0.5,0.5,0.5s0.5-0.2,0.5-0.5S8.5,21.9,8.2,21.9"/>
		<circle cx="10.6" cy="9.8" r="2.3"/>
		<path d="M10.6,12.1h6.9l0,0c0.6,0,1.2-0.5,1.2-1.2V4.6l0,0c0-0.6-0.5-1.2-1.2-1.2h-4.6"/>
		<path d="M8.3,9.7V3.4v0c0-1.3,1-2.3,2.3-2.3c1.3,0,2.3,1,2.3,2.3l0,0v6.3"/>
		<path d="M10.6,9.8L10.6,9.8C10.6,9.8,10.6,9.8,10.6,9.8C10.6,9.8,10.6,9.8,10.6,9.8C10.6,9.8,10.6,9.8,10.6,9.8
			L10.6,9.8C10.6,9.8,10.6,9.8,10.6,9.8L10.6,9.8"/>
	</g>
</svg>
