<?xml version="1.0" encoding="utf-8"?>
<!-- Generator: Adobe Illustrator 26.0.2, SVG Export Plug-In . SVG Version: 6.00 Build 0)  -->
<svg version="1.1" id="Ebene_1"
	xmlns="http://www.w3.org/2000/svg"
	xmlns:xlink="http://www.w3.org/1999/xlink" x="0px" y="0px" viewBox="0 0 24 24" style="enable-background:new 0 0 24 24;" xml:space="preserve">
	<g stroke-linecap="round" stroke-width="1.5" stroke="currentColor" fill="none" stroke-linejoin="round">
		<circle cx="7" cy="17" r="4"/>
		<path d="M21,13.5V8l0,0c0-1.1-0.9-2-2-2h-8"/>
		<path d="M19,21"/>
		<path d="M7,21h5"/>
		<path d="M3,16.8V6v0c0-2.2,1.8-4,4-4c2.2,0,4,1.8,4,4l0,0v10.8"/>
		<path d="M6.9,17L6.9,17C6.9,17,7,17,6.9,17c0.1,0,0.1,0,0.1,0C7.1,17,7,16.9,6.9,17L6.9,17C7,16.9,6.9,17,6.9,17
		L6.9,17"/>
		<line x1="19.8" y1="18.5" x2="16.3" y2="18.5"/>
	</g>
	<g stroke-linecap="round" stroke-width="1.0" stroke="currentColor" fill="none" stroke-linejoin="round">
		<circle cx="18" cy="18.5" r="3.6"/>
	</g>
</svg>
