<?xml version="1.0" encoding="utf-8"?>
<!-- Generator: Adobe Illustrator 26.0.2, SVG Export Plug-In . SVG Version: 6.00 Build 0)  -->
<svg version="1.1" id="Layer_3"
	xmlns="http://www.w3.org/2000/svg"
	xmlns:xlink="http://www.w3.org/1999/xlink" x="0px" y="0px" viewBox="0 0 24 24" style="enable-background:new 0 0 24 24;" xml:space="preserve">
	<g stroke-linecap="round" stroke-width="1.5" stroke="currentColor" fill="none" stroke-linejoin="round">
		<path d="M21,8.7c0-1.1-0.6-2.1-1.6-2.6l-6-3.2c-0.9-0.5-1.9-0.5-2.8,0l-6,3.2C3.6,6.6,3,7.6,3,8.7V19c0,1.1,0.9,2,2,2h1
	"/>
		<path d="M6,21v-9.5c0-0.7,0.4-1.4,1-1.4c0,0,5,0,5,0h5c0.6,0,1,0.6,1,1.4V21"/>
		<line x1="10" y1="7.3" x2="14" y2="7.3"/>
		<path d="M18,21h1c1.1,0,2-0.9,2-2V8.7"/>
	</g>
	<g stroke-linecap="round" stroke-width="1.0" stroke="currentColor" fill="none" stroke-linejoin="round">
		<circle cx="9.8" cy="19.4" r="1.9"/>
		<path d="M9.8,21.2h5.5l0,0c0.5,0,0.9-0.4,0.9-0.9v-5l0,0c0-0.5-0.4-0.9-0.9-0.9h-3.6"/>
		<path d="M7.9,19.3v-4.9l0,0c0-1,0.8-1.9,1.9-1.9c1,0,1.9,0.8,1.9,1.9l0,0v4.9"/>
		<path d="M9.8,19.4L9.8,19.4L9.8,19.4L9.8,19.4L9.8,19.4L9.8,19.4L9.8,19.4L9.8,19.4"/>
	</g>
</svg>
