<?xml version="1.0" encoding="utf-8"?>
<!-- Generator: Adobe Illustrator 26.0.2, SVG Export Plug-In . SVG Version: 6.00 Build 0)  -->
<svg version="1.1" id="Ebene_1"
	xmlns="http://www.w3.org/2000/svg"
	xmlns:xlink="http://www.w3.org/1999/xlink" x="0px" y="0px" viewBox="0 0 24 24" style="enable-background:new 0 0 24 24;" xml:space="preserve">
	<g stroke-linecap="round" stroke-width="1.5" stroke="currentColor" fill="none" stroke-linejoin="round">
		<path d="M11.2,12c0,0.4,0.3,0.8,0.8,0.7c0.4,0,0.8-0.3,0.8-0.8s-0.3-0.8-0.8-0.8C11.6,11.3,11.2,11.6,11.2,12"/>
		<path d="M11.2,7c0,0.4,0.3,0.8,0.8,0.7c0.4,0,0.8-0.3,0.8-0.8S12.4,6.2,12,6.2C11.6,6.3,11.2,6.6,11.2,7"/>
		<path d="M11.2,17c0,0.4,0.3,0.8,0.8,0.7c0.4,0,0.8-0.3,0.8-0.8c0-0.4-0.3-0.8-0.8-0.8C11.6,16.3,11.2,16.6,11.2,17"/>
		<path d="M21,7v10c0,2.2-1.8,4-4,4H7c-2.2,0-4-1.8-4-4V7c0-2.2,1.8-4,4-4h10C19.2,3,21,4.8,21,7z"/>
	</g>
</svg>
