<?xml version="1.0" encoding="utf-8"?>
<!-- Generator: Adobe Illustrator 27.0.1, SVG Export Plug-In . SVG Version: 6.00 Build 0)  -->
<svg version="1.1" id="Ebene_1" xmlns="http://www.w3.org/2000/svg" xmlns:xlink="http://www.w3.org/1999/xlink" x="0px" y="0px"
	viewBox="0 0 24 24" style="enable-background:new 0 0 24 24;" xml:space="preserve">
	<g stroke-linecap="round" stroke-width="1.5" stroke="currentColor" fill="none" stroke-linejoin="round">
		<path d="M14.9,12.5c-3.4,0-6.5,1.2-8,4.5v-1c0-5,3.6-8,8-8V5.9c0-0.8,0.9-1.2,1.5-0.7l5.3,4.5c0.4,0.3,0.4,1,0,1.3
	l-5.3,4.8c-0.6,0.5-1.5,0.1-1.5-0.7V12.5z" />
		<path d="M22,15v4c0,1.1-0.9,2-2,2H4c-1.1,0-2-0.9-2-2V5c0-1.1,0.9-2,2-2h7.9" />
		<path d="M2,8h6.2" />
		<path d="M4.8,5.5C4.8,5.5,4.8,5.5,4.8,5.5C4.8,5.5,4.8,5.5,4.8,5.5C4.8,5.5,4.8,5.5,4.8,5.5C4.8,5.5,4.8,5.5,4.8,5.5" />
		<path d="M7.3,5.5C7.3,5.5,7.3,5.5,7.3,5.5C7.3,5.5,7.3,5.5,7.3,5.5C7.3,5.5,7.3,5.5,7.3,5.5C7.3,5.5,7.3,5.5,7.3,5.5" />
		<path d="M9.9,5.5C9.9,5.5,9.9,5.5,9.9,5.5C9.9,5.5,9.9,5.5,9.9,5.5C9.9,5.5,9.9,5.5,9.9,5.5C9.9,5.5,9.9,5.5,9.9,5.5" />
	</g>
</svg>