<?xml version="1.0" encoding="utf-8"?>
<!-- Generator: Adobe Illustrator 25.4.1, SVG Export Plug-In . SVG Version: 6.00 Build 0)  -->
<svg version="1.1" id="Ebene_1"
	xmlns="http://www.w3.org/2000/svg"
	xmlns:xlink="http://www.w3.org/1999/xlink" x="0px" y="0px" viewBox="0 0 24 24" style="enable-background:new 0 0 24 24;" xml:space="preserve">
	<g stroke-linecap="round" stroke-width="1.5" stroke="currentColor" fill="none" stroke-linejoin="round">
		<path d="M15.7,2v2.3"/>
		<path d="M6.2,2v2.4"/>
		<path d="M1.5,7.9h18.9"/>
		<path d="M20.4,10.3V5.6c0-1.3-1.1-2.4-2.3-2.4H3.8c-1.3,0-2.3,1-2.3,2.4v13c0,1.3,1.1,2.3,2.3,2.3h7.1"/>
		<path d="M6.2,11.2c-0.2,0-0.3,0.1-0.3,0.3s0.1,0.3,0.3,0.3s0.3-0.1,0.3-0.3S6.4,11.2,6.2,11.2"/>
		<path d="M6.2,15.9c-0.2,0-0.3,0.1-0.3,0.3c0,0.2,0.1,0.3,0.3,0.3s0.3-0.1,0.3-0.3C6.5,16,6.4,15.9,6.2,15.9"/>
		<path d="M10.6,11.5c0,0.2,0.1,0.3,0.3,0.3s0.3-0.1,0.3-0.3s-0.1-0.3-0.3-0.3S10.6,11.3,10.6,11.5"/>
		<path d="M17.6,21.7l4.6-4.6c0.4-0.4,0.4-1.1,0-1.5l-1.7-1.7c-0.4-0.4-1.1-0.4-1.5,0l-4.6,4.6c-0.2,0.2-0.3,0.4-0.3,0.7
		V22h2.7C17.1,22,17.4,21.9,17.6,21.7z"/>
	</g>
</svg>
