<?xml version="1.0" encoding="utf-8"?>
<!-- Generator: Adobe Illustrator 25.4.0, SVG Export Plug-In . SVG Version: 6.00 Build 0)  -->
<svg version="1.1" id="Ebene_1"
	xmlns="http://www.w3.org/2000/svg"
	xmlns:xlink="http://www.w3.org/1999/xlink" x="0px" y="0px" viewBox="0 0 24 24" style="enable-background:new 0 0 24 24;" xml:space="preserve">
	<g stroke-linecap="round" stroke-width="1.5" stroke="currentColor" fill="none" stroke-linejoin="round">
		<path d="M20.6,5.2h0.9c0.9,0,1.5,0.8,1.3,1.7L21,14.2c-0.3,1.1-1.2,1.9-2.4,2l-9.3,0.9c-1.4,0.1-2.6-0.8-2.9-2.1
		L4.4,5.2h1.9"/>
		<path d="M4.4,5.2L3.5,1.1H1.1"/>
		<path d="M19.6,21.9c-0.3,0-0.5,0.2-0.5,0.5c0,0.3,0.2,0.5,0.5,0.5c0.3,0,0.5-0.2,0.5-0.5
		C20.1,22.1,19.9,21.9,19.6,21.9"/>
		<path d="M8.2,21.9c-0.3,0-0.5,0.2-0.5,0.5c0,0.3,0.2,0.5,0.5,0.5c0.3,0,0.5-0.2,0.5-0.5C8.7,22.1,8.5,21.9,8.2,21.9"/>
	</g>
	<g stroke-linecap="round" stroke-width="1.5" stroke="currentColor" fill="none" stroke-linejoin="round">
		<path d="M18.9,10.5l-5.3,2.4"/>
		<path d="M13.6,12.9l-5.3-2.4"/>
		<path d="M18.9,7.6L13.6,10"/>
		<path d="M13.6,10L8.3,7.6"/>
		<path d="M8.3,4.7L13.6,7l5.3-2.4l-5.3-2.4L8.3,4.7z"/>
	</g>
</svg>
