<svg xmlns="http://www.w3.org/2000/svg" viewBox="0 0 24 24">
  <g
    stroke-linecap="round"
    stroke-width="1.5"
    stroke="currentColor"
    fill="none"
    stroke-linejoin="round"
  >
    <line x1="8" y1="18" x2="18.34715" y2="18" />
    <circle cx="18.34715" cy="19.75" r="1.75" />
    <circle cx="8" cy="19.75" r="1.75" />
    <path
      d="M16.09326,18H6.7004a1.75,1.75,0,0,1-1.75-1.7493h0A1.75,1.75,0,0,1,6.7004,14.5h9.39286"
    />
    <path
      d="M17.9504,6.5h2.04905a1,1,0,0,1,.96626,1.25759l-1.59948,6A1,1,0,0,1,18.4,14.5l-11.15,0L5,4H3"
    />
    <path d="M5.53571,6.5H7.9504" />
    <path d="M10.75,6.5h4.5" />
    <path d="M13,8.75V4.25" />
  </g>
</svg>
