<?xml version="1.0" encoding="utf-8"?>
<!-- Generator: Adobe Illustrator 26.0.1, SVG Export Plug-In . SVG Version: 6.00 Build 0)  -->
<svg version="1.1" id="Ebene_1"
	xmlns="http://www.w3.org/2000/svg"
	xmlns:xlink="http://www.w3.org/1999/xlink" x="0px" y="0px" viewBox="0 0 24 24" style="enable-background:new 0 0 24 24;" xml:space="preserve">
	<g stroke-linecap="round" stroke-width="1.5" stroke="currentColor" fill="none" stroke-linejoin="round">
		<path d="M20.5,9.5V8c0-0.7-0.4-1.4-1-1.7l-6.9-4c-0.6-0.4-1.4-0.4-2,0l-6.9,4c-0.6,0.4-1,1-1,1.7v8
		c0,0.7,0.4,1.4,1,1.7l4.9,2.8"/>
		<path d="M5.8,12.6l2.6,1.5"/>
		<path d="M14.8,10.1L20.3,7"/>
		<path d="M2.9,7l7.4,4.3"/>
		<line x1="15.9" y1="9.5" x2="7.1" y2="4.3"/>
		<path d="M14.4,22v-8.2h-2.2l0,0c-0.3,0-0.6,0.3-0.6,0.6l0,0V22"/>
		<path d="M22.6,22v-7.6l0,0c0-0.3-0.3-0.6-0.6-0.6h-2.1V22"/>
		<path d="M19.9,22v-9.2l0,0c0-0.3-0.3-0.6-0.6-0.6H15l0,0c-0.3,0-0.6,0.3-0.6,0.6V22"/>
		<path d="M23,22H11.1"/>
	</g>
</svg>
