<?xml version="1.0" encoding="utf-8"?>
<!-- Generator: Adobe Illustrator 26.1.0, SVG Export Plug-In . SVG Version: 6.00 Build 0)  -->
<svg version="1.1" id="Layer_3"
	xmlns="http://www.w3.org/2000/svg"
	xmlns:xlink="http://www.w3.org/1999/xlink" x="0px" y="0px" viewBox="0 0 24 24" style="enable-background:new 0 0 24 24;" xml:space="preserve">
	<g stroke-linecap="round" stroke-width="1.5" stroke="currentColor" fill="none" stroke-linejoin="round">
		<path d="M21,8.7c0-1.1-0.6-2.1-1.6-2.6l-6-3.2c-0.9-0.5-1.9-0.5-2.8,0l-6,3.2C3.6,6.6,3,7.6,3,8.7V19c0,1.1,0.9,2,2,2
		h1"/>
		<path d="M6,21v-9.5c0-0.7,0.4-1.4,1-1.4h5h5c0.6,0,1,0.6,1,1.4V21"/>
		<line x1="10" y1="7.3" x2="14" y2="7.3"/>
		<path d="M18,21h1c1.1,0,2-0.9,2-2V8.7"/>
	</g>
	<g stroke-linecap="round" stroke-width="1" stroke="currentColor" fill="none" stroke-linejoin="round">
		<path d="M16.2,18.5v-3.7c0-0.3-0.2-0.6-0.5-0.8l-3.2-1.9c-0.3-0.2-0.6-0.2-0.9,0L8.4,14c-0.3,0.2-0.5,0.5-0.5,0.8v3.7
		c0,0.3,0.2,0.6,0.5,0.8l3.2,1.9c0.3,0.2,0.6,0.2,0.9,0l3.2-1.9C16,19.1,16.2,18.8,16.2,18.5z"/>
		<path d="M9.3,16.9l1.4,0.8"/>
		<path d="M8,14.3l4,2.3l4-2.3"/>
		<path d="M12.1,21.3v-4.6"/>
		<line x1="14.1" y1="15.5" x2="10" y2="13.1"/>
	</g>
</svg>
