<?xml version="1.0" encoding="utf-8"?>
<!-- Generator: Adobe Illustrator 26.0.2, SVG Export Plug-In . SVG Version: 6.00 Build 0)  -->
<svg version="1.1" id="Ebene_1"
	xmlns="http://www.w3.org/2000/svg"
	xmlns:xlink="http://www.w3.org/1999/xlink" x="0px" y="0px" viewBox="0 0 24 24" style="enable-background:new 0 0 24 24;" xml:space="preserve">
	<g stroke-linecap="round" stroke-width="1.5" stroke="currentColor" fill="none" stroke-linejoin="round">
		<path d="M20.5,10.9V8c0-0.7-0.4-1.4-1-1.7l-6.9-4c-0.6-0.4-1.4-0.4-2,0l-6.9,4c-0.6,0.4-1,1-1,1.7v8
		c0,0.7,0.4,1.4,1,1.7l6.9,4"/>
		<path d="M5.8,12.6l3,1.7"/>
		<path d="M2.9,7l8.7,5l8.7-5"/>
		<path d="M11.6,12.7V12"/>
		<line x1="15.9" y1="9.5" x2="7.1" y2="4.3"/>
	</g>
	<g stroke-linecap="round" stroke-width="1.0" stroke="currentColor" fill="none" stroke-linejoin="round">
		<path d="M23,17.5c0-0.9-0.2-1.8-0.7-2.6c-0.4-0.7-1.1-1.3-1.9-1.8c-0.8-0.4-1.7-0.6-2.7-0.6s-1.9,0.2-2.7,0.6
		c-0.8,0.4-1.4,1-1.9,1.8c-0.4,0.7-0.7,1.6-0.7,2.5c0,0.8,0.2,1.6,0.5,2.3v0c0,0,0,0.1,0.1,0.1c0,0,0,0,0,0c0.4,0.7,1.1,1.3,1.9,1.8
		c0.6,0.3,1.3,0.5,2.1,0.6c-0.1-0.9-0.4-1.8-0.8-2.1c0,0,0,0-0.1-0.1c0,0,0,0-0.1,0c-0.3-0.2-0.6-0.5-0.8-0.9c0,0,0,0,0,0
		c0,0,0,0,0-0.1l0,0c-0.2-0.4-0.4-1-0.4-1.6c0-0.6,0.1-1.1,0.4-1.6c0.2-0.5,0.6-0.9,1.1-1.1c0.4-0.2,1-0.4,1.5-0.4
		c0.5,0,1.1,0.1,1.5,0.4s0.8,0.6,1.1,1.1c0.2,0.4,0.4,1,0.4,1.6s-0.1,1.1-0.4,1.6l0,0c0,0,0,0.1-0.1,0.1l0,0
		c-0.2,0.4-0.5,0.7-0.9,0.9c0,0,0,0-0.1,0c0,0,0,0-0.1,0.1c-0.1,0.1-0.3,0.5-0.4,0.9c-0.1,0.4-0.2,0.8-0.3,1.3
		c0.7-0.1,1.4-0.3,2-0.6c0.8-0.4,1.4-1,1.9-1.8C22.8,19.3,23,18.4,23,17.5L23,17.5z"/>
	</g>
	<g fill="currentColor">
		<path d="M16,17.2c0.1,0.1,0.3,0.2,0.5,0.3l0,0l0,0l0.1,0.1c0.6,0.4,1.3,0.9,2.1,1h0.1c0.1,0,0.3,0,0.4,0c-0.1,0.2-0.3,0.4-0.5,0.5
	c-0.2,0.1-0.2,0.2-0.3,0.2l0,0l-0.1,0.1c-0.2,0.2-0.4,0.5-0.5,0.8c-0.1-0.3-0.3-0.6-0.5-0.8L17,19.3c-0.1-0.1-0.1-0.1-0.3-0.2
	c-0.3-0.2-0.5-0.4-0.5-0.6l0,0l0,0c-0.1-0.2-0.2-0.5-0.2-0.9v-0.2C15.9,17.3,15.9,17.2,16,17.2C15.9,17.2,15.9,17.2,16,17.2"/>
	</g>
</svg>
