<?xml version="1.0" encoding="utf-8"?>
<!-- Generator: Adobe Illustrator 27.1.0, SVG Export Plug-In . SVG Version: 6.00 Build 0)  -->
<svg version="1.1" id="Layer_3" xmlns="http://www.w3.org/2000/svg"
	xmlns:xlink="http://www.w3.org/1999/xlink" x="0px" y="0px"
	viewBox="0 0 24 24" style="enable-background:new 0 0 24 24;" xml:space="preserve">
<g stroke-linecap="round" stroke-width="1.5" stroke="currentColor" fill="none" stroke-linejoin="round">
<path d="M8.7,2h6.7c0.6,0,1.1,0.5,1.1,1.1v2.2c0,0.6-0.5,1.1-1.1,1.1H8.7c-0.6,0-1.1-0.5-1.1-1.1V3.1
	C7.6,2.5,8.1,2,8.7,2z"/>
<path d="M16.4,4.2h2.2c1.2,0,2.2,1,2.2,2.2v13.3c0,1.2-1,2.2-2.2,2.2H5.3c-1.2,0-2.2-1-2.2-2.2V6.4c0-1.2,1-2.2,2.2-2.2
	h2.2"/>
</g>
<g stroke-linecap="round" stroke-width="1.2" stroke="currentColor" fill="none" stroke-linejoin="round">
	<path d="M11,11.9c-0.5-0.6-1.2-1.1-2-1.1l0,0c-1.4,0-2.6,1.1-2.6,2.6l0,0c0,1.4,1.1,2.6,2.6,2.6l0,0l0,0
		c1,0,1.8-0.5,2.3-1.3l0.7-1.2l0.7-1.2c0.5-0.8,1.4-1.3,2.3-1.3l0,0l0,0c1.4,0,2.6,1.1,2.6,2.6l0,0c0,1.4-1.1,2.6-2.6,2.6l0,0
		c-0.8,0-1.6-0.4-2-1.1"/>
	<polyline points="10.8,9.9 11.2,11.9 9.2,12.2 	"/>
</g>
</svg>