<?xml version="1.0" encoding="utf-8"?>
<!-- Generator: Adobe Illustrator 26.0.1, SVG Export Plug-In . SVG Version: 6.00 Build 0)  -->
<svg version="1.1" id="Layer_3"
	xmlns="http://www.w3.org/2000/svg"
	xmlns:xlink="http://www.w3.org/1999/xlink" x="0px" y="0px" viewBox="0 0 24 24" style="enable-background:new 0 0 24 24;" xml:space="preserve">
	<g stroke-linecap="round" stroke-width="1.5" stroke="currentColor" fill="none" stroke-linejoin="round">
		<path d="M15.1,17.2"/>
		<path d="M3,21v-0.5c0-1.4,1-2.7,2.4-2.9L8.3,17c0.2,0,0.5,0,0.7,0.1l0,0c0.9,0.6,2,0.9,3.1,0.9"/>
		<line x1="8" y1="21" x2="8" y2="17.1"/>
		<path d="M7.8,9h8.3c0.6,0,1-0.4,1-1V7.2C17.2,4.3,14.9,2,12,2c0,0,0,0,0,0l0,0C9.1,2,6.8,4.3,6.8,7.2c0,0,0,0,0,0V8
		C6.8,8.6,7.3,9,7.8,9z"/>
		<line x1="6.5" y1="9" x2="17.5" y2="9"/>
		<path d="M16,9v2c0,2.2-1.8,4-4,4l0,0c-2.2,0-4-1.8-4-4V9"/>
		<line x1="14.1" y1="14.4" x2="14.4" y2="15.5"/>
		<line x1="9.9" y1="14.4" x2="9.2" y2="17.3"/>
		<path d="M13.5,2.2v1.4c0,0.8-0.7,1.5-1.5,1.5l0,0c-0.8,0-1.5-0.7-1.5-1.5V2.2"/>
		<line x1="7" y1="21" x2="13" y2="21"/>
		<path d="M17.3,15.4L17.3,15.4c0.2-0.4,0.8-0.6,1.2-0.4c0.1,0.1,0.3,0.2,0.4,0.4l0.7,1.3l0,0c0.1,0.1,0.2,0.3,0.4,0.4
		l1.3,0.7l0,0c0.4,0.2,0.6,0.8,0.4,1.2c-0.1,0.1-0.2,0.3-0.4,0.4L19.9,20l0,0c-0.2,0.1-0.3,0.2-0.4,0.4l-0.7,1.3l0,0
		c-0.2,0.4-0.8,0.6-1.2,0.4c-0.2-0.1-0.3-0.2-0.4-0.4l-0.7-1.3l0,0c-0.1-0.2-0.2-0.3-0.4-0.4l-1.3-0.7l0,0c-0.4-0.2-0.6-0.8-0.4-1.2
		c0.1-0.2,0.2-0.3,0.4-0.4l1.3-0.7l0,0c0.1-0.1,0.3-0.2,0.4-0.4L17.3,15.4z"/>
	</g>
</svg>
