<?xml version="1.0" encoding="UTF-8"?>
<svg
  id="Ebene_1"
  data-name="Ebene 1"
  xmlns="http://www.w3.org/2000/svg"
  version="1.1"
  viewBox="0 0 24 24"
>
  <g stroke-width="0" fill="currentColor">
    <path
      d="M9.6,12.2s0,0,0,0c-.5.2-.8.4-1.2.8-.2.2-.3.4-.5.6-.1.1-.2.3-.3.4,0,0,0,.1.1.2.3.3.7.6,1,.9,0,0,0,0,.1.1-.1.2-.3.3-.4.4-.1.1-.3.3-.4.4-.1.1-.3.3-.4.4,1.4,2.1,2.8,4.3,4.2,6.4-.1,0-.2,0-.3,0-1.2,0-2.4-.3-3.6-.8-1.4-.6-2.6-1.4-3.7-2.4-.2-.2-.3-.3-.5-.5,0,0,0-.1,0-.2,0-.4,0-.9,0-1.3,0-.4,0-.8.1-1.2,0-.6.2-1.1.5-1.6.3-.6.7-1,1.2-1.4.3-.2.7-.4,1.1-.6.7-.3,1.4-.5,2.1-.6.2,0,.5-.1.7-.1,0,0,0,0,0,0h0Z"
    />
    <path
      d="M12.2,23c0,0,0-.1.1-.2.5-.8,1.1-1.6,1.6-2.4.8-1.2,1.6-2.4,2.4-3.6,0,0,0-.1.1-.2-.1-.2-.3-.3-.4-.4-.1-.1-.2-.3-.4-.4-.1-.1-.3-.3-.4-.4,0,0,0,0,.1-.1.3-.3.6-.6,1-.8,0,0,.1-.1.2-.2,0,0,0,0,0-.1-.2-.3-.4-.6-.7-.9-.2-.2-.4-.4-.6-.6-.2-.1-.4-.2-.6-.3,0,0,0,0-.1,0,.2,0,.3,0,.4,0,.8.1,1.6.3,2.3.6.3.1.7.3,1,.5.8.5,1.4,1.2,1.7,2.1.1.4.2.8.3,1.2.1.8.2,1.6.2,2.4,0,.1,0,.2,0,.2-.5.5-1,1-1.6,1.5-1.3,1-2.8,1.7-4.4,2-.4,0-.9.2-1.3.2-.2,0-.4,0-.6,0,0,0,0,0-.1,0Z"
    />
    <path
      d="M7.6,5.8c.1,0,.2.2.2.3,0,.2.1.4.2.7,0,.2.1.4.2.5.1.2.2.3.4.3.4,0,.8.2,1.2.1.2,0,.5,0,.7,0,0,0,0,0,0,0,.3,0,.5-.3.7-.4.2-.1.2-.3.3-.5,0-.2.1-.4.2-.6,0,0,0,0,.1,0,0,0,.1,0,.2,0,.2,0,.3,0,.3.2,0,.1,0,.3.2.4.2.6.6.9,1.3,1,.3,0,.6,0,.8,0,.2,0,.5,0,.7,0,.4,0,.6-.4.7-.7,0-.1,0-.3,0-.4,0-.1,0-.2,0-.4,0-.2.2-.3.4-.5,0,0,0,0,0,0,0,.2,0,.4,0,.5,0,.7,0,1.4-.3,2-.3.9-.8,1.8-1.6,2.4-.5.4-1,.7-1.6.8-.5.1-.9.1-1.4,0-1-.1-1.7-.6-2.4-1.2-.7-.7-1.1-1.5-1.3-2.4-.1-.5-.2-1-.2-1.5,0-.2,0-.5,0-.8Z"
    />
    <path
      d="M16.3,5.1c-.2,0-.4,0-.5,0-.6,0-1.2,0-1.8,0-.6,0-1.2.1-1.7.3-.3,0-.5,0-.8,0-.2,0-.5,0-.7-.2-.3,0-.6-.1-.9-.2-.4,0-.8,0-1.2,0-.3,0-.7,0-1,0,0,0,0,0,0-.1,0-.9.3-1.8.8-2.5.4-.6.8-.9,1.5-1.1.4-.1.8-.2,1.2-.3.4,0,.9,0,1.3,0,.5,0,1,0,1.5.3.2,0,.4.2.6.3.3.2.6.4.8.7.4.6.7,1.2.8,1.9,0,.2,0,.4.1.6,0,0,0,.2,0,.3Z"
    />
    <path
      d="M10.4,12.8c1.1.4,2.1.4,3.2,0,0,0,0,.1,0,.2,0,.4-.1.7-.2,1.1,0,.6-.2,1.1-.3,1.7,0,.6-.2,1.1-.3,1.7,0,.5-.2,1.1-.3,1.6,0,.5-.2,1.1-.3,1.6,0,.6-.2,1.1-.3,1.7,0,.2,0,.4,0,.5,0,0,0,0,0,0-.5-3.3-1.1-6.7-1.6-10,0,0,0,0,0,0Z"
    />
  </g>
</svg>
