<?xml version="1.0" encoding="UTF-8"?>
<svg
  id="Layer_3"
  data-name="Layer 3"
  xmlns="http://www.w3.org/2000/svg"
  version="1.1"
  viewBox="0 0 24 24"
>
  <g
    fill="none"
    stroke="currentColor"
    stroke-linecap="round"
    stroke-linejoin="round"
    stroke-width="1.5"
  >
    <line x1="6" y1="11" x2="7" y2="11" />
    <line x1="10" y1="11" x2="11" y2="11" />
    <line x1="6" y1="14" x2="7" y2="14" />
    <line x1="10" y1="14" x2="11" y2="14" />
    <line x1="6" y1="11" x2="7" y2="11" />
    <line x1="10" y1="11" x2="11" y2="11" />
    <line x1="6" y1="17" x2="7" y2="17" />
    <line x1="10" y1="17" x2="11" y2="17" />
    <line x1="6" y1="17" x2="7" y2="17" />
    <line x1="10" y1="17" x2="11" y2="17" />
    <line x1="18" y1="8" x2="3" y2="8" />
    <path d="M11,20h-6c-1.1,0-2-.9-2-2V5c0-1.1.9-2,2-2h11c1.1,0,2,.9,2,2v6" />
    <line x1="6" y1="11" x2="7" y2="11" />
    <line x1="10" y1="11" x2="11" y2="11" />
    <line x1="14" y1="11" x2="15" y2="11" />
    <path
      d="M20.4,20.3c-.5.3-1.2.7-1.8.7-1.8,0-3.3-1.7-3.3-3.8s1.5-3.8,3.3-3.8,1.3.2,1.8.7"
    />
  </g>
  <g
    fill="none"
    stroke="currentColor"
    stroke-linecap="round"
    stroke-linejoin="round"
  >
    <line x1="13.4" y1="16.1" x2="19.1" y2="16.1" />
    <line x1="13.4" y1="18" x2="19.1" y2="18" />
  </g>
</svg>
