<?xml version="1.0" encoding="utf-8"?>
<!-- Generator: Adobe Illustrator 26.0.3, SVG Export Plug-In . SVG Version: 6.00 Build 0)  -->
<svg version="1.1" id="Ebene_1"
	xmlns="http://www.w3.org/2000/svg"
	xmlns:xlink="http://www.w3.org/1999/xlink" x="0px" y="0px" viewBox="0 0 24 24" style="enable-background:new 0 0 24 24;" xml:space="preserve">
	<g fill="none" stroke="currentColor" stroke-linecap="round" stroke-linejoin="round" stroke-width="1.5">
		<line x1="15" y1="10" x2="21" y2="10"/>
		<line x1="15" y1="5" x2="21" y2="5"/>
		<line x1="21" y1="15" x2="9" y2="15"/>
		<line x1="21" y1="20" x2="9" y2="20"/>
		<path d="M5,15L5,15c0,0.1-0.1,0.2-0.2,0.2S4.5,15.1,4.5,15s0.1-0.2,0.2-0.2l0,0C4.9,14.8,5,14.9,5,15"/>
		<path d="M5,20L5,20c0,0.1-0.1,0.2-0.2,0.2S4.5,20.1,4.5,20s0.1-0.2,0.2-0.2l0,0C4.9,19.8,5,19.9,5,20"/>
		<path d="M9.5,9.7c-0.5,0.3-0.9,0.6-1.6,0.6c-1.6,0-2.8-1.4-2.8-3.3S6.4,3.8,8,3.8c0.6,0,1.1,0.2,1.6,0.6"/>
	</g>
	<g fill="none" stroke="currentColor" stroke-linecap="round" stroke-linejoin="round" stroke-width="1">
		<line x1="3.5" y1="6.3" x2="8.5" y2="6.3"/>
		<line x1="3.5" y1="7.9" x2="8.5" y2="7.9"/>
	</g>
</svg>
