<?xml version="1.0" encoding="utf-8"?>
<!-- Generator: Adobe Illustrator 26.0.3, SVG Export Plug-In . SVG Version: 6.00 Build 0)  -->
<svg version="1.1" id="Ebene_1"
	xmlns="http://www.w3.org/2000/svg"
	xmlns:xlink="http://www.w3.org/1999/xlink" x="0px" y="0px" viewBox="0 0 24 24" style="enable-background:new 0 0 24 24;" xml:space="preserve">
	<g fill="none" stroke="currentColor" stroke-linecap="round" stroke-linejoin="round" stroke-width="1.5">
		<path d="M7,8V4l0,0c0-0.6,0.4-1,1-1h8h0c0.5,0,1,0.4,1,1v4"/>
		<path d="M7,17H5l0,0c-1.1,0-2-0.9-2-2l0,0v-5l0,0c0-1.1,0.9-2,2-2h14h0c1.1,0,2,0.9,2,2v1"/>
		<path d="M7,11h1"/>
		<path d="M11,21H8h0c-0.6,0-1-0.5-1-1v0v-6h4"/>
	</g>
	<g fill="none" stroke="currentColor" stroke-linecap="round" stroke-linejoin="round" stroke-width="1">
		<path d="M21.8,14.9l-1.7-1.7c-0.2-0.2-0.6-0.4-0.9-0.4h-4.3c-0.8,0-1.4,0.6-1.4,1.3v7.1c0,0.7,0.6,1.3,1.3,1.3h6
		c0.7,0,1.3-0.6,1.3-1.3v-5.5C22.2,15.5,22.1,15.2,21.8,14.9z"/>
		<path d="M22.2,16.2h-2.6c-0.4,0-0.7-0.2-0.7-0.7v-2.7"/>
		<path d="M15.2,18.2h4"/>
		<path d="M15.2,20.5h4"/>
		<path d="M15.2,15.8h1.3"/>
	</g>
</svg>
