<?xml version="1.0" encoding="UTF-8"?>
<svg
  id="Ebene_1"
  data-name="Ebene 1"
  xmlns="http://www.w3.org/2000/svg"
  version="1.1"
  viewBox="0 0 24 24"
>
  <g stroke-width="0" fill="currentColor">
    <path
      d="M12,22.9c-.2,0-.4,0-.5,0-.2,0-.4,0-.6,0-.1,0-.2,0-.4,0-.1,0-.3,0-.4,0-.3,0-.5,0-.8-.2-.4-.1-.9-.2-1.3-.4-.3-.1-.6-.3-.9-.4-.4-.2-.7-.4-1.1-.6-.3-.2-.6-.4-.9-.7-.1-.1-.3-.2-.4-.3-.3-.3-.6-.6-.9-.9,0,0-.1-.1-.2-.2,0,0,0,0,0-.1,0,0,0-.1,0-.2,0-.1,0-.2,0-.3,0-.2,0-.4,0-.7,0-.3,0-.6,0-.9,0-.3.1-.7.2-1,0-.3.2-.7.3-1,.2-.4.4-.7.7-1,.4-.4.9-.7,1.4-1,.6-.3,1.3-.5,2-.6.2,0,.5,0,.7-.1.1,0,.2,0,.4,0,0,0,.2,0,.2,0,.1.1.3.2.4.4.2.2.5.3.7.4.3,0,.6.1.8.1,0,0,.1,0,.2,0,0,0,.1,0,.2,0,.1,0,.2,0,.4,0,.4,0,.8,0,1.1-.3.1,0,.2-.1.3-.2.2-.1.3-.2.5-.4,0,0,.1,0,.2,0,.7.1,1.3.3,2,.5.3,0,.7.2,1,.3.4.2.8.4,1.1.7.4.3.7.7,1,1.2.2.5.4.9.5,1.4,0,.3,0,.5.1.8,0,.2,0,.5,0,.7,0,0,0,0,0,0,0,.2,0,.4,0,.6,0,.2,0,.5,0,.7,0,0,0,0,0,.1-.2.2-.4.5-.7.7,0,0-.1.1-.2.2-.5.5-1,.9-1.6,1.2-.3.2-.7.4-1,.6-.5.2-1,.4-1.5.6-.4.1-.8.2-1.2.3-.2,0-.4,0-.7.1-.2,0-.4,0-.6,0-.3,0-.5,0-.8,0Z"
    />
    <path
      d="M7.6,6.3c0-.2,0-.3,0-.5,0-.2,0-.4,0-.6,0-.1,0-.2,0-.4,0-.5.1-.9.3-1.3.1-.3.3-.6.5-.9.2-.4.6-.6.9-.9.4-.3.8-.4,1.3-.5.2,0,.3,0,.5,0,.4,0,.8,0,1.2,0,.2,0,.4,0,.6,0,.2,0,.4,0,.6,0,.6.1,1.1.4,1.6.8.4.3.7.7.9,1.2.1.3.3.7.3,1,0,.2,0,.3,0,.5,0,.1,0,.3,0,.4,0,.2,0,.4,0,.6,0,.2,0,.5,0,.7,0,.3,0,.7,0,1,0,.4-.2.8-.3,1.2-.2.5-.5,1-.8,1.5-.4.5-.9.9-1.5,1.2-.3.2-.6.3-.9.4-.2,0-.3,0-.5,0-.1,0-.2,0-.3,0-.5,0-.9,0-1.3-.3-.4-.2-.8-.4-1.2-.7-.3-.2-.5-.5-.7-.8-.2-.2-.3-.4-.4-.7-.2-.3-.3-.7-.4-1,0-.3-.1-.5-.2-.8,0-.1,0-.3,0-.4,0-.2,0-.5,0-.7Z"
    />
  </g>
</svg>
