<?xml version="1.0" encoding="utf-8"?>
<!-- Generator: Adobe Illustrator 25.4.1, SVG Export Plug-In . SVG Version: 6.00 Build 0)  -->
<svg version="1.1" id="Layer_3"
	xmlns="http://www.w3.org/2000/svg"
	xmlns:xlink="http://www.w3.org/1999/xlink" x="0px" y="0px" viewBox="0 0 24 24" style="enable-background:new 0 0 24 24;" xml:space="preserve">
	<g stroke-linecap="round" stroke-width="1.5" stroke="currentColor" fill="none" stroke-linejoin="round">
		<line x1="4.8" y1="8.7" x2="2" y2="8.7"/>
		<line x1="4.8" y1="12" x2="2" y2="12"/>
		<line x1="4.8" y1="15.3" x2="2" y2="15.3"/>
		<line x1="22" y1="8.7" x2="19.2" y2="8.7"/>
		<line x1="22" y1="12" x2="19.2" y2="12"/>
		<line x1="22" y1="15.3" x2="19.2" y2="15.3"/>
		<line x1="8.7" y1="2" x2="8.7" y2="4.8"/>
		<line x1="12" y1="2" x2="12" y2="4.8"/>
		<line x1="15.3" y1="2" x2="15.3" y2="4.8"/>
		<line x1="12" y1="19.2" x2="12" y2="22"/>
		<line x1="15.3" y1="19.2" x2="15.3" y2="22"/>
		<line x1="8.7" y1="19.2" x2="8.7" y2="22"/>
		<path d="M15.6,4.8c2,0,3.6,1.7,3.6,3.6v7.2c0,2-1.7,3.6-3.6,3.6H8.3c-2,0-3.6-1.7-3.6-3.6V8.4c0-2,1.7-3.7,3.6-3.7
		H15.6z"/>
	</g>
	<g stroke-linecap="round" stroke-width="1.3" stroke="currentColor" fill="none" stroke-linejoin="round">
		<path d="M11.8,15.8H9.7c-0.6,0-1.1-0.5-1.1-1.1V8.2"/>
		<path d="M10.3,9.9L8.6,8.2L7,9.9"/>
		<g>
			<path d="M12.2,8.2h2.1c0.6,0,1.1,0.5,1.1,1.1v6.5"/>
			<path d="M13.7,14.1l1.7,1.7l1.7-1.7"/>
		</g>
	</g>
</svg>
