<?xml version="1.0" encoding="utf-8"?>
<!-- Generator: Adobe Illustrator 26.0.2, SVG Export Plug-In . SVG Version: 6.00 Build 0)  -->
<svg version="1.1" id="Layer_3"
	xmlns="http://www.w3.org/2000/svg"
	xmlns:xlink="http://www.w3.org/1999/xlink" x="0px" y="0px" viewBox="0 0 24 24" style="enable-background:new 0 0 24 24;" xml:space="preserve">
	<g fill="none" stroke="currentColor" stroke-linecap="round" stroke-linejoin="round" stroke-width="1.5">
		<path d="M12,15h-1.5C9.7,15,9,14.3,9,13.5v-3C9,9.7,9.7,9,10.5,9h3c0.8,0,1.5,0.7,1.5,1.5V12"/>
		<path d="M12,18.5H8.8c-1.8,0-3.2-1.5-3.2-3.2V8.8C5.5,7,7,5.5,8.8,5.5h6.5c1.8,0,3.2,1.5,3.2,3.2V12"/>
		<line x1="21" y1="9" x2="18.5" y2="9"/>
		<line x1="5.5" y1="9" x2="3" y2="9"/>
		<line x1="5.5" y1="12" x2="3" y2="12"/>
		<line x1="5.5" y1="15" x2="3" y2="15"/>
		<line x1="9" y1="3" x2="9" y2="5.5"/>
		<line x1="12" y1="3" x2="12" y2="5.5"/>
		<line x1="15" y1="3" x2="15" y2="5.5"/>
		<line x1="9" y1="18.5" x2="9" y2="21"/>
		<line x1="15" y1="15" x2="21" y2="15"/>
		<line x1="15" y1="18" x2="21" y2="18"/>
		<line x1="15" y1="21" x2="18.4" y2="21"/>
	</g>
</svg>
