<?xml version="1.0" encoding="utf-8"?>
<!-- Generator: Adobe Illustrator 26.2.1, SVG Export Plug-In . SVG Version: 6.00 Build 0)  -->
<svg version="1.1" id="Layer_3" xmlns="http://www.w3.org/2000/svg" xmlns:xlink="http://www.w3.org/1999/xlink" x="0px" y="0px" viewBox="0 0 24 24" style="enable-background:new 0 0 24 24;" xml:space="preserve">
	<g fill="none" stroke="currentColor" stroke-linecap="round" stroke-linejoin="round" stroke-width="1.5">
		<path d="M13,18.9" />
		<path d="M0.9,22.7v-0.5c0-1.4,1-2.7,2.4-2.9l2.9-0.6c0.2,0,0.5,0,0.7,0.1l0,0c0.9,0.6,2,0.9,3.1,0.9" />
		<line x1="5.9" y1="22.7" x2="5.9" y2="18.8" />
		<path d="M13.9,10.7v2c0,2.2-1.8,4-4,4l0,0c-2.2,0-4-1.8-4-4v-2" />
		<line x1="7.8" y1="16.1" x2="7.1" y2="19" />
		<line x1="4.9" y1="22.7" x2="10.9" y2="22.7" />
		<path d="M4.7,10.1h0.4h0c0.7,0,1.4,0.2,2,0.6l0,0h0c0.6,0.4,1.3,0.6,2,0.6h1.5l0,0c0.7,0,1.4-0.2,2-0.6l0,0l0,0
		c0.6-0.4,1.3-0.6,2-0.6h0.4l0,0c0.5,0,0.9-0.4,0.9-0.9l0,0l0,0l0,0c0-0.5-0.4-0.9-0.9-0.9H4.7l0,0c-0.5,0-0.9,0.4-0.9,0.9l0,0l0,0
		l0,0C3.8,9.6,4.2,10.1,4.7,10.1z" />
		<path d="M6.9,1.9v1.4l0,0c0,0.5,0.4,0.9,0.9,0.9l0,0l0,0c0.5,0,0.9-0.4,0.9-0.9V2v0c0-0.7,0.6-1.2,1.2-1.2l0,0l0,0
		c0.7,0,1.2,0.6,1.2,1.2v1.2l0,0c0,0.5,0.4,0.9,0.9,0.9l0,0l0,0c0.5,0,0.9-0.4,0.9-0.9l0,0V1.9" />
		<path d="M11,1.4h0.2l0,0c2,0,3.7,1.7,3.7,3.7v3.1" />
		<path d="M8.9,1.4H8.7l0,0C6.7,1.4,5,3.1,5,5.1l0,0v3.1" />
	</g>
	<g fill="none" stroke="currentColor" stroke-linecap="round" stroke-linejoin="round" stroke-width="1.0">
		<path d="M23.4,18.6c0-0.9-0.2-1.7-0.7-2.5c-0.4-0.7-1-1.3-1.8-1.7c-0.8-0.4-1.7-0.6-2.6-0.6c-1,0-1.8,0.2-2.6,0.6
		c-0.8,0.4-1.4,1-1.8,1.7c-0.4,0.7-0.7,1.5-0.7,2.4c0,0.8,0.2,1.6,0.5,2.2v0c0,0,0,0.1,0.1,0.1c0,0,0,0,0,0c0.4,0.7,1,1.3,1.8,1.7
		c0.6,0.3,1.3,0.5,2,0.6c-0.1-0.9-0.4-1.8-0.8-2c0,0,0,0-0.1-0.1c0,0,0,0-0.1,0c-0.3-0.2-0.6-0.5-0.8-0.9c0,0,0,0,0,0c0,0,0,0,0-0.1
		l0,0c-0.2-0.4-0.4-1-0.4-1.5s0.1-1.1,0.4-1.5c0.2-0.5,0.6-0.9,1-1.1c0.4-0.2,1-0.4,1.5-0.4c0.5,0,1,0.1,1.5,0.4
		c0.4,0.2,0.8,0.6,1,1c0.2,0.4,0.4,1,0.4,1.5s-0.1,1.1-0.4,1.5l0,0c0,0,0,0.1-0.1,0.1l0,0c-0.2,0.4-0.5,0.7-0.9,0.9c0,0,0,0-0.1,0
		c0,0,0,0-0.1,0.1c-0.1,0.1-0.3,0.5-0.4,0.9S19,23,18.9,23.4c0.7-0.1,1.4-0.3,1.9-0.6c0.8-0.4,1.4-1,1.8-1.7
		C23.1,20.4,23.4,19.5,23.4,18.6L23.4,18.6z" />
	</g>
	<g>
		<path fill="currentColor" d="M18.3,22.9c-0.1-0.6-0.4-1.5-0.9-2c0,0-0.1-0.1-0.1-0.1s-0.1-0.1-0.2-0.1c-0.3-0.2-0.6-0.4-0.7-0.8
		c-0.2-0.3-0.3-0.7-0.3-1.1c0,0,0-0.1,0-0.2c0-0.1,0-0.3,0-0.4c0.1-0.1,0.3-0.2,0.5-0.2c0.1,0,0.5,0.3,0.7,0.5
		c0.5,0.4,1.1,0.9,1.8,0.9c0,0,0.1,0,0.1,0c0.3,0,0.7-0.1,1.1-0.3c0,0.3-0.1,0.7-0.3,0.9c-0.2,0.3-0.4,0.6-0.7,0.8
		c-0.1,0-0.1,0.1-0.2,0.1s-0.1,0.1-0.1,0.1c-0.3,0.3-0.5,0.8-0.6,1.1C18.4,22.3,18.3,22.5,18.3,22.9z" />
	</g>
</svg>