<?xml version="1.0" encoding="utf-8"?>
<!-- Generator: Adobe Illustrator 25.4.1, SVG Export Plug-In . SVG Version: 6.00 Build 0)  -->
<svg version="1.1" id="Layer_3"
	xmlns="http://www.w3.org/2000/svg"
	xmlns:xlink="http://www.w3.org/1999/xlink" x="0px" y="0px" viewBox="0 0 24 24" style="enable-background:new 0 0 24 24;" xml:space="preserve">
	<g stroke-linecap="round" stroke-width="1.5" stroke="currentColor" fill="none" stroke-linejoin="round">
		<line x1="14.5" y1="12" x2="22" y2="12"/>
		<line x1="10.7" y1="9.8" x2="7" y2="3.3"/>
		<line x1="10.7" y1="14.2" x2="7" y2="20.7"/>
		<circle cx="12" cy="12" r="2.5"/>
		<line x1="2" y1="12" x2="3.8" y2="12"/>
		<line x1="17" y1="3.3" x2="16.1" y2="4.9"/>
		<path d="M17.8,6.2c3.2,3.2,3.2,8.4,0,11.7s-8.4,3.2-11.7,0c-3.2-3.2-3.2-8.4,0-11.7C9.4,2.9,14.6,2.9,17.8,6.2
	C17.8,6.2,17.8,6.2,17.8,6.2"/>
		<line x1="3.3" y1="17" x2="4.9" y2="16.1"/>
		<line x1="20.7" y1="7" x2="19.1" y2="7.9"/>
		<line x1="12" y1="22" x2="12" y2="20.2"/>
		<line x1="12" y1="2" x2="12" y2="3.8"/>
		<line x1="20.7" y1="17" x2="19.1" y2="16.1"/>
		<line x1="3.3" y1="7" x2="4.9" y2="7.9"/>
		<line x1="17" y1="20.7" x2="16.1" y2="19.1"/>
	</g>
</svg>
