<?xml version="1.0" encoding="utf-8"?>
<!-- Generator: Adobe Illustrator 26.0.3, SVG Export Plug-In . SVG Version: 6.00 Build 0)  -->
<svg version="1.1" id="Ebene_1"
	xmlns="http://www.w3.org/2000/svg"
	xmlns:xlink="http://www.w3.org/1999/xlink" x="0px" y="0px" viewBox="0 0 24 24" style="enable-background:new 0 0 24 24;" xml:space="preserve">
	<g stroke-linecap="round" stroke-width="1.5" stroke="currentColor" fill="none" stroke-linejoin="round">
		<path d="M14.6,17.7V23L12,21.7L9.4,23v-5.3"/>
		<path d="M7.6,14.6l0.6,0.8l0.1,1l0,0c0.1,0.6,0.5,1,1.1,1.1l1,0.1l0.8,0.6l0,0c0.4,0.3,1.1,0.3,1.5,0l0.8-0.6l0,0
		l1-0.1l0,0c0.6-0.1,1-0.5,1.1-1.1l0.1-1c0,0,0.3-0.4,0.6-0.8l0,0c0.3-0.4,0.3-1.1,0-1.5l-0.6-0.8l-0.1-1l0,0
		c-0.1-0.6-0.5-1-1.1-1.1l-1-0.1l-0.8-0.6l0,0c-0.4-0.3-1.1-0.3-1.5,0l-0.8,0.6l0,0l-1,0.1l0,0c-0.6,0.1-1,0.5-1.1,1.1l-0.1,1
		l-0.6,0.8l0,0C7.2,13.6,7.2,14.2,7.6,14.6z"/>
		<path d="M18,19h1l0,0c1.1,0,2-0.9,2-2V5.6l0,0c0-1.1-0.9-2-2-2H5l0,0c-1.1,0-2,0.9-2,2l0,0V17l0,0c0,1.1,0.9,2,2,2h1" />
		<line x1="7.5" y1="6.5" x2="16.5" y2="6.5"/>
		<path d="M13.6,13L11.6,15l-1.2-1.2"/>
	</g>
</svg>
