<?xml version="1.0" encoding="utf-8"?>
<!-- Generator: Adobe Illustrator 23.0.0, SVG Export Plug-In . SVG Version: 6.00 Build 0)  -->
<svg version="1.1" id="Ebene_1" xmlns="http://www.w3.org/2000/svg" xmlns:xlink="http://www.w3.org/1999/xlink" x="0px" y="0px"
	viewBox="0 0 24 24" style="enable-background:new 0 0 24 24;" xml:space="preserve">
	<g stroke-linecap="round" stroke-width="1.5" stroke="currentColor" fill="none" stroke-linejoin="round">
		<path d="M3,9.7V19c0,1.1,0.9,2,2,2h14c1.1,0,2-0.9,2-2V9.7" />
		<path d="M3.9,8l7-4.7c0.7-0.5,1.6-0.5,2.2,0l7,4.7c1.2,0.8,1.2,2.5,0,3.3l-5.9,4c-1.4,0.9-3.1,0.9-4.5,0l-5.9-4
		C2.8,10.5,2.8,8.8,3.9,8z" />
		<path d="M9.1,14.9l-5.4,5.4" />
		<path d="M20.5,20.4L15,14.9" />
	</g>
	<g stroke-linecap="round" stroke-width="1" stroke="currentColor" fill="none" stroke-linejoin="round">
		<path d="M13.1,12.3c-0.4,0.1-0.7,0.2-1.1,0.2c-1.6,0-2.9-1.3-2.9-2.9s1.3-2.9,2.9-2.9s2.9,1.3,2.9,2.9v0.5
		c0,0.4-0.4,0.8-0.8,0.8c-0.4,0-0.8-0.4-0.8-0.8V9.7c0-0.7-0.6-1.3-1.3-1.3l0,0c-0.7,0-1.3,0.6-1.3,1.3S11.3,11,12,11
		s1.3-0.6,1.3-1.3" />
	</g>
</svg>