<?xml version="1.0" encoding="utf-8"?>
<!-- Generator: Adobe Illustrator 26.0.1, SVG Export Plug-In . SVG Version: 6.00 Build 0)  -->
<svg version="1.1" id="Ebene_1"
	xmlns="http://www.w3.org/2000/svg"
	xmlns:xlink="http://www.w3.org/1999/xlink" x="0px" y="0px" viewBox="0 0 24 24" style="enable-background:new 0 0 24 24;" xml:space="preserve">
	<g stroke-linecap="round" stroke-width="1.5" stroke="currentColor" fill="none" stroke-linejoin="round">
		<path d="M17.5,12.8L12.9,4c-0.4-0.7-1.4-0.7-1.8,0L3.2,19c-0.3,0.7,0.1,1.5,0.9,1.5H12"/>
		<path d="M3.2,20l8.8-5.7"/>
		<path d="M14,15.6l-2-1.3"/>
		<path d="M12,3.5v10.8"/>
		<path d="M17.3,15.4L17.3,15.4c0.2-0.4,0.8-0.6,1.2-0.4c0.1,0.1,0.3,0.2,0.4,0.4l0.7,1.3l0,0c0.1,0.1,0.2,0.3,0.4,0.4
		l1.3,0.7l0,0c0.4,0.2,0.6,0.8,0.4,1.2c-0.1,0.1-0.2,0.3-0.4,0.4L19.9,20l0,0c-0.2,0.1-0.3,0.2-0.4,0.4l-0.7,1.3l0,0
		c-0.2,0.4-0.8,0.6-1.2,0.4c-0.2-0.1-0.3-0.2-0.4-0.4l-0.7-1.3l0,0c-0.1-0.2-0.2-0.3-0.4-0.4l-1.3-0.7l0,0c-0.4-0.2-0.6-0.8-0.4-1.2
		c0.1-0.2,0.2-0.3,0.4-0.4l1.3-0.7l0,0c0.1-0.1,0.3-0.2,0.4-0.4L17.3,15.4z"/>
	</g>
</svg>
