<?xml version="1.0" encoding="utf-8"?>
<!-- Generator: Adobe Illustrator 26.1.0, SVG Export Plug-In . SVG Version: 6.00 Build 0)  -->
<svg version="1.1" id="Layer_3"
	xmlns="http://www.w3.org/2000/svg"
	xmlns:xlink="http://www.w3.org/1999/xlink" x="0px" y="0px" viewBox="0 0 24 24" style="enable-background:new 0 0 24 24;" xml:space="preserve">
	<g stroke-linecap="round" stroke-width="1.5" stroke="currentColor" fill="none" stroke-linejoin="round">
		<path d="M21,8.7c0-1.1-0.6-2.1-1.6-2.6l-6-3.2c-0.9-0.5-1.9-0.5-2.8,0l-6,3.2C3.6,6.6,3,7.6,3,8.7V19c0,1.1,0.9,2,2,2
		h1"/>
		<path d="M6,21v-9.5c0-0.7,0.4-1.4,1-1.4h5h5c0.6,0,1,0.6,1,1.4V21"/>
		<line x1="10" y1="7.3" x2="14" y2="7.3"/>
		<path d="M18,21h1c1.1,0,2-0.9,2-2V8.7"/>
	</g>
	<g stroke-linecap="round" stroke-width="1" stroke="currentColor" fill="none" stroke-linejoin="round">
		<path d="M11.6,12.7l-3.7,7C7.8,20,8,20.4,8.4,20.4h7.4c0.3,0,0.6-0.4,0.4-0.7l-3.7-7C12.3,12.3,11.8,12.3,11.6,12.7z" />
		<path d="M8,20.1l4.1-2.6"/>
		<path d="M16.1,20.1l-4.1-2.6"/>
		<path d="M12.1,12.4v5.1"/>
	</g>
</svg>
