<?xml version="1.0" encoding="utf-8"?>
<!-- Generator: Adobe Illustrator 26.0.1, SVG Export Plug-In . SVG Version: 6.00 Build 0)  -->
<svg version="1.1" id="Ebene_1"
	xmlns="http://www.w3.org/2000/svg"
	xmlns:xlink="http://www.w3.org/1999/xlink" x="0px" y="0px" viewBox="0 0 24 24" style="enable-background:new 0 0 24 24;" xml:space="preserve">
	<g stroke-linecap="round" stroke-width="1.5" stroke="currentColor" fill="none" stroke-linejoin="round">
		<path d="M15.4,8.8L12.9,4c-0.4-0.7-1.4-0.7-1.8,0L3.2,19c-0.3,0.7,0.1,1.5,0.9,1.5h4.3"/>
		<path d="M3.2,20l5.2-3.3"/>
		<path d="M12,3.5v7.1"/>
		<path d="M14.4,21.8v-8.2h-2.2l0,0c-0.3,0-0.6,0.3-0.6,0.6l0,0v7.6"/>
		<path d="M22.6,21.8v-7.6l0,0c0-0.3-0.3-0.6-0.6-0.6h-2.1v8.2"/>
		<path d="M19.9,21.8v-9.2l0,0c0-0.3-0.3-0.6-0.6-0.6H15l0,0c-0.3,0-0.6,0.3-0.6,0.6v9.2"/>
		<path d="M23,21.8H11.1"/>
	</g>
</svg>
