<?xml version="1.0" encoding="utf-8"?>
<!-- Generator: Adobe Illustrator 23.0.0, SVG Export Plug-In . SVG Version: 6.00 Build 0)  -->
<svg version="1.1" id="Ebene_1" xmlns="http://www.w3.org/2000/svg" xmlns:xlink="http://www.w3.org/1999/xlink" x="0px" y="0px"
	viewBox="0 0 24 24" style="enable-background:new 0 0 24 24;" xml:space="preserve">
	<g stroke-linecap="round" stroke-width="1.5" stroke="currentColor" fill="none" stroke-linejoin="round">
		<path d="M19,13V6" />
		<path d="M13.9,17H4c-1.1,0-2-0.9-2-2V6" />
		<path d="M17,4H4C2.9,4,2,4.9,2,6l0,0c0,0.7,0.3,1.3,0.9,1.7l5.4,3.6c1.4,0.9,3.2,0.9,4.5,0l5.4-3.6
		C18.7,7.3,19,6.7,19,6l0,0C19,4.9,18.1,4,17,4z" />
		<path d="M20.8,14.2c1.6,1.6,1.6,4.1,0,5.7s-4.1,1.6-5.7,0s-1.6-4.1,0-5.7S19.3,12.6,20.8,14.2" />
		<path d="M19.6,16.3l-1.9,1.9L16.4,17" />
	</g>
</svg>