<?xml version="1.0" encoding="utf-8"?>
<svg version="1.1" id="Ebene_1"
	xmlns="http://www.w3.org/2000/svg"
	xmlns:xlink="http://www.w3.org/1999/xlink" x="0px" y="0px" viewBox="0 0 24 24" style="enable-background:new 0 0 24 24;" xml:space="preserve">
	<g stroke-linecap="round" stroke-width="1.5" stroke="currentColor" fill="none" stroke-linejoin="round">
		<line x1="15" y1="15.8" x2="20.8" y2="15.8"/>
		<line x1="15" y1="18.2" x2="20.8" y2="18.2"/>
		<line x1="15" y1="20.6" x2="20.8" y2="20.6"/>
		<path d="M12,20.6h-1.5l0,0c-0.4,0-0.8-0.3-0.9-0.6l-0.5-1.4l0,0c-0.1-0.2-0.2-0.4-0.4-0.5l-1.4-0.8l0,0
		c-0.2-0.1-0.4-0.2-0.6-0.1l-1.4,0.3l0,0c-0.4,0.1-0.8-0.1-1-0.5l-0.8-1.3l0,0c-0.2-0.3-0.2-0.8,0.1-1.1l0.9-1.1l0,0
		c0.1-0.2,0.2-0.4,0.2-0.6v-1.7v0c0-0.2-0.1-0.4-0.2-0.6L3.5,9.5l0,0C3.2,9.1,3.2,8.7,3.4,8.4L4.1,7l0,0c0.2-0.3,0.6-0.5,1-0.5
		l1.4,0.3l0,0c0.2,0,0.5,0,0.6-0.1l1.4-0.8l0,0C8.8,5.8,9,5.6,9.1,5.4L9.5,4l0,0c0.1-0.4,0.5-0.6,0.9-0.6l1.5,0l0,0
		c0.4,0,0.8,0.3,0.9,0.6l0.5,1.4l0,0c0.1,0.2,0.2,0.4,0.4,0.5l1.4,0.8l0,0c0.2,0.1,0.4,0.2,0.6,0.1l1.4-0.3l0,0
		c0.4-0.1,0.8,0.1,1,0.5l0.8,1.3l0,0c0.2,0.3,0.2,0.8-0.1,1.1L18,10.5l0,0c-0.1,0.2-0.2,0.4-0.2,0.6v1.7v0"/>
		<circle cx="11.2" cy="12" r="2.6"/>
	</g>
</svg>
