<?xml version="1.0" encoding="utf-8"?>
<!-- Generator: Adobe Illustrator 25.4.1, SVG Export Plug-In . SVG Version: 6.00 Build 0)  -->
<svg version="1.1" id="Ebene_1"
	xmlns="http://www.w3.org/2000/svg"
	xmlns:xlink="http://www.w3.org/1999/xlink" x="0px" y="0px" viewBox="0 0 24 24" style="enable-background:new 0 0 24 24;" xml:space="preserve">
	<g stroke-linecap="round" stroke-width="1.5" stroke="currentColor" fill="none" stroke-linejoin="round">
		<path d="M14.9,1.9v2.2"/>
		<path d="M6,1.9v2.2"/>
		<path d="M1.5,7.5h17.9"/>
		<path d="M19.4,9.8V5.3c0-1.2-1-2.2-2.2-2.2H3.7C2.5,3,1.5,4,1.5,5.3v12.3c0,1.2,1,2.2,2.2,2.2h6.7"/>
		<path d="M6,10.6c-0.2,0-0.3,0.1-0.3,0.3c0,0.2,0.1,0.3,0.3,0.3c0.2,0,0.3-0.1,0.3-0.3C6.3,10.7,6.1,10.6,6,10.6"/>
		<path d="M6,15.1c-0.2,0-0.3,0.1-0.3,0.3c0,0.2,0.1,0.3,0.3,0.3c0.2,0,0.3-0.1,0.3-0.3S6.1,15.1,6,15.1"/>
		<path d="M10.2,10.9c0,0.2,0.1,0.3,0.3,0.3c0.2,0,0.3-0.1,0.3-0.3c0-0.2-0.1-0.3-0.3-0.3C10.3,10.6,10.2,10.7,10.2,10.9
		"/>
	</g>
	<g stroke-linecap="round" stroke-width="1.0" stroke="currentColor" fill="none" stroke-linejoin="round">
		<path d="M12.2,22.1v-0.3c0-0.8,0.6-1.5,1.4-1.7l1.6-0.3c0.1,0,0.3,0,0.4,0.1l0,0c1.1,0.7,2.5,0.7,3.5,0l0,0
		c0.1-0.1,0.3-0.1,0.4-0.1l1.6,0.3c0.8,0.2,1.4,0.9,1.4,1.7v0.3"/>
		<line x1="15" y1="22.1" x2="15" y2="19.8"/>
		<line x1="19.6" y1="22.1" x2="19.6" y2="19.8"/>
		<path d="M14.9,15.2h4.8c0.3,0,0.6-0.3,0.6-0.6v-0.5c0-1.6-1.3-3-3-3c0,0,0,0,0,0l0,0c-1.6,0-3,1.3-3,3c0,0,0,0,0,0v0.5
		C14.4,14.9,14.6,15.2,14.9,15.2z"/>
		<line x1="14.2" y1="15.2" x2="20.5" y2="15.2"/>
		<path d="M19.6,15.2v1.1c0,1.3-1,2.3-2.3,2.3l0,0c-1.3,0-2.3-1-2.3-2.3v-1.1"/>
		<line x1="18.5" y1="18.3" x2="19" y2="20"/>
		<line x1="16.1" y1="18.3" x2="15.7" y2="20"/>
		<path d="M18.2,11.3v0.8c0,0.5-0.4,0.9-0.9,0.9l0,0c-0.5,0-0.9-0.4-0.9-0.9v-0.8"/>
		<line x1="14.5" y1="22.1" x2="20.2" y2="22.1"/>
	</g>
</svg>
