<svg xmlns="http://www.w3.org/2000/svg" viewBox="0 0 24 24">
  <g
    stroke-linecap="round"
    stroke-width="1.5"
    stroke="currentColor"
    fill="none"
    stroke-linejoin="round"
  >
    <line x1="13.50945" y1="19" x2="19.50945" y2="19" />
    <path
      d="M3.53455,8.05078A3.77434,3.77434,0,0,1,3,6.07968,2.8358,2.8358,0,0,1,5.5,3c2.76142,0,5,4.02944,5,9S8.48528,21,6,21h.00206C4.62021,21,3.5,19.20914,3.5,17a8.00329,8.00329,0,0,1,8.00658-8H11.5A3.77607,3.77607,0,0,1,15,13.00156,9.80089,9.80089,0,0,1,14.49891,16H14.5c1.79935-5.41354,3.50063-6,4.50042-6A1.99979,1.99979,0,0,1,21,12"
    />
  </g>
</svg>
