<?xml version="1.0" encoding="utf-8"?>
<!-- Generator: Adobe Illustrator 27.0.1, SVG Export Plug-In . SVG Version: 6.00 Build 0)  -->
<svg version="1.1" id="Layer_3"
	xmlns="http://www.w3.org/2000/svg"
	xmlns:xlink="http://www.w3.org/1999/xlink" x="0px" y="0px" viewBox="0 0 24 24" style="enable-background:new 0 0 24 24;" xml:space="preserve">
	<g fill="currentColor">
		<path d="M21.5,22.9h-6.8c-0.8,0-1.4-0.6-1.4-1.4v-6.8c0-0.8,0.6-1.4,1.4-1.4h6.8c0.8,0,1.4,0.6,1.4,1.4v6.8
	C22.9,22.3,22.3,22.9,21.5,22.9z M21.5,14.7h-6.8v6.8h6.8V14.7z M21.5,10.6h-6.8c-0.8,0-1.4-0.6-1.4-1.4V2.5c0-0.8,0.6-1.4,1.4-1.4
	h6.8c0.8,0,1.4,0.6,1.4,1.4v6.8C22.9,10,22.3,10.6,21.5,10.6z M21.5,2.5h-6.8v6.8h6.8V2.5z M9.3,22.9H2.5c-0.8,0-1.4-0.6-1.4-1.4
	v-6.8c0-0.8,0.6-1.4,1.4-1.4h6.8c0.8,0,1.4,0.6,1.4,1.4v6.8C10.6,22.3,10,22.9,9.3,22.9z M9.3,14.7H2.5v6.8h6.8V14.7z M9.3,10.6H2.5
	c-0.8,0-1.4-0.6-1.4-1.4V2.5c0-0.8,0.6-1.4,1.4-1.4h6.8c0.8,0,1.4,0.6,1.4,1.4v6.8C10.6,10,10,10.6,9.3,10.6z M9.3,2.5H2.5v6.8h6.8
	V2.5z"/>
	</g>
</svg>
