<?xml version="1.0" encoding="utf-8"?>
<!-- Generator: Adobe Illustrator 27.0.1, SVG Export Plug-In . SVG Version: 6.00 Build 0)  -->
<svg version="1.1" id="Layer_3"
	xmlns="http://www.w3.org/2000/svg"
	xmlns:xlink="http://www.w3.org/1999/xlink" x="0px" y="0px" viewBox="0 0 24 24" style="enable-background:new 0 0 24 24;" xml:space="preserve">
	<g fill="currentColor">
		<path d="M17.9,9.4h-0.7V6.9c0-3-2.2-5.4-5.3-5.4c-3.1,0-5.2,2.4-5.2,5.4v2.5H6.1c-1.4,0-2.6,1.2-2.6,2.6v7.9c0,1.4,1.2,2.6,2.6,2.6
	h11.8c1.4,0,2.6-1.2,2.6-2.6V12C20.5,10.6,19.4,9.4,17.9,9.4z M8.1,6.9c0-2.2,1.5-4.1,3.9-4.1c2.4,0,4,1.8,4,4.1v2.5H8.1V6.9z
	 M19.2,19.9c0,0.7-0.6,1.3-1.3,1.3H6.1c-0.7,0-1.3-0.6-1.3-1.3V12c0-0.7,0.6-1.3,1.3-1.3h11.8c0.7,0,1.3,0.6,1.3,1.3V19.9z M12,13.3
	c-0.7,0-1.3,0.6-1.3,1.3c0,0.5,0.3,0.9,0.7,1.1v2.2c0,0.4,0.3,0.7,0.7,0.7s0.7-0.3,0.7-0.7v-2.2c0.4-0.2,0.7-0.6,0.7-1.1
	C13.3,13.9,12.7,13.3,12,13.3z"/>
	</g>
</svg>
