<?xml version="1.0" encoding="utf-8"?>
<!-- Generator: Adobe Illustrator 27.0.1, SVG Export Plug-In . SVG Version: 6.00 Build 0)  -->
<svg version="1.1" id="Layer_3"
	xmlns="http://www.w3.org/2000/svg"
	xmlns:xlink="http://www.w3.org/1999/xlink" x="0px" y="0px" viewBox="0 0 24 24" style="enable-background:new 0 0 24 24;" xml:space="preserve">
	<g fill="currentColor">
		<path d="M19.9,4.8l-4.6,0V3c0-0.8-0.7-1.5-1.5-1.5h-3.5C9.4,1.5,8.7,2.2,8.7,3v1.8H4.1c-0.4,0-0.7,0.3-0.7,0.7
	c0,0.4,0.3,0.7,0.7,0.7H5l1.5,15.2c0.1,0.7,0.7,1.3,1.4,1.3h8.2c0.7,0,1.3-0.6,1.4-1.3L19,6.1h0.9c0.4,0,0.7-0.3,0.7-0.7
	C20.5,5.1,20.2,4.8,19.9,4.8L19.9,4.8z M10,3c0-0.1,0.1-0.2,0.2-0.2h3.5C13.9,2.8,14,2.9,14,3v1.8H10V3z M16.2,21.1
	C16.1,21.2,16.1,21.2,16.2,21.1l-8.2,0.1c0,0-0.1,0-0.1-0.1l-1.5-15h11.3L16.2,21.1z"/>
	</g>
</svg>
