<?xml version="1.0" encoding="utf-8"?>
<!-- Generator: Adobe Illustrator 27.0.1, SVG Export Plug-In . SVG Version: 6.00 Build 0)  -->
<svg version="1.1" id="Layer_3"
	xmlns="http://www.w3.org/2000/svg"
	xmlns:xlink="http://www.w3.org/1999/xlink" x="0px" y="0px" viewBox="0 0 24 24" style="enable-background:new 0 0 24 24;" xml:space="preserve">
	<g fill="currentColor">
		<path d="M12,1.5C6.2,1.5,1.5,6.2,1.5,12c0,5.8,4.7,10.5,10.5,10.5c5.8,0,10.5-4.7,10.5-10.5C22.5,6.2,17.8,1.5,12,1.5z M12,21.2
	c-5.1,0-9.2-4.1-9.2-9.2c0-5.1,4.1-9.2,9.2-9.2s9.2,4.1,9.2,9.2S17.1,21.2,12,21.2z M16.6,11.3h-3.9V7.4c0-0.4-0.3-0.7-0.7-0.7
	S11.3,7,11.3,7.4v3.9H7.4c-0.4,0-0.7,0.3-0.7,0.7s0.3,0.7,0.7,0.7h3.9v3.9c0,0.4,0.3,0.7,0.7,0.7s0.7-0.3,0.7-0.7v-3.9h3.9
	c0.4,0,0.7-0.3,0.7-0.7S17,11.3,16.6,11.3z"/>
	</g>
</svg>
