<?xml version="1.0" encoding="utf-8"?>
<!-- Generator: Adobe Illustrator 27.0.1, SVG Export Plug-In . SVG Version: 6.00 Build 0)  -->
<svg version="1.1" id="Layer_3"
	xmlns="http://www.w3.org/2000/svg"
	xmlns:xlink="http://www.w3.org/1999/xlink" x="0px" y="0px" viewBox="0 0 24 24" style="enable-background:new 0 0 24 24;" xml:space="preserve">
	<g fill="currentColor">
		<path d="M12.4,15.1c-0.3,0.3-0.3,0.7,0,0.9c0.1,0.1,0.3,0.2,0.5,0.2c0.2,0,0.3-0.1,0.5-0.2l3.9-4l-3.9-4c-0.3-0.3-0.7-0.3-0.9,0
	c-0.3,0.3-0.3,0.7,0,0.9l2.4,2.4H2.2c-0.4,0-0.7,0.3-0.7,0.7s0.3,0.7,0.7,0.7h12.7L12.4,15.1z M21.2,1.5H9.4c-0.7,0-1.3,0.6-1.3,1.3
	v5.9h1.3V3.6c0-0.4,0.4-0.8,0.8-0.8h10.2c0.4,0,0.8,0.4,0.8,0.8l0,16.8c0,0.4-0.4,0.8-0.8,0.8H10.2c-0.4,0-0.8-0.4-0.8-0.8v-5.1
	l-1.3,0v5.9c0,0.7,0.6,1.3,1.3,1.3h11.8c0.7,0,1.3-0.6,1.3-1.3V2.8C22.5,2.1,21.9,1.5,21.2,1.5z"/>
	</g>
</svg>
