<?xml version="1.0" encoding="utf-8"?>
<!-- Generator: Adobe Illustrator 27.8.0, SVG Export Plug-In . SVG Version: 6.00 Build 0)  -->
<svg
  version="1.1"
  id="Ebene_1"
  xmlns="http://www.w3.org/2000/svg"
  xmlns:xlink="http://www.w3.org/1999/xlink"
  x="0px"
  y="0px"
  viewBox="0 0 24 24"
  style="enable-background: new 0 0 24 24"
  xml:space="preserve"
>
  <g>
    <circle cx="12" cy="4.1" r="0.4" />
    <circle cx="20.8" cy="22" r="0.4" />
    <circle cx="3.2" cy="22" r="0.4" />
  </g>
  <g
    stroke-width="1.0"
    stroke="currentColor"
    fill="none"
    stroke-miterlimit="10"
  >
    <path
      d="M12,20.8l4.7,1.8c0.4,0.2,0.8,0,1-0.4l4.9-12.5c0.2-0.4,0-0.8-0.4-1l-5.3-2.1"
    />
    <path
      d="M16.8,18.5c0.8-0.7,1.5-1.7,2-3c1.1-2.9,0.6-5.8-1.2-6.5C17.3,9,17,8.9,16.8,8.9"
    />
    <path
      d="M13.9,20l-6.5,2.5c-0.4,0.2-0.8,0-1-0.4L1.5,9.6c-0.2-0.4,0-0.8,0.4-1l5.3-2.1"
    />
    <path
      d="M7.2,18.5c-0.8-0.7-1.5-1.7-2-3c-1.1-2.9-0.6-5.8,1.2-6.5C6.7,9,7,8.9,7.2,8.9"
    />
    <path
      d="M16,5.1l-8,0c-0.4,0-0.8,0.3-0.8,0.8l0,13.4C7.2,19.7,7.6,20,8,20l8,0c0.4,0,0.8-0.3,0.8-0.8l0-13.4
			C16.8,5.4,16.4,5.1,16,5.1z"
    />
    <ellipse cx="12.1" cy="12.4" rx="3.5" ry="5.6" />
    <polyline points="13.9,5.1 12,1.2 10.1,5.1 	" />
    <polyline points="4.3,16.7 1,23.2 23,23.2 19.7,16.7 	" />
  </g>
</svg>
