<?xml version="1.0" encoding="UTF-8"?>
<svg
  id="Ebene_1"
  data-name="Ebene 1"
  xmlns="http://www.w3.org/2000/svg"
  version="1.1"
  viewBox="0 0 24 24"
>
  <g stroke-width="0" fill="currentColor">
    <path
      d="M17.9,21.9c-.1,0-.2,0-.4,0l-5.5-2.9-5.5,2.9c-.3.1-.6.1-.8,0-.2-.2-.3-.5-.3-.7l1.1-6.2L2,10.4c-.2-.2-.3-.5-.2-.8,0-.3.3-.5.6-.5l6.2-.9,2.8-5.6c.1-.3.4-.4.7-.4h0c.3,0,.5.2.7.4l2.8,5.6,6.2.9c.3,0,.5.2.6.5,0,.3,0,.6-.2.8l-4.5,4.4,1.1,6.2c0,.3,0,.6-.3.7-.1,0-.3.1-.4.1Z"
    />
  </g>
</svg>
