<?xml version="1.0" encoding="utf-8"?>
<!-- Generator: Adobe Illustrator 27.1.0, SVG Export Plug-In . SVG Version: 6.00 Build 0)  -->
<svg version="1.1" id="Ebene_1" xmlns="http://www.w3.org/2000/svg"
	xmlns:xlink="http://www.w3.org/1999/xlink" x="0px" y="0px"
	viewBox="0 0 24 24" style="enable-background:new 0 0 24 24;" xml:space="preserve">
<g stroke-linecap="round" stroke-width="1.5" stroke="currentColor" fill="none" stroke-linejoin="round">
	<path d="M10.3,21H5c-0.5,0-1-0.4-1-1v-6c0-0.5,0.4-1,1-1h4.3"/>
	<path d="M10.3,3h3.3c0.5,0,1,0.4,1,1v16c0,0.6-0.5,1-1,1h-3.3c-0.6,0-1-0.5-1-1V4C9.3,3.5,9.8,3,10.3,3z"/>
	<path d="M14.7,8H19c0.5,0,1,0.4,1,1v11c0,0.5-0.4,1-1,1h-5.3"/>
</g>
</svg>