<?xml version="1.0" encoding="utf-8"?>
<!-- Generator: Adobe Illustrator 27.8.0, SVG Export Plug-In . SVG Version: 6.00 Build 0)  -->
<svg
  version="1.1"
  id="Ebene_2_Kopie"
  xmlns="http://www.w3.org/2000/svg"
  xmlns:xlink="http://www.w3.org/1999/xlink"
  x="0px"
  y="0px"
  viewBox="0 0 716.3 678.2"
  style="enable-background: new 0 0 716.3 678.2"
  xml:space="preserve"
>
  <style type="text/css">
    .iconStroke {
      fill: none;
      stroke: #3da894;
      stroke-width: 9;
      stroke-miterlimit: 10;
    }
    .iconGefuellt {
      fill: #3da894;
    }
    .freigabeDatumText {
      font-family: "Calibri";
      font-size: 48px;
      font-weight: bold;
    }
  </style>
  <polyline
    class="iconStroke"
    points="39.6,401.8 56.5,377.4 24.1,349.6 54.5,319.8 28.1,286.4 63.6,262.9 43.9,225.1 83.2,208.7 71,167.9 
	112.7,159.3 108.4,116.9 151,116.3 154.9,73.9 196.8,81.3 208.6,40.4 248.4,55.7 267.7,17.7 303.9,40.2 330,6.6 361.3,35.6 
	393.3,7.5 418.5,41.9 455.3,20.4 473.6,58.9 513.8,44.8 524.4,86 566.5,79.8 569.2,122.3 611.7,124.1 606.3,166.3 635.1,173.2 "
  />
  <polyline
    class="iconStroke"
    points="673.9,286.5 687.2,295.9 659.8,328.4 689.3,359.1 656.2,385.9 679.4,421.7 641.9,441.7 657.9,481.2 
	617.2,493.8 625.4,535.6 583.1,540.2 583.3,582.8 540.8,579.4 533,621.2 491.9,609.8 476.3,649.4 438.2,630.5 415.3,666.4 
	381.5,640.6 352.2,671.5 323.9,639.7 289.3,664.6 267.5,628 228.8,645.9 214.3,605.8 172.9,616.1 166.3,574 123.7,576.2 
	125.2,533.7 83,527.8 86.6,511.9 "
  />
  <path
    class="iconStroke"
    d="M630.7,303c16.1,123.5-53.5,246.5-174.9,293.1s-255.4,1.7-326.1-100.8"
  />
  <path
    class="iconStroke"
    d="M84.7,384.5C63.2,257.5,133.2,128.7,258,80.8s263,0.9,331.9,109.7"
  />
  <path
    class="iconStroke"
    d="M535.4,340.1c-0.7,71.1-44.1,138-114.5,165c-70.6,27.1-147.8,6.3-195.9-46.3"
  />
  <path
    class="iconStroke"
    d="M178.7,348.4c-4.2-75.3,40.1-148,114.3-176.5s155.7-4.1,203,54.7"
  />
  <polygon
    class="iconGefuellt"
    points="309.3,213.4 320.5,223.7 335.2,220.4 328.9,234.1 336.6,247.2 321.6,245.4 311.6,256.8 308.6,241.9 
	294.7,235.9 307.9,228.5 "
  />
  <polygon
    class="iconGefuellt"
    points="360.2,204.7 368.6,212.4 379.8,209.9 375,220.3 380.9,230.2 369.5,228.8 361.9,237.4 359.7,226.2 
	349.2,221.7 359.2,216.1 "
  />
  <polygon
    class="iconGefuellt"
    points="265.2,241.1 273.6,248.9 284.8,246.4 280,256.8 285.9,266.6 274.5,265.3 266.9,273.9 264.7,262.7 
	254.2,258.2 264.2,252.5 "
  />
  <polygon
    class="iconStroke"
    points="707.9,273.4 51.3,525.4 57.9,458.8 8.4,413.8 665,161.7 658.5,228.3 "
  />
  <g>
    <path
      class="iconGefuellt"
      d="M120.1,401.8c3.6-2.3,10.5-5.7,17.5-8.3c9.2-3.5,15.2-4.6,21.1-3.1c5.2,0.9,9.7,4.2,11.9,10
		c2.4,6.2,0.7,13.5-5.6,19l0.1,0.2c7.9-0.9,16.6,2.2,20.2,11.6c2.3,6,1.5,11.8-1.2,16.5c-3.2,6.1-10.4,11.3-22.8,16
		c-6.9,2.6-12.3,4.1-15.6,4.9L120.1,401.8z M142.6,423.9l6.3-2.4c8.6-3.3,11.9-9.2,9.7-14.9c-2.4-6.3-8.4-7.4-16.3-4.4
		c-3.6,1.4-5.7,2.4-6.9,3.2L142.6,423.9z M154.6,455.2c1.7-0.4,3.8-1.1,6.7-2.2c8-3.1,13.9-8.8,10.6-17.2c-3-7.9-11.1-8.5-19.7-5.2
		l-6.1,2.4L154.6,455.2z"
    />
    <path
      class="iconGefuellt"
      d="M230.3,401.8l-25.6,9.8l7.7,20l28.6-11l3.9,10.2l-41,15.7l-26.1-67.9l39.5-15.2l3.9,10.2L194.1,384l6.7,17.5
		l25.6-9.8L230.3,401.8z"
    />
    <path
      class="iconGefuellt"
      d="M250.2,413.3c4.9,0.8,11.7,0.5,18.1-2c8-3.1,11-8.5,8.8-14c-2-5.1-6.6-6.8-16.4-6.6
		c-12.7,0.3-22.2-2.9-25.9-12.7c-4.3-11.1,1.8-23.1,16.5-28.8c7.4-2.8,13.4-3.3,17.6-2.8l0.8,11.1c-2.9-0.4-8.4-0.5-14.7,2
		c-7.9,3-9.7,8.6-8.2,12.5c2,5.2,6.9,6.1,17.3,6.2c13.5-0.1,21.5,3.6,25.3,13.4c4.2,10.9-0.4,23.5-18,30.3c-7.2,2.7-15.4,3.6-20,2.8
		L250.2,413.3z"
    />
    <path
      class="iconGefuellt"
      d="M298.9,344l-19.3,7.4l-4-10.4l51.3-19.7l4,10.4l-19.5,7.5l22.1,57.5l-12.4,4.8L298.9,344z"
    />
    <path
      class="iconGefuellt"
      d="M359.8,364.6l1.5,21.5l-12.8,4.9l-4.3-76.3l15.8-6.1l48.1,59.4l-13.3,5.1l-13.5-16.9L359.8,364.6z
		 M333.6,309.2c-1.3-3.4,0.3-7.1,3.8-8.4c3.2-1.2,6.7,0.4,8.1,3.8c1.3,3.3-0.1,7.1-3.5,8.4C338.4,314.4,334.8,312.5,333.6,309.2z
		 M375.6,347.8l-11.8-14.7c-2.9-3.6-5.8-7.8-8.3-11.4l-0.2,0.1c0.5,4.3,1.3,9.4,1.6,13.9l1.2,18.7L375.6,347.8z M353.5,301.5
		c-1.3-3.4,0.3-7.1,3.7-8.4c3.4-1.3,6.9,0.4,8.2,3.8c1.3,3.3-0.1,7.1-3.5,8.4C358.3,306.7,354.8,304.9,353.5,301.5z"
    />
    <path
      class="iconGefuellt"
      d="M400.4,305.1l-19.3,7.4l-4-10.4l51.3-19.7l4,10.4l-19.5,7.5l22.1,57.5l-12.4,4.8L400.4,305.1z"
    />
    <path
      class="iconGefuellt"
      d="M448.7,274.6l26.1,67.9l-12.4,4.8l-26.1-67.9L448.7,274.6z"
    />
    <path
      class="iconGefuellt"
      d="M542.2,313.1c-3.7,3.3-11.3,8.7-20.4,12.2c-11.5,4.4-21.3,4.8-30.1,1.1c-8.3-3.4-15.2-11-19.1-21.4
		c-8.2-21.5,1.8-41.1,24.3-49.8c8.4-3.2,15.6-4,19.3-3.7l1.1,11c-4.3-0.2-9.4,0.2-16.5,3c-14.5,5.6-21.4,18-15.3,33.9
		c5.9,15.4,18.9,21,33,15.5c4.4-1.7,7.5-3.6,8.8-5l-6.5-16.9l-12,4.6l-3.8-9.8l24-9.2L542.2,313.1z"
    />
    <path
      class="iconGefuellt"
      d="M547.1,248.8l-19.3,7.4l-4-10.4l51.3-19.7l4,10.4l-19.5,7.5l22.1,57.5l-12.4,4.8L547.1,248.8z"
    />
  </g>
  <g>
    <path
      class="iconGefuellt"
      d="M153.9,264.3l10.6,8.6l-3.3,8.1L124,249.9l4.1-10l48.5,3.5l-3.4,8.4l-13.7-1.1L153.9,264.3z M152.9,249.6
		l-11.9-0.9c-2.9-0.2-6.1-0.7-8.9-1.1l-0.1,0.1c2.2,1.6,4.9,3.5,7.2,5.3l9.2,7.6L152.9,249.6z"
    />
    <path
      class="iconGefuellt"
      d="M140.8,214.8c1.3-2.9,3.5-7.1,6.2-11.2c3.6-5.6,7-8.8,10.9-9.9c3.2-1,6.7-0.4,9.9,1.7c5,3.3,6.2,8.9,5.1,13.3
		l0.2,0.1c2.8-2.1,6.6-2,11-0.5c5.6,1.9,10.8,3.8,12.8,4l-4.8,7.3c-1.5-0.2-5.3-1.3-10.8-3.4c-5.8-2.2-8.6-1.4-11.3,2.5l-2.3,3.6
		l15.9,10.4l-4.6,7L140.8,214.8z M162.5,219l2.7-4.2c3.1-4.8,2.5-9.4-1.3-11.9c-4.3-2.8-8.2-1.1-11.2,3.5c-1.5,2.2-2.2,3.8-2.5,4.6
		L162.5,219z"
    />
    <path
      class="iconGefuellt"
      d="M177.6,175.6l-9,9.6l-5.1-4.8l23.9-25.4l5.1,4.8l-9.1,9.7l28.5,26.8l-5.8,6.1L177.6,175.6z"
    />
    <path
      class="iconGefuellt"
      d="M201.7,143.4l29.4,35.7l-6.5,5.4l-29.4-35.7L201.7,143.4z"
    />
    <path
      class="iconGefuellt"
      d="M213,134.5l7.1-4.4l11.2,18.1l0.2-0.1c0-2.1,0.1-4.1,0.2-6l1.7-20.2l8.9-5.5l-3.2,25.1l28.4,13.7l-8.4,5.2
		l-22.3-11.2l-0.9,6.4l8.5,13.8l-7.1,4.4L213,134.5z"
    />
    <path
      class="iconGefuellt"
      d="M286.5,126l-16.2,6.5l5.1,12.6l18.1-7.3l2.6,6.4l-25.9,10.4l-17.3-42.9l24.9-10l2.6,6.4l-17.1,6.9l4.5,11.1
		l16.2-6.5L286.5,126z"
    />
    <path
      class="iconGefuellt"
      d="M291.4,97.8l8.2-1.8l8.5,38.2l18.5-4.1l1.5,6.9l-26.8,5.9L291.4,97.8z"
    />
    <path
      class="iconGefuellt"
      d="M330.5,90.9c3-0.7,7.1-1.3,12.8-1.6c6.2-0.3,10.8,0.8,13.8,3.1c2.9,2.1,4.8,5.7,5,10c0.2,4.4-1,8.1-3.5,10.7
		c-3.2,3.5-8.4,5.4-14.4,5.7c-1.6,0.1-3,0.1-4.1-0.1l0.9,17.4l-8.4,0.4L330.5,90.9z M339.9,112c1,0.2,2.4,0.2,4.1,0.1
		c6.3-0.3,10-3.6,9.7-9c-0.3-5.1-4-7.7-9.8-7.4c-2.3,0.1-4,0.4-4.8,0.6L339.9,112z"
    />
    <path
      class="iconGefuellt"
      d="M375,90.1c3.2-0.1,7.9,0.1,12.8,0.7c6.6,0.9,10.9,2.6,13.7,5.6c2.2,2.4,3.2,5.8,2.7,9.7
		c-0.8,5.9-5.3,9.4-9.8,10.4v0.2c3.1,1.7,4.6,5.1,5.2,9.7c0.7,5.9,1.2,11.4,1.9,13.3l-8.6-1.1c-0.5-1.5-1.1-5.3-1.6-11.2
		c-0.5-6.2-2.4-8.3-7.2-9.1l-4.2-0.6l-2.5,18.8l-8.3-1.1L375,90.1z M380.6,111.5l5,0.7c5.6,0.8,9.6-1.8,10.2-6.3
		c0.7-5-2.6-7.8-8-8.5c-2.7-0.4-4.4-0.4-5.2-0.3L380.6,111.5z"
    />
    <path
      class="iconGefuellt"
      d="M436.5,129.3l-16.6-5.2l-4.1,13l18.6,5.9l-2.1,6.6l-26.6-8.4l13.9-44.1l25.6,8.1l-2.1,6.6l-17.6-5.6l-3.6,11.4
		l16.6,5.2L436.5,129.3z"
    />
    <path
      class="iconGefuellt"
      d="M464.6,113.7l-19.2,42l-7.7-3.5l19.2-42L464.6,113.7z"
    />
    <path
      class="iconGefuellt"
      d="M457.5,151.2c1.5,2.8,4.3,6.1,8,8.4c4.6,2.9,8.5,2.3,10.5-0.9c1.8-3,0.9-6-3-10.9c-5-6.3-7-12.3-3.5-18
		c4-6.4,12.4-8,20.9-2.7c4.3,2.6,6.8,5.5,8.2,7.8l-5.3,4.7c-0.9-1.6-3-4.4-6.7-6.7c-4.5-2.8-8-1.6-9.5,0.7c-1.9,3-0.5,5.8,3.5,11.1
		c5.2,6.8,6.4,12.3,2.9,17.9c-3.9,6.3-12.1,8.8-22.2,2.5c-4.1-2.6-7.7-6.4-9.1-9L457.5,151.2z"
    />
  </g>
  <g>
    <path
      class="iconGefuellt"
      d="M269.9,521.9l7.8,3l-7.7,19.8l0.2,0.1c1.7-1.3,3.3-2.4,4.9-3.5l17.1-10.8l9.7,3.8L280,547l6.2,30.9l-9.2-3.6
		l-4.6-24.5l-5.6,3.1l-5.9,15.2l-7.8-3L269.9,521.9z"
    />
    <path
      class="iconGefuellt"
      d="M338.9,564c-2.7,15.3-13.5,22.3-26.1,20.1c-12.8-2.3-19.2-13.5-16.8-26.9c2.5-14,13-22.3,25.9-20
		C335.2,539.6,341.2,551,338.9,564z M304.8,558.6c-1.7,9.3,1.7,17.4,9.7,18.9c8,1.4,13.9-5.2,15.6-14.7c1.5-8.6-1.3-17.4-9.6-18.9
		C312.2,542.4,306.5,549.2,304.8,558.6z"
    />
    <path
      class="iconGefuellt"
      d="M348.4,587.8l-1.8-46.2l9.6-0.4l12.7,19.3c3.3,5,6.2,10.3,8.5,15.2h0.1c-0.8-6.1-1.2-12.1-1.5-19.2l-0.6-16.1
		l7.8-0.3l1.8,46.2l-8.7,0.3l-12.9-19.8c-3.1-5-6.5-10.5-8.9-15.6l-0.2,0.1c0.6,5.9,0.9,12,1.2,19.7l0.6,16.5L348.4,587.8z"
    />
    <path
      class="iconGefuellt"
      d="M399.9,543.7l-12.8,3l-1.6-6.9l34-7.9l1.6,6.9l-13,3L417,580l-8.2,1.9L399.9,543.7z"
    />
    <path
      class="iconGefuellt"
      d="M422.1,531.4c2.7-1.7,6.9-3.9,11.4-5.8c6.1-2.6,10.7-3.3,14.6-2.1c3.2,1,5.7,3.4,7.3,7
		c2.3,5.5,0.1,10.8-3.2,13.9l0.1,0.2c3.5-0.1,6.6,2.1,9.4,5.7c3.6,4.8,6.8,9.2,8.3,10.5l-8,3.4c-1.2-1-3.6-4.1-7.1-8.9
		c-3.5-5.1-6.3-6-10.8-4.3l-3.9,1.6l7.3,17.5l-7.7,3.2L422.1,531.4z M437.7,547l4.6-1.9c5.3-2.2,7.4-6.4,5.6-10.6
		c-2-4.7-6.2-5.5-11.2-3.3c-2.5,1-4,1.9-4.6,2.4L437.7,547z"
    />
    <path
      class="iconGefuellt"
      d="M501.4,512.6c8.7,12.8,5.9,25.4-4.7,32.6c-10.8,7.3-23.2,3.7-30.8-7.6c-8-11.8-6.2-25,4.6-32.4
		C481.7,497.7,494,501.7,501.4,512.6z M473.2,532.5c5.3,7.8,13.4,11.3,20.1,6.8c6.8-4.6,6.3-13.4,0.9-21.4
		c-4.9-7.2-13.1-11.6-20.1-6.9C467.2,515.7,467.9,524.6,473.2,532.5z"
    />
    <path
      class="iconGefuellt"
      d="M491.3,490.5l6-6l27.7,27.7l13.5-13.4l5,5L524,523.3L491.3,490.5z"
    />
    <path
      class="iconGefuellt"
      d="M513,468.1l5-6.8l31.6,23.2l11.2-15.3l5.7,4.2l-16.2,22.1L513,468.1z"
    />
    <path
      class="iconGefuellt"
      d="M565.7,431.5l-8,15.5l12.1,6.2l8.9-17.3l6.2,3.2l-12.8,24.8L531,442.7l12.3-23.9l6.2,3.2l-8.5,16.4l10.6,5.5
		l8-15.5L565.7,431.5z"
    />
  </g>
  <text
    id="freigabeDatum"
    transform="matrix(0.9336 -0.3584 0.3584 0.9336 297.4418 492.0003)"
    class="iconGefuellt freigabeDatumText"
  >
    31.10.2023
  </text>
</svg>
