<svg xmlns="http://www.w3.org/2000/svg" viewBox="0 0 24 24">
  <g
    stroke-linecap="round"
    stroke-width="1.5"
    stroke="currentColor"
    fill="none"
    stroke-linejoin="round"
  >
    <polyline points="9.5 21 9.5 15 14.5 15 14.5 21" />
    <line x1="20" y1="21" x2="20" y2="11.94901" />
    <line x1="4" y1="21" x2="4" y2="11.94901" />
    <line x1="22" y1="21" x2="2" y2="21" />
    <path
      d="M7,9.5a2.5,2.5,0,1,1-5,0V8.33091a1,1,0,0,1,.093-.42106l1.74173-3.752A2,2,0,0,1,5.64876,3H18.35125a2,2,0,0,1,1.81406,1.15787L21.907,7.90976A1.00006,1.00006,0,0,1,22,8.33083V9.5a2.5,2.5,0,1,1-5,0"
    />
    <path d="M17,9.5a2.5,2.5,0,1,1-5,0" />
    <path d="M12,9.5a2.5,2.5,0,1,1-5,0" />
  </g>
</svg>
