<?xml version="1.0" encoding="utf-8"?>
<!-- Generator: Adobe Illustrator 25.4.1, SVG Export Plug-In . SVG Version: 6.00 Build 0)  -->
<svg version="1.1" id="Ebene_1"
	xmlns="http://www.w3.org/2000/svg"
	xmlns:xlink="http://www.w3.org/1999/xlink" x="0px" y="0px" viewBox="0 0 24 24" style="enable-background:new 0 0 24 24;" xml:space="preserve">
	<g stroke-linecap="round" stroke-width="1.5" stroke="currentColor" fill="none" stroke-linejoin="round">
		<path d="M8,21V8l0,0c0-0.6,0.4-1,1-1h6l0,0"/>
		<path d="M11,4h2l0,0c0.6,0,1,0.4,1,1v2h-4V5l0,0C10,4.4,10.4,4,11,4z"/>
		<line x1="12" y1="2" x2="12" y2="4"/>
		<path d="M8,21V10H4l0,0c-0.6,0-1,0.4-1,1l0,0v10"/>
		<line x1="5.5" y1="13" x2="8" y2="13"/>
		<line x1="5.5" y1="16" x2="8" y2="16"/>
		<line x1="15.3" y1="21" x2="2" y2="21"/>
	</g>
	<g stroke-linecap="round" stroke="currentColor" fill="none" stroke-linejoin="round">
		<path stroke-width="1.0" d="M9,16.9h1.2c0.3,0,0.5-0.1,0.7-0.3l0,0c0.2-0.2,0.3-0.5,0.3-0.7v-4.1c0-0.3-0.1-0.5-0.3-0.7l0,0
		c-0.2-0.2-0.5-0.3-0.7-0.3h-1"/>
		<path stroke-width="1.0" d="M21.5,10.7h-1c-0.3,0-0.5,0.1-0.7,0.3l0,0c-0.2,0.2-0.3,0.5-0.3,0.7v4.1c0,0.3,0.1,0.5,0.3,0.7l0,0
		c0.2,0.2,0.5,0.3,0.7,0.3h1.2"/>
		<path stroke-width="1.0" d="M19.5,16.1h-0.7c-0.2,0-0.4,0-0.6,0.1l-3.3,1.5"/>
		<path stroke-width="1.0" d="M14.3,11.4c-0.4-0.2-0.9-0.3-1.3-0.1l-1.8,0.6"/>
		<path stroke-width="1.0" d="M19.6,11.2l-2.2-1c-0.5-0.2-1-0.2-1.5,0.1l-2,1.3c-0.6,0.4-0.7,1.3-0.1,1.8l0,0c0.3,0.3,0.9,0.4,1.3,0.2
		l1.2-0.6"/>
		<path stroke-width="1.5" d="M20.3,9.1c2.7,2.7,2.7,7.2,0,9.9c-2.7,2.7-7.2,2.7-9.9,0c-2.7-2.7-2.7-7.2,0-9.9C13.1,6.3,17.5,6.3,20.3,9.1" />
		<path stroke-width="1.0" d="M16.2,13.2l0.6,0.6c0.7,0.6,0.7,1.7,0,2.3l-1.6,1.4c-0.6,0.5-1.5,0.5-2.1,0l-1.1-1c-0.3-0.2-0.6-0.4-0.9-0.4" />
	</g>
</svg>
