<?xml version="1.0" encoding="utf-8"?>
<!-- Generator: Adobe Illustrator 25.4.1, SVG Export Plug-In . SVG Version: 6.00 Build 0)  -->
<svg version="1.1" id="Ebene_1"
	xmlns="http://www.w3.org/2000/svg"
	xmlns:xlink="http://www.w3.org/1999/xlink" x="0px" y="0px" viewBox="0 0 24 24" style="enable-background:new 0 0 24 24;" xml:space="preserve">
	<g stroke-linecap="round" stroke-width="1.5" stroke="currentColor" fill="none" stroke-linejoin="round">
		<line x1="21.2" y1="21" x2="2.8" y2="21"/>
		<path d="M8.8,5L8.8,5v2h-4V5c0-0.6,0.4-1,1-1l0,0h2C8.3,4,8.8,4.4,8.8,5z"/>
		<line x1="6.8" y1="4" x2="6.8" y2="2"/>
		<path d="M2.8,21V8c0-0.6,0.4-1,1-1l0,0h6c0.6,0,1,0.4,1,1l0,0v13"/>
		<line x1="5.3" y1="16" x2="8.3" y2="16"/>
		<line x1="5.3" y1="13" x2="8.3" y2="13"/>
		<line x1="5.3" y1="10" x2="8.3" y2="10"/>
		<line x1="6.8" y1="21" x2="6.8" y2="19.5"/>
	</g>
	<g stroke-linecap="round" stroke-width="1.5" stroke="currentColor" fill="none" stroke-linejoin="round">
		<path d="M13.7,15.9c-0.2,0.8-0.4,3.1,1.7,2.8c1.6-0.2,0.6-2.9,2.4-3.2c2.7-0.4,1.6,3.3,1.6,3.3"/>
		<path d="M13.6,12.9c1.3,0.2,6,0.6,6-2c0-2.4-4.7-2.1-6-2"/>
		<line x1="13.6" y1="6.2" x2="19.9" y2="6.2"/>
		<path d="M16.6,6.2c0,0,0.4-3.3-1.7-3.3c-1.7,0-1.3,3.3-1.3,3.3"/>
		<path d="M19.9,6.2c0,0,0.4-3.6-1.7-3.6c-1.7,0-1.5,3.6-1.5,3.6"/>
	</g>
</svg>
