<?xml version="1.0" encoding="utf-8"?>
<!-- Generator: Adobe Illustrator 25.4.1, SVG Export Plug-In . SVG Version: 6.00 Build 0)  -->
<svg version="1.1" id="Layer_3"
	xmlns="http://www.w3.org/2000/svg"
	xmlns:xlink="http://www.w3.org/1999/xlink" x="0px" y="0px" viewBox="0 0 24 24" style="enable-background:new 0 0 24 24;" xml:space="preserve">
	<g stroke-linecap="round" stroke-width="1.5" stroke="currentColor" fill="none" stroke-linejoin="round">
		<path d="M9,9h6"/>
		<path d="M9,12h6"/>
		<path d="M9,15h3"/>
		<path d="M12,18.5H8.8c-1.8,0-3.2-1.5-3.2-3.2V8.8C5.5,7,7,5.5,8.8,5.5h6.5c1.8,0,3.2,1.5,3.2,3.2V12"/>
		<line x1="21" y1="9" x2="18.5" y2="9"/>
		<line x1="5.5" y1="9" x2="3" y2="9"/>
		<line x1="5.5" y1="12" x2="3" y2="12"/>
		<line x1="5.5" y1="15" x2="3" y2="15"/>
		<line x1="9" y1="3" x2="9" y2="5.5"/>
		<line x1="12" y1="3" x2="12" y2="5.5"/>
		<line x1="15" y1="3" x2="15" y2="5.5"/>
		<line x1="9" y1="18.5" x2="9" y2="21"/>
		<path d="M20,20.6c-0.3,0.5-0.8,0.8-1.4,0.8h-0.6l-0.7,0c-0.9,0-1.6-0.7-1.6-1.6v-3.6c0-0.9,0.7-1.6,1.6-1.6l0.7,0h0.6
		c0.6,0,1.1,0.3,1.4,0.8"/>
		<line x1="14.4" y1="17.2" x2="17.6" y2="17.2"/>
		<line x1="14.4" y1="19" x2="17.6" y2="19"/>
	</g>
</svg>
