<?xml version="1.0" encoding="utf-8"?>
<!-- Generator: Adobe Illustrator 25.4.1, SVG Export Plug-In . SVG Version: 6.00 Build 0)  -->
<svg version="1.1" id="Ebene_1"
    xmlns="http://www.w3.org/2000/svg"
    xmlns:xlink="http://www.w3.org/1999/xlink" x="0px" y="0px" viewBox="0 0 24 24" style="enable-background:new 0 0 24 24;" xml:space="preserve">
    <g stroke-linecap="round" stroke-width="1.5" stroke="currentColor" fill="none" stroke-linejoin="round">
        <path d="M2.9,16.2h1.7c0.4,0,0.8-0.2,1-0.4l0,0c0.3-0.3,0.4-0.7,0.4-1V8.8c0-0.4-0.2-0.8-0.4-1l0,0
		C5.4,7.4,5,7.3,4.6,7.3H3.2"/>
        <path d="M20.8,7.3h-1.4c-0.4,0-0.8,0.2-1,0.4l0,0c-0.3,0.3-0.4,0.7-0.4,1v5.9c0,0.4,0.2,0.8,0.4,1l0,0
		c0.3,0.3,0.7,0.4,1,0.4h1.7"/>
        <path d="M17.9,14.9h-1c-0.3,0-0.6,0.1-0.9,0.2l-4.7,2.1"/>
        <path d="M10.5,8.3C9.9,8,9.3,7.9,8.6,8.1L6.1,9"/>
        <path d="M18.1,8l-3.2-1.4c-0.7-0.3-1.5-0.2-2.1,0.2L9.9,8.7c-0.9,0.6-1,1.9-0.2,2.6l0,0c0.5,0.5,1.2,0.6,1.8,0.3
		l1.7-0.8"/>
        <path d="M19.1,4.9c3.9,3.9,3.9,10.2,0,14.1C15.2,23,8.8,23,4.9,19.1C1,15.2,1,8.8,4.9,4.9C8.8,1,15.2,1,19.1,4.9"/>
        <path d="M13.3,10.8l0.9,0.8c1,0.9,1,2.4,0,3.3l-2.2,2.1c-0.8,0.8-2.1,0.8-3,0l-1.5-1.4C7,15.2,6.5,15,6,15"/>
    </g>
</svg>
