<?xml version="1.0" encoding="utf-8"?>
<!-- Generator: Adobe Illustrator 26.0.2, SVG Export Plug-In . SVG Version: 6.00 Build 0)  -->
<svg version="1.1" id="Ebene_1"
	xmlns="http://www.w3.org/2000/svg"
	xmlns:xlink="http://www.w3.org/1999/xlink" x="0px" y="0px" viewBox="0 0 24 24" style="enable-background:new 0 0 24 24;" xml:space="preserve">
	<g stroke-linecap="round" stroke-width="1.5" stroke="currentColor" fill="none" stroke-linejoin="round">
		<path d="M21,13.5V4.3v0C21,3.6,20.4,3,19.7,3c-0.2,0-0.3,0-0.4,0.1l-6.4,2.4l0,0C12.3,5.7,12,6.2,12,6.7V21"/>
		<path d="M6.4,5.2h2.2l0,0c0.6,0,1.1,0.5,1.1,1.1v2.3H5.2V6.4l0,0C5.2,5.8,5.8,5.2,6.4,5.2z"/>
		<line x1="7.5" y1="3" x2="7.5" y2="5.2"/>
		<path d="M3,21V9.7l0,0c0-0.6,0.5-1.1,1.1-1.1h6.8l0,0c0.6,0,1.1,0.5,1.1,1.1l0,0V21"/>
		<line x1="5.8" y1="15.4" x2="9.2" y2="15.4"/>
		<line x1="5.8" y1="15.4" x2="9.2" y2="15.4"/>
		<line x1="5.8" y1="12" x2="9.2" y2="12"/>
		<line x1="7.5" y1="19.3" x2="7.5" y2="21"/>
		<line x1="12" y1="21" x2="2" y2="21"/>
		<line x1="15" y1="9.1" x2="15" y2="11.8"/>
		<line x1="18" y1="9.1" x2="18" y2="12.5"/>
	</g>
	<g stroke-linecap="round" stroke-width="1.0" stroke="currentColor" fill="none" stroke-linejoin="round">
		<circle cx="15.9" cy="20.3" r="1.7"/>
		<path d="M15.9,22h5l0,0c0.5,0,0.8-0.4,0.8-0.8v-4.6l0,0c0-0.5-0.4-0.8-0.8-0.8h-3.3"/>
		<path d="M14.2,20.2v-4.5l0,0c0-0.9,0.7-1.7,1.7-1.7c0.9,0,1.7,0.7,1.7,1.7l0,0v4.5"/>
		<path d="M15.9,20.3L15.9,20.3C15.9,20.3,15.9,20.3,15.9,20.3C15.9,20.3,15.9,20.3,15.9,20.3
			C15.9,20.3,15.9,20.3,15.9,20.3L15.9,20.3C15.9,20.3,15.9,20.3,15.9,20.3L15.9,20.3"/>
	</g>
</svg>
