<?xml version="1.0" encoding="utf-8"?>
<!-- Generator: Adobe Illustrator 26.0.0, SVG Export Plug-In . SVG Version: 6.00 Build 0)  -->
<svg version="1.1" id="Layer_3"
	xmlns="http://www.w3.org/2000/svg"
	xmlns:xlink="http://www.w3.org/1999/xlink" x="0px" y="0px" viewBox="0 0 24 24" style="enable-background:new 0 0 24 24;" xml:space="preserve">
	<g stroke-linecap="round" stroke-width="1.5" stroke="currentColor" fill="none" stroke-linejoin="round">
		<path d="M7.5,4.1H5.2C4,4.1,3,5.1,3,6.4v13.5c0,1.2,1,2.2,2.2,2.2h13.5c1.2,0,2.2-1,2.2-2.2V6.4c0-1.2-1-2.2-2.2-2.2
	h-2.2"/>
		<path d="M8.6,1.9h6.8c0.6,0,1.1,0.5,1.1,1.1v2.2c0,0.6-0.5,1.1-1.1,1.1H8.6C8,6.4,7.5,5.9,7.5,5.2V3
	C7.5,2.4,8,1.9,8.6,1.9z"/>
		<path d="M7.5,16.2l0.7,0.7l1.5-1.3"/>
		<path d="M13.1,12h3.4"/>
		<path d="M7.5,11.7l0.7,0.7L9.8,11"/>
		<path d="M13.1,16.5h3.4"/>
	</g>
</svg>
