<?xml version="1.0" encoding="UTF-8"?>
<svg
  id="Ebene_1"
  xmlns="http://www.w3.org/2000/svg"
  version="1.1"
  xmlns:xlink="http://www.w3.org/1999/xlink"
  viewBox="0 0 24 24"
>
  <g
    stroke-linecap="round"
    stroke-width="1.5"
    stroke="currentColor"
    fill="none"
    stroke-linejoin="round"
  >
    <g>
      <path
        d="M20.3,6v13.8c0,1.2-1,2.2-2.2,2.2H5.9c-1.2,0-2.2-1-2.2-2.2V4.2c0-1.2,1-2.2,2.2-2.2h10.4c.4,0,.9.2,1.2.4l2.3,2.3c.3.4.5.9.5,1.3Z"
      />
      <path d="M6.3,15.3h4" />
      <path d="M6.3,18.7h4" />
      <path d="M13.7,15.3h4" />
      <path d="M13.7,18.7h4" />
      <path d="M20.3,6.3h-3.6c-.4,0-.9-.4-.9-.9v-3.4" />
    </g>
    <g>
      <path d="M11.9,8.9h-1.8" />
      <path d="M10.3,4.7c-2.2,0-4,1.8-4,4s1.8,4,4,4,4-1.8,4-4-1.8-4-4-4h0Z" />
      <path d="M10.1,8.9v-2.2" />
    </g>
  </g>
</svg>
