<?xml version="1.0" encoding="UTF-8"?>
<svg
  id="Ebene_1"
  xmlns="http://www.w3.org/2000/svg"
  version="1.1"
  xmlns:xlink="http://www.w3.org/1999/xlink"
  viewBox="0 0 24 24"
>
  <g
    fill="none"
    stroke="currentColor"
    stroke-linecap="round"
    stroke-linejoin="round"
  >
    <g stroke-width="1.5">
      <path
        d="M12.4,22h-6.5c-1.2,0-2.2-1-2.2-2.2V4.2c0-1.2,1-2.2,2.2-2.2h10.4c.4,0,.9.2,1.2.4l2.3,2.3c.2.3.4.8.4,1.2v8.2"
      />
      <path d="M7.6,15.3h2" />
      <path d="M7.6,18.7h2" />
      <path d="M20.3,6.3h-3.6c-.4,0-.9-.4-.9-.9v-3.4" />
      <path d="M11.9,8.9h-1.8" />
      <path d="M10.3,4.7c-2.2,0-4,1.8-4,4s1.8,4,4,4,4-1.8,4-4-1.8-4-4-4h0Z" />
      <path d="M10.1,8.9v-2.2" />
    </g>
    <g stroke-width="1.0">
      <path
        d="M16.8,22.2l5.4-2.9c.3-.2.3-.7,0-.9l-5.4-2.8c-.4-.2-.9.2-.7.6l1.1,2.6-1.1,2.7c0,.5.3.9.7.7Z"
      />
      <path d="M17.2,18.9h5.2" />
    </g>
    <g stroke-width="0.75">
      <path d="M13.7,20.4h.8" />
      <path d="M13.2,18.9h1.3" />
      <path d="M12.7,17.4h1.8" />
    </g>
  </g>
</svg>
