<?xml version="1.0" encoding="UTF-8"?><svg
  version="1.1"
  viewBox="0 0 24 24"
  xmlns="http://www.w3.org/2000/svg"
  xmlns:xlink="http://www.w3.org/1999/xlink"
>
  <!--Generated by IJSVG (https://github.com/iconjar/IJSVG)-->
  <g
    stroke-linecap="round"
    stroke-width="1.5"
    stroke="currentColor"
    fill="none"
    stroke-linejoin="round"
  >
    <path d="M12,3v4.47"></path>
    <path d="M14.25,14.81h7.7"></path>
    <path d="M2.05,17.06h7.7"></path>
    <path
      d="M14.453,14.278c-0.213,0.395 -0.301,0.854 -0.215,1.294c0.354,1.811 1.95,3.178 3.864,3.178c1.914,0 3.51,-1.367 3.864,-3.178c0.086,-0.44 -0.002,-0.899 -0.215,-1.294l-3.648,-6.778l-3.65,6.778Z"
    ></path>
    <path
      d="M2.247,16.528c-0.213,0.395 -0.301,0.854 -0.215,1.294c0.355,1.811 1.95,3.178 3.865,3.178c1.915,0 3.51,-1.367 3.864,-3.178c0.086,-0.44 -0.002,-0.899 -0.215,-1.294l-3.649,-6.778l-3.65,6.778Z"
    ></path>
    <path
      d="M18.103,7.5v0c-3.946,-0.727 -8.022,-0.064 -11.534,1.878l-0.672,0.372"
    ></path>
  </g>
</svg>
