<?xml version="1.0" encoding="UTF-8"?>
<svg
  id="Ebene_1"
  data-name="Ebene 1"
  xmlns="http://www.w3.org/2000/svg"
  version="1.1"
  viewBox="0 0 24 24"
>
  <defs>
    <style>
      .unknown-language1 {
        fill: #7a7a7a;
      }

      .unknown-language1,
      .unknown-language2 {
        stroke-width: 0px;
      }

      .unknown-language3 {
        fill: none;
        stroke: #282828;
        stroke-linecap: round;
        stroke-linejoin: round;
        stroke-width: 1.8px;
      }

      .unknown-language2 {
        fill: #fff;
        isolation: isolate;
        opacity: 0.6;
      }
    </style>
  </defs>
  <rect class="unknown-language1" x="1" y="4.3" width="22" height="15.4" />
  <path
    class="unknown-language2"
    d="M1,4.3h22v1.7c-3.9,1.7-7.1,5.5-9.6,6.4-6.4,2.4-12.4.6-12.4.6V4.3Z"
  />
  <path
    class="unknown-language3"
    d="M11.6,13.1v-.2c0-.8.5-1.2,1-1.5.5-.3.9-.7.9-1.5s-.9-1.9-1.9-1.9-1.9.9-1.9,1.9"
  />
  <path
    class="unknown-language3"
    d="M11.6,15.8c0,0-.2,0-.2.2,0,0,0,.2.2.2s.2,0,.2-.2,0-.2-.2-.2"
  />
</svg>
