<?xml version="1.0" encoding="utf-8"?>
<!-- Generator: Adobe Illustrator 25.2.3, SVG Export Plug-In . SVG Version: 6.00 Build 0)  -->
<svg version="1.1" id="Ebene_1"
	xmlns="http://www.w3.org/2000/svg"
	xmlns:xlink="http://www.w3.org/1999/xlink" x="0px" y="0px" viewBox="0 0 24 24" style="enable-background:new 0 0 24 24;" xml:space="preserve">
	<g stroke-linecap="round" stroke="currentColor" fill="none" stroke-linejoin="round">
		<path stroke-width="1.0" d="M19.4,16.1l-3.7,3.7C15.6,19.9,19.4,16.1,19.4,16.1z" />
		<path stroke-width="1.0" d="M17.5,15.4L17.5,15.4c-1.5,0-2.6,1.2-2.6,2.6l0,0c0,1.5,1.2,2.6,2.6,2.6l0,0c1.5,0,2.6-1.2,2.6-2.6l0,0
		C20.1,16.5,19,15.4,17.5,15.4z" />
		<path stroke-width="1.5" d="M15,5.2c1.7,1.7,1.7,4.4,0,6s-4.4,1.7-6,0s-1.7-4.4,0-6S13.3,3.6,15,5.2" />
		<path stroke-width="1.5" d="M4,20L4,20c0-2.5,2-4.5,4.5-4.5h2.6" />
	</g>
</svg>