<?xml version="1.0" encoding="UTF-8"?>
<svg
  id="Layer_3"
  data-name="Layer 3"
  xmlns="http://www.w3.org/2000/svg"
  version="1.1"
  viewBox="0 0 24 24"
>
  <g
    stroke-linecap="round"
    stroke-width="1.5"
    stroke="currentColor"
    fill="none"
    stroke-linejoin="round"
  >
    <path d="M9,21v-6c0-.6.4-1,1-1h2" />
    <path d="M3,10.6l7.7-6.6c.7-.6,1.9-.6,2.6,0l7.7,6.6" />
    <line x1="12" y1="21" x2="3" y2="21" />
    <path d="M15.6,6v-2.2c0-.4.3-.8.8-.8h2.6c.4,0,.8.3.8.8v5.7" />
    <path d="M4.3,9.5v11.5" />
  </g>
  <g
    stroke-linecap="round"
    stroke="currentColor"
    fill="none"
    stroke-linejoin="round"
  >
    <path d="M20.1,13.6v1.7" />
    <path d="M16.8,13.6v1.7" />
    <path d="M14.7,16.5h7.5" />
    <path
      d="M21.3,14.4h-5.8c-.5,0-.8.4-.8.8v5.4c0,.5.4.8.8.8h5.8c.5,0,.8-.4.8-.8v-5.4c0-.5-.4-.8-.8-.8Z"
    />
    <path d="M16.4,18c0,0-.1,0-.1.1,0,0,0,.1.1.1s.1,0,.1-.1,0-.1-.1-.1" />
    <path d="M18.5,18c0,0-.1,0-.1.1,0,0,0,.1.1.1s.1,0,.1-.1,0-.1-.1-.1" />
    <path d="M20.5,18c0,0-.1,0-.1.1,0,0,0,.1.1.1s.1,0,.1-.1,0-.1-.1-.1" />
    <path d="M16.4,19.7c0,0-.1,0-.1.1,0,0,0,.1.1.1s.1,0,.1-.1,0-.1-.1-.1" />
    <path d="M18.5,19.7c0,0-.1,0-.1.1,0,0,0,.1.1.1s.1,0,.1-.1,0-.1-.1-.1" />
  </g>
</svg>
