<svg
  id="Layer_3"
  data-name="Layer 3"
  xmlns="http://www.w3.org/2000/svg"
  viewBox="0 0 24 24"
>
  <g
    stroke-linecap="round"
    stroke-width="1.5"
    stroke="currentColor"
    fill="none"
    stroke-linejoin="round"
  >
    <path
      d="M19.67824,15.38846a3.03333,3.03333,0,1,1-4.28981,0,3.03333,3.03333,0,0,1,4.28981,0l0,0h0"
    />
    <line x1="19.7" y1="19.7" x2="21" y2="21" />
    <path d="M9,21V15a1,1,0,0,1,1-1h2" />
    <path d="M3,10.58027,10.6984,3.9815a2,2,0,0,1,2.6032,0L21,10.58027" />
    <line x1="12" y1="21" x2="3" y2="21" />
    <path
      d="M15.62359,5.97182V3.75a.75.75,0,0,1,.75-.75H18.9645a.75.75,0,0,1,.75.75V9.47839"
    />
    <path d="M4.2855,9.47839V21" />
  </g>
</svg>
