<?xml version="1.0" encoding="utf-8"?>
<!-- Generator: Adobe Illustrator 25.4.1, SVG Export Plug-In . SVG Version: 6.00 Build 0)  -->
<svg version="1.1" id="Layer_3"
	xmlns="http://www.w3.org/2000/svg"
	xmlns:xlink="http://www.w3.org/1999/xlink" x="0px" y="0px" viewBox="0 0 24 24" style="enable-background:new 0 0 24 24;" xml:space="preserve">
	<g stroke-linecap="round" stroke-width="1.5" stroke="currentColor" fill="none" stroke-linejoin="round">
		<path d="M12,15h-1.5C9.7,15,9,14.3,9,13.5v-3C9,9.7,9.7,9,10.5,9H12"/>
		<line x1="5.5" y1="9" x2="3" y2="9"/>
		<line x1="5.5" y1="12" x2="3" y2="12"/>
		<line x1="5.5" y1="15" x2="3" y2="15"/>
		<line x1="21" y1="9" x2="18.5" y2="9"/>
		<line x1="21" y1="12" x2="18.5" y2="12"/>
		<line x1="21" y1="15" x2="18.5" y2="15"/>
		<line x1="9" y1="3" x2="9" y2="5.5"/>
		<line x1="12" y1="3" x2="12" y2="5.5"/>
		<line x1="15" y1="3" x2="15" y2="5.5"/>
		<line x1="12" y1="18.5" x2="12" y2="21"/>
		<line x1="15" y1="18.5" x2="15" y2="21"/>
		<line x1="9" y1="18.5" x2="9" y2="21"/>
		<path d="M15.2,5.5c1.8,0,3.2,1.5,3.2,3.2v6.5c0,1.8-1.5,3.2-3.2,3.2H8.7c-1.8,0-3.2-1.5-3.2-3.2V8.8
	C5.5,7,7,5.5,8.7,5.5H15.2z"/>
		<path d="M12,9h1.5c0.8,0,1.5,0.7,1.5,1.5v3c0,0.8-0.7,1.5-1.5,1.5H12"/>
	</g>
</svg>
