<?xml version="1.0" encoding="utf-8"?>
<!-- Generator: Adobe Illustrator 26.0.2, SVG Export Plug-In . SVG Version: 6.00 Build 0)  -->
<svg version="1.1" id="Ebene_1"
	xmlns="http://www.w3.org/2000/svg"
	xmlns:xlink="http://www.w3.org/1999/xlink" x="0px" y="0px" viewBox="0 0 24 24" style="enable-background:new 0 0 24 24;" xml:space="preserve">
	<g stroke-linecap="round" stroke-width="1.5" stroke="currentColor" fill="none" stroke-linejoin="round">
		<path d="M8,13.5h3"/>
		<path d="M8,17h1"/>
		<path d="M16,7l-3,3l-2.7-2L8,10"/>
		<path d="M16,9V7h-2"/>
		<path d="M11,21H6l0,0c-1.1,0-2-0.9-2-2l0,0V5l0,0c0-1.1,0.9-2,2-2h12h0c1.1,0,2,0.9,2,2v6"/>
		<g>
			<line x1="20.3" y1="21.1" x2="19.7" y2="13"/>
			<line x1="16.7" y1="20.5" x2="19.7" y2="13"/>
			<line x1="13.1" y1="21.1" x2="13.7" y2="13"/>
			<line x1="16.7" y1="20.5" x2="13.7" y2="13"/>
		</g>
	</g>
</svg>
