<?xml version="1.0" encoding="utf-8"?>
<!-- Generator: Adobe Illustrator 26.1.0, SVG Export Plug-In . SVG Version: 6.00 Build 0)  -->
<svg version="1.1" id="Layer_1" xmlns="http://www.w3.org/2000/svg" xmlns:xlink="http://www.w3.org/1999/xlink" x="0px" y="0px"
	 viewBox="0 0 32 32" enable-background="new 0 0 32 32" xml:space="preserve">
<polygon display="none" fill="#AAAAAA" points="32,11 19.6,11 14.5,7 16,7 20,10 32,10 "/>
<polygon display="none" fill="#999999" points="32,28 0,28 0,7 14.5,7 19.6,11 32,11 "/>
<polygon display="none" fill="#818181" points="20,10 32,10 32,4 20,4 16,7 "/>
<path fill="#999999" d="M31,12.9v-7H17.8L15,8l-1-0.5l3.4-2.6H32v8H31z"/>
<g>
	<path fill="#949494" d="M32,28H0V7h14.7l5.1,4H32V28z M1,27h30V12H19.4l-5.1-4H1V27z"/>
</g>
<rect x="6.5" y="22.3" fill="#999999" width="3" height="1"/>
<rect x="6.5" y="25.3" fill="#999999" width="3" height="1"/>
<rect x="6.5" y="19.3" fill="#999999" width="3" height="1"/>
<rect x="6.5" y="8.3" fill="#999999" width="3" height="1"/>
<path fill="#999999" d="M9.5,9.3v1h-3v-1h-1v8h5v-8H9.5z M9.5,16.3h-3v-3h3V16.3z"/>
</svg>
