<svg id="Layer_1" data-name="Layer 1" xmlns="http://www.w3.org/2000/svg" viewBox="0 0 32 32"><defs><style>.cls-1{fill:#fff;}.cls-2{fill:#949494;}.cls-3{fill:#6bb0e5;}</style></defs><title>Fb_Music</title><polygon class="cls-1" points="27.5 31.5 4.5 31.5 4.5 0.5 20.5 0.5 27.5 7.5 27.5 31.5"/><path class="cls-2" d="M28,32H4V0H20.71L28,7.29ZM5,31H27V7.71L20.29,1H5Z"/><polyline class="cls-1" points="27 7.5 20.5 7.5 20.5 1"/><polygon class="cls-2" points="27 8 20 8 20 1 21 1 21 7 27 7 27 8"/><ellipse class="cls-3" cx="12.5" cy="25" rx="4.53" ry="2.95" transform="translate(-3.64 2.18) rotate(-8.71)"/><path class="cls-3" d="M17.28,9.17A.51.51,0,0,1,17,8.72V8.47a.5.5,0,1,0-1,0v16a.5.5,0,0,0,1,0V12.94a7,7,0,0,1,4.93,3.11,4.16,4.16,0,0,1,.71,3,5.26,5.26,0,0,1-1.92,3.22l.33.51A6.85,6.85,0,0,0,24.33,17C24.33,13,19.86,10.38,17.28,9.17Z"/></svg>