<?xml version="1.0" encoding="utf-8"?>
<!-- Generator: Adobe Illustrator 26.1.0, SVG Export Plug-In . SVG Version: 6.00 Build 0)  -->
<svg version="1.1" id="Layer_1" xmlns="http://www.w3.org/2000/svg" xmlns:xlink="http://www.w3.org/1999/xlink" x="0px" y="0px"
	 viewBox="0 0 32 32" enable-background="new 0 0 32 32" xml:space="preserve">
<polygon fill="#FFFFFF" points="27.5,31.5 4.5,31.5 4.5,0.5 20.5,0.5 27.5,7.5 "/>
<path fill="#949494" d="M28,32H4V0h16.7L28,7.3V32z M5,31h22V7.7L20.3,1H5V31z"/>
<polygon fill="#949494" points="27.5,8 20,8 20,1 21,1 21,7 27.5,7 "/>
<rect x="8" y="24" fill="#C5C5C5" width="16" height="1"/>
<rect x="8" y="26" fill="#C5C5C5" width="16" height="1"/>
<rect x="2.6" y="4.5" fill="#7540A8" width="14.6" height="5.5"/>
<g>
	<path fill="#FFFFFF" d="M7.5,9.3c-0.6,0-1.1-0.2-1.4-0.5S5.6,7.9,5.6,7.3c0-0.3,0-0.6,0.1-0.8C5.8,6.2,6,6,6.1,5.8s0.4-0.3,0.6-0.4
		s0.5-0.1,0.8-0.1c0.2,0,0.3,0,0.4,0c0.1,0,0.2,0.1,0.3,0.1c0.1,0,0.2,0.1,0.2,0.1c0.1,0,0.1,0.1,0.1,0.1L8.5,6.3
		C8.3,6.2,8.2,6.2,8.1,6.1c-0.2,0-0.3-0.1-0.5-0.1c-0.1,0-0.3,0-0.4,0.1C7,6.2,6.9,6.3,6.8,6.4S6.6,6.6,6.6,6.7
		C6.5,6.9,6.5,7.1,6.5,7.3c0,0.2,0,0.3,0.1,0.5c0,0.2,0.1,0.3,0.2,0.4c0.1,0.1,0.2,0.2,0.3,0.3c0.1,0.1,0.3,0.1,0.5,0.1
		c0.1,0,0.2,0,0.3,0c0.1,0,0.2,0,0.3-0.1c0.1,0,0.1,0,0.2-0.1c0.1,0,0.1,0,0.2-0.1L8.8,9C8.6,9.1,8.5,9.2,8.3,9.2
		C8,9.3,7.8,9.3,7.5,9.3z"/>
	<path fill="#FFFFFF" d="M12.2,9.2c0-0.1-0.1-0.3-0.1-0.4c0-0.1-0.1-0.3-0.1-0.4h-1.5c0,0.1-0.1,0.3-0.1,0.4c0,0.1-0.1,0.3-0.1,0.4
		H9.2c0.1-0.4,0.3-0.8,0.4-1.1c0.1-0.3,0.3-0.7,0.4-1c0.1-0.3,0.2-0.6,0.4-0.9c0.1-0.3,0.2-0.5,0.4-0.8h0.8c0.1,0.3,0.2,0.5,0.4,0.8
		c0.1,0.3,0.2,0.6,0.4,0.9c0.1,0.3,0.2,0.6,0.4,1c0.1,0.3,0.3,0.7,0.4,1.1H12.2z M11.2,6.3c0,0.1,0,0.1-0.1,0.2
		C11,6.6,11,6.7,11,6.8c0,0.1-0.1,0.3-0.2,0.4c-0.1,0.2-0.1,0.3-0.2,0.5h1.1c-0.1-0.2-0.1-0.3-0.2-0.5c-0.1-0.2-0.1-0.3-0.2-0.4
		s-0.1-0.2-0.1-0.3S11.2,6.3,11.2,6.3z"/>
	<path fill="#FFFFFF" d="M16.3,8.5v0.7h-2.5V5.4h0.9v3.1H16.3z"/>
</g>
<path fill="none" d="M11.1,7.6h24v24h-24V7.6z"/>
<g>
	<g>
		<path fill="#7540A8" d="M18.1,14.6c-0.2,0-0.4-0.2-0.4-0.4v-2.1c0-0.2,0.2-0.4,0.4-0.4s0.4,0.2,0.4,0.4v2.1
			C18.5,14.4,18.3,14.6,18.1,14.6z"/>
	</g>
	<g>
		<path fill="#7540A8" d="M13.9,14.6c-0.2,0-0.4-0.2-0.4-0.4v-2.1c0-0.2,0.2-0.4,0.4-0.4s0.4,0.2,0.4,0.4v2.1
			C14.3,14.4,14.1,14.6,13.9,14.6z"/>
	</g>
	<g>
		<path fill="#7540A8" d="M20.7,16.2h-9.5c-0.2,0-0.4-0.2-0.4-0.4c0-0.2,0.2-0.4,0.4-0.4h9.5c0.2,0,0.4,0.2,0.4,0.4
			C21.1,16,21,16.2,20.7,16.2z"/>
	</g>
	<g>
		<path fill="#7540A8" d="M21.1,22.5H10.9v-9.7h10.3V22.5z M11.7,21.7h8.7v-8.2h-8.7V21.7z"/>
	</g>
	<g>
		<path fill="#7540A8" d="M16,18.4c-0.3,0-0.5-0.2-0.5-0.5c0-0.1,0.1-0.3,0.2-0.4c0.1-0.1,0.2-0.2,0.4-0.2c0.3,0,0.5,0.2,0.5,0.5
			C16.5,18.2,16.3,18.4,16,18.4z"/>
	</g>
	<g>
		<path fill="#7540A8" d="M13.4,18.4c-0.3,0-0.5-0.2-0.5-0.5c0-0.1,0.1-0.3,0.2-0.4c0.1-0.1,0.2-0.2,0.4-0.2c0.3,0,0.5,0.2,0.5,0.5
			C13.9,18.2,13.7,18.4,13.4,18.4z"/>
	</g>
	<g>
		<path fill="#7540A8" d="M18.6,18.4c-0.3,0-0.5-0.2-0.5-0.5c0-0.1,0.1-0.3,0.2-0.4c0.1-0.1,0.2-0.2,0.4-0.2c0.3,0,0.5,0.2,0.5,0.5
			C19.2,18.2,18.9,18.4,18.6,18.4z"/>
	</g>
	<g>
		<path fill="#7540A8" d="M18.6,20.5c-0.3,0-0.5-0.2-0.5-0.5c0-0.1,0.1-0.3,0.2-0.4c0.1-0.1,0.2-0.2,0.4-0.2c0.3,0,0.5,0.2,0.5,0.5
			C19.2,20.3,18.9,20.5,18.6,20.5z"/>
	</g>
	<g>
		<path fill="#7540A8" d="M13.4,20.5c-0.3,0-0.5-0.2-0.5-0.5c0-0.1,0.1-0.3,0.2-0.4c0.1-0.1,0.2-0.2,0.4-0.2c0.3,0,0.5,0.2,0.5,0.5
			C13.9,20.3,13.7,20.5,13.4,20.5z"/>
	</g>
	<g>
		<path fill="#7540A8" d="M16,20.5c-0.3,0-0.5-0.2-0.5-0.5c0-0.1,0.1-0.3,0.2-0.4c0.1-0.1,0.2-0.2,0.4-0.2c0.3,0,0.5,0.2,0.5,0.5
			C16.5,20.3,16.3,20.5,16,20.5z"/>
	</g>
</g>
</svg>
