<?xml version="1.0" encoding="utf-8"?>
<!-- Generator: Adobe Illustrator 26.1.0, SVG Export Plug-In . SVG Version: 6.00 Build 0)  -->
<svg version="1.1" id="Layer_1" xmlns="http://www.w3.org/2000/svg" xmlns:xlink="http://www.w3.org/1999/xlink" x="0px" y="0px"
	 viewBox="0 0 32 32" enable-background="new 0 0 32 32" xml:space="preserve">
<polygon fill="#FFFFFF" points="27.5,31.5 4.5,31.5 4.5,0.5 20.5,0.5 27.5,7.5 "/>
<path fill="#949494" d="M28,32H4V0h16.7L28,7.3V32z M5,31h22V7.7L20.3,1H5V31z"/>
<polygon fill="#949494" points="28,8 20,8 20,1 21,1 21,7 28,7 "/>
<rect x="8" y="24" fill="#C5C5C5" width="16" height="1"/>
<rect x="8" y="26" fill="#C5C5C5" width="16" height="1"/>
<rect x="2.6" y="4.5" fill="#DF2E57" width="14.6" height="5.5"/>
<path fill="#DF2E57" d="M11.7,16.9c0.2,0,0.3,0,0.4-0.1c0.1-0.1,0.2-0.1,0.3-0.2c0.1-0.1,0.1-0.2,0.2-0.3c0-0.1,0.1-0.2,0.1-0.4V14
	c0-0.3,0-0.5,0.1-0.8c0.1-0.2,0.2-0.4,0.3-0.6c0.2-0.2,0.4-0.3,0.6-0.3c0.3-0.1,0.6-0.1,1-0.1h0V13c-0.4,0-0.7,0.1-0.9,0.2
	c-0.2,0.1-0.3,0.4-0.3,0.8v1.6c0,0.5-0.1,0.8-0.2,1.1c-0.1,0.3-0.3,0.5-0.5,0.6c0.2,0.1,0.4,0.3,0.5,0.6c0.1,0.3,0.2,0.6,0.2,1.1
	v1.6c0,0.4,0.1,0.7,0.3,0.8c0.2,0.1,0.5,0.2,0.9,0.2v0.8h0c-0.4,0-0.7,0-1-0.1c-0.3-0.1-0.5-0.2-0.6-0.3c-0.2-0.2-0.3-0.3-0.3-0.6
	c-0.1-0.2-0.1-0.5-0.1-0.8v-1.9c0-0.1,0-0.3-0.1-0.4c0-0.1-0.1-0.2-0.2-0.3c-0.1-0.1-0.2-0.2-0.3-0.2c-0.1-0.1-0.3-0.1-0.4-0.1V16.9
	z"/>
<path fill="#DF2E57" d="M20.3,17.7c-0.2,0-0.3,0-0.4,0.1c-0.1,0.1-0.2,0.1-0.3,0.2c-0.1,0.1-0.1,0.2-0.2,0.3c0,0.1-0.1,0.2-0.1,0.4
	v1.9c0,0.3,0,0.5-0.1,0.8c-0.1,0.2-0.2,0.4-0.3,0.6c-0.2,0.2-0.4,0.3-0.6,0.3c-0.3,0.1-0.6,0.1-1,0.1h0v-0.8c0.4,0,0.7-0.1,0.9-0.2
	c0.2-0.1,0.3-0.4,0.3-0.8V19c0-0.5,0.1-0.8,0.2-1.1c0.1-0.3,0.3-0.5,0.5-0.6c-0.2-0.1-0.4-0.3-0.5-0.6c-0.1-0.3-0.2-0.6-0.2-1.1V14
	c0-0.4-0.1-0.7-0.3-0.8C18,13,17.7,13,17.3,13v-0.8h0c0.4,0,0.7,0,1,0.1c0.3,0.1,0.5,0.2,0.6,0.3c0.2,0.2,0.3,0.3,0.3,0.6
	c0.1,0.2,0.1,0.5,0.1,0.8v1.9c0,0.1,0,0.3,0.1,0.4c0,0.1,0.1,0.2,0.2,0.3c0.1,0.1,0.2,0.2,0.3,0.2c0.1,0.1,0.3,0.1,0.4,0.1V17.7z"/>
<path fill="#FFFFFF" d="M7.7,9.3c-0.6,0-1.1-0.2-1.4-0.5S5.8,7.9,5.8,7.3c0-0.3,0-0.6,0.1-0.8C6,6.2,6.2,6,6.3,5.8s0.4-0.3,0.6-0.4
	s0.5-0.1,0.8-0.1c0.2,0,0.3,0,0.4,0c0.1,0,0.2,0.1,0.3,0.1c0.1,0,0.2,0.1,0.2,0.1c0.1,0,0.1,0.1,0.1,0.1L8.7,6.3
	C8.5,6.2,8.4,6.2,8.2,6.1c-0.2,0-0.3-0.1-0.5-0.1c-0.1,0-0.3,0-0.4,0.1C7.2,6.2,7.1,6.3,7,6.4S6.8,6.6,6.8,6.7
	C6.7,6.9,6.7,7.1,6.7,7.3c0,0.2,0,0.3,0.1,0.5c0,0.2,0.1,0.3,0.2,0.4C7,8.3,7.1,8.4,7.2,8.4c0.1,0.1,0.3,0.1,0.5,0.1
	c0.1,0,0.2,0,0.3,0c0.1,0,0.2,0,0.3-0.1c0.1,0,0.1,0,0.2-0.1c0.1,0,0.1,0,0.2-0.1L9,9C8.8,9.1,8.7,9.2,8.4,9.2
	C8.2,9.3,8,9.3,7.7,9.3z"/>
<path fill="#FFFFFF" d="M10.8,8.6c0.1,0,0.2,0,0.3,0c0.1,0,0.1,0,0.2-0.1c0,0,0.1-0.1,0.1-0.1c0,0,0-0.1,0-0.2
	c0-0.1-0.1-0.2-0.2-0.3s-0.3-0.2-0.6-0.3c-0.1,0-0.2-0.1-0.4-0.2C10.1,7.4,10,7.3,9.9,7.2C9.8,7.1,9.7,7,9.7,6.9
	C9.6,6.8,9.6,6.6,9.6,6.5c0-0.2,0-0.3,0.1-0.5C9.8,5.8,9.9,5.7,10,5.6c0.1-0.1,0.3-0.2,0.4-0.2s0.4-0.1,0.6-0.1c0.3,0,0.5,0,0.7,0.1
	c0.2,0.1,0.3,0.1,0.5,0.2l-0.2,0.7c-0.1-0.1-0.2-0.1-0.4-0.1c-0.1,0-0.3-0.1-0.5-0.1c-0.2,0-0.4,0-0.4,0.1c-0.1,0.1-0.1,0.1-0.1,0.3
	c0,0.1,0,0.1,0,0.2c0,0,0.1,0.1,0.1,0.1s0.1,0.1,0.2,0.1c0.1,0,0.2,0.1,0.3,0.1c0.2,0.1,0.4,0.1,0.5,0.2c0.1,0.1,0.3,0.2,0.4,0.2
	c0.1,0.1,0.2,0.2,0.2,0.3c0,0.1,0.1,0.3,0.1,0.5c0,0.4-0.1,0.6-0.4,0.8s-0.6,0.3-1.1,0.3c-0.2,0-0.3,0-0.5,0c-0.1,0-0.3,0-0.4-0.1
	S9.8,9.1,9.7,9.1C9.6,9.1,9.6,9,9.5,9l0.2-0.7c0.1,0.1,0.3,0.1,0.4,0.2C10.4,8.5,10.6,8.6,10.8,8.6z"/>
<path fill="#FFFFFF" d="M14.2,8.6c0.1,0,0.2,0,0.3,0c0.1,0,0.1,0,0.2-0.1c0,0,0.1-0.1,0.1-0.1c0,0,0-0.1,0-0.2
	c0-0.1-0.1-0.2-0.2-0.3S14.3,7.7,14,7.6c-0.1,0-0.2-0.1-0.4-0.2c-0.1-0.1-0.2-0.1-0.3-0.2c-0.1-0.1-0.2-0.2-0.2-0.3
	C13,6.8,13,6.6,13,6.5c0-0.2,0-0.3,0.1-0.5c0.1-0.1,0.2-0.3,0.3-0.4c0.1-0.1,0.3-0.2,0.4-0.2s0.4-0.1,0.6-0.1c0.3,0,0.5,0,0.7,0.1
	c0.2,0.1,0.3,0.1,0.5,0.2l-0.2,0.7c-0.1-0.1-0.2-0.1-0.4-0.1c-0.1,0-0.3-0.1-0.5-0.1c-0.2,0-0.4,0-0.4,0.1c-0.1,0.1-0.1,0.1-0.1,0.3
	c0,0.1,0,0.1,0,0.2c0,0,0.1,0.1,0.1,0.1s0.1,0.1,0.2,0.1c0.1,0,0.2,0.1,0.3,0.1C14.7,7,14.9,7.1,15,7.1c0.1,0.1,0.3,0.2,0.4,0.2
	c0.1,0.1,0.2,0.2,0.2,0.3c0,0.1,0.1,0.3,0.1,0.5c0,0.4-0.1,0.6-0.4,0.8s-0.6,0.3-1.1,0.3c-0.2,0-0.3,0-0.5,0c-0.1,0-0.3,0-0.4-0.1
	s-0.2-0.1-0.3-0.1C13,9.1,12.9,9,12.9,9l0.2-0.7c0.1,0.1,0.3,0.1,0.4,0.2C13.7,8.5,13.9,8.6,14.2,8.6z"/>
</svg>
