<?xml version="1.0" encoding="utf-8"?>
<!-- Generator: Adobe Illustrator 26.1.0, SVG Export Plug-In . SVG Version: 6.00 Build 0)  -->
<svg version="1.1" id="Layer_1" xmlns="http://www.w3.org/2000/svg" xmlns:xlink="http://www.w3.org/1999/xlink" x="0px" y="0px"
	 viewBox="0 0 32 32" enable-background="new 0 0 32 32" xml:space="preserve">
<polygon fill="#FFFFFF" points="27.5,31.5 4.5,31.5 4.5,0.5 20.5,0.5 27.5,7.5 "/>
<path fill="#949494" d="M28,32H4V0h16.7L28,7.3V32z M5,31h22V7.7L20.3,1H5V31z"/>
<polygon fill="#949494" points="27.3,8 20,8 20,1 21,1 21,7 27.3,7 "/>
<rect x="8" y="24" fill="#C8C8C8" width="16" height="1"/>
<rect x="8" y="26" fill="#C8C8C8" width="16" height="1"/>
<rect x="2.6" y="4.5" fill="#519B8D" width="14.6" height="5.5"/>
<g>
	<path fill="#FFFFFF" d="M5.2,7.7c0-0.2,0-0.4,0.1-0.5C5.3,7,5.4,6.9,5.5,6.8s0.2-0.2,0.3-0.2C6,6.5,6.1,6.5,6.3,6.5
		c0.3,0,0.6,0.1,0.7,0.3C7.2,7,7.3,7.3,7.3,7.6c0,0,0,0.1,0,0.1c0,0,0,0.1,0,0.1H5.8C5.8,8,5.9,8.1,6,8.2c0.1,0.1,0.2,0.1,0.4,0.1
		c0.1,0,0.2,0,0.3,0c0.1,0,0.2,0,0.3-0.1l0.1,0.5c0,0-0.1,0-0.1,0.1c-0.1,0-0.1,0-0.2,0s-0.1,0-0.2,0c-0.1,0-0.2,0-0.2,0
		c-0.2,0-0.4,0-0.5-0.1C5.7,8.7,5.6,8.6,5.5,8.5C5.4,8.4,5.3,8.3,5.3,8.1C5.2,8,5.2,7.8,5.2,7.7z M6.7,7.4c0-0.1,0-0.1,0-0.2
		c0-0.1,0-0.1-0.1-0.1c0,0-0.1-0.1-0.1-0.1S6.3,7,6.3,7c-0.1,0-0.1,0-0.2,0C6,7.1,6,7.1,6,7.1c0,0-0.1,0.1-0.1,0.1
		c0,0.1,0,0.1,0,0.2H6.7z"/>
	<path fill="#FFFFFF" d="M8.7,5.8c0.4,0,0.8,0.1,1,0.2C9.9,6.2,10,6.5,10,6.8c0,0.4-0.1,0.6-0.4,0.8c-0.2,0.2-0.6,0.2-1,0.2H8.5v1
		H7.8V5.9c0.1,0,0.3,0,0.5-0.1C8.4,5.8,8.6,5.8,8.7,5.8z M8.7,6.4c0,0-0.1,0-0.1,0s-0.1,0-0.1,0v0.8h0.2c0.2,0,0.4,0,0.5-0.1
		C9.3,7.1,9.4,7,9.4,6.8c0-0.1,0-0.1,0-0.2c0-0.1-0.1-0.1-0.1-0.1C9.1,6.4,9.1,6.4,9,6.4S8.8,6.4,8.7,6.4z"/>
	<path fill="#FFFFFF" d="M11.7,8.8c-0.2,0-0.4,0-0.5-0.1c-0.1-0.1-0.3-0.1-0.4-0.2c-0.1-0.1-0.2-0.2-0.2-0.4c0-0.1-0.1-0.3-0.1-0.5
		V5.9h0.7v1.8c0,0.1,0,0.2,0,0.3s0.1,0.2,0.1,0.2c0,0.1,0.1,0.1,0.2,0.1c0.1,0,0.1,0,0.2,0c0.2,0,0.3,0,0.4-0.1
		c0.1-0.1,0.1-0.3,0.1-0.5V5.9h0.7v1.8c0,0.2,0,0.3-0.1,0.5s-0.1,0.3-0.2,0.4c-0.1,0.1-0.2,0.2-0.4,0.2C12,8.8,11.9,8.8,11.7,8.8z"
		/>
	<path fill="#FFFFFF" d="M14.5,8.8c-0.2,0-0.3,0-0.5,0c-0.2,0-0.3,0-0.5-0.1V5.9c0.1,0,0.3,0,0.4-0.1c0.2,0,0.3,0,0.4,0
		c0.2,0,0.4,0,0.5,0s0.3,0.1,0.4,0.1s0.2,0.1,0.3,0.3c0.1,0.1,0.1,0.2,0.1,0.4c0,0.2-0.1,0.4-0.3,0.6c0.2,0.1,0.3,0.2,0.4,0.3
		s0.1,0.3,0.1,0.4c0,0.3-0.1,0.5-0.3,0.7C15.3,8.7,14.9,8.8,14.5,8.8z M14.1,7h0.3c0.2,0,0.3,0,0.4-0.1C15,6.9,15,6.8,15,6.7
		c0-0.1,0-0.2-0.1-0.2c-0.1,0-0.2-0.1-0.4-0.1c-0.1,0-0.1,0-0.2,0c-0.1,0-0.1,0-0.2,0V7z M14.1,7.5v0.8c0,0,0.1,0,0.2,0
		c0.1,0,0.1,0,0.2,0c0.2,0,0.4,0,0.5-0.1c0.1-0.1,0.2-0.2,0.2-0.3c0-0.1-0.1-0.2-0.2-0.3s-0.2-0.1-0.4-0.1H14.1z"/>
</g>
<g>
	<path fill="#519B8D" d="M15.9,22.9L15.8,23L15.5,23l-7-1.4v-10l7.6,1.6V23L15.9,22.9z M9.1,21.1l6.4,1.3v-8.8l-6.4-1.3V21.1z"/>
</g>
<polygon fill="#949494" points="9.9,18.8 14.7,19.8 14.7,20.3 9.9,19.3 "/>
<polygon fill="#949494" points="10.8,13.7 13.8,14.3 13.8,14.7 10.8,14.1 "/>
<polygon fill="#949494" points="9.9,19.8 14.7,20.8 14.7,21.2 9.9,20.2 "/>
<g>
	<path fill="#519B8D" d="M15.6,22.9l-0.1,0v-0.3v-9.5l7.6-1.6v10L15.9,23l-0.1,0L15.6,22.9z M16.1,13.6v8.8l6.4-1.3v-8.8L16.1,13.6z
		"/>
</g>
<polygon fill="#949494" points="21.8,19.3 16.9,20.3 16.9,19.8 21.8,18.8 "/>
<polygon fill="#949494" points="20.8,14.1 17.9,14.7 17.9,14.3 20.8,13.7 "/>
<polygon fill="#949494" points="21.8,20.2 16.9,21.2 16.9,20.8 21.8,19.8 "/>
</svg>
