<svg id="Layer_1" data-name="Layer 1" xmlns="http://www.w3.org/2000/svg" viewBox="0 0 32 32"><defs><style>.cls-1{fill:#fff;}.cls-2{fill:#949494;}.cls-3{fill:#c5c5c5;}.cls-4{fill:#2c7a4f;}.cls-5{fill:#fefefe;}</style></defs><title>Fb_Excel</title><polygon class="cls-1" points="31.5 31.5 8.5 31.5 8.5 0.5 24.5 0.5 31.5 7.5 31.5 31.5"/><path class="cls-2" d="M32,32H8V0H24.71L32,7.29ZM9,31H31V7.71L24.29,1H9Z"/><polygon class="cls-2" points="31 8 24 8 24 1 25 1 25 7 31 7 31 8"/><rect class="cls-3" x="24" y="22" width="4" height="1"/><rect class="cls-3" x="24" y="20" width="4" height="1"/><rect class="cls-3" x="24" y="18" width="4" height="1"/><rect class="cls-3" x="24" y="16" width="4" height="1"/><rect class="cls-3" x="24" y="14" width="4" height="1"/><rect class="cls-3" x="24" y="12" width="4" height="1"/><rect class="cls-3" x="24" y="10" width="4" height="1"/><rect class="cls-3" x="24" y="24" width="4" height="1"/><rect class="cls-3" x="24" y="26" width="4" height="1"/><rect class="cls-3" x="19" y="22" width="4" height="1"/><rect class="cls-3" x="19" y="20" width="4" height="1"/><rect class="cls-3" x="19" y="18" width="4" height="1"/><rect class="cls-3" x="19" y="16" width="4" height="1"/><rect class="cls-3" x="19" y="14" width="4" height="1"/><rect class="cls-3" x="19" y="12" width="4" height="1"/><rect class="cls-3" x="19" y="10" width="4" height="1"/><rect class="cls-3" x="19" y="24" width="4" height="1"/><rect class="cls-3" x="19" y="26" width="4" height="1"/><polygon class="cls-4" points="18 29 1 27 1 9 18 7 18 29"/><polygon class="cls-5" points="11.18 13.96 9.58 16.92 8.15 13.96 6.13 13.96 8.49 18 6 22.04 7.98 22.04 9.57 18.89 11.02 22.04 13 22.04 10.57 17.91 12.86 13.96 11.18 13.96"/></svg>