<svg id="Layer_1" data-name="Layer 1" xmlns="http://www.w3.org/2000/svg" viewBox="0 0 32 32"><defs><style>.cls-1{fill:#fff;}.cls-2{fill:#999;}.cls-3{fill:#eaeaea;}.cls-4{fill:#6bb0e5;}.cls-5{fill:#c8c8c8;}.cls-6{fill:#c5c5c5;}</style></defs><title>Fb_EXE</title><rect class="cls-1" x="0.5" y="4.5" width="31" height="22"/><path class="cls-2" d="M32,27H0V4H32ZM1,26H31V5H1Z"/><rect class="cls-3" x="1" y="7" width="7" height="19"/><rect class="cls-4" x="10" y="9" width="9" height="15"/><rect class="cls-2" y="4" width="32" height="3"/><rect class="cls-5" x="2" y="9" width="4" height="1"/><rect class="cls-5" x="2" y="11" width="4" height="1"/><rect class="cls-5" x="2" y="13" width="4" height="1"/><rect class="cls-5" x="2" y="15" width="4" height="1"/><rect class="cls-6" x="21" y="9" width="8" height="1"/><rect class="cls-6" x="21" y="11" width="8" height="1"/><rect class="cls-6" x="21" y="13" width="8" height="1"/><rect class="cls-6" x="21" y="15" width="8" height="1"/><rect class="cls-6" x="21" y="17" width="8" height="1"/><rect class="cls-6" x="21" y="19" width="8" height="1"/><rect class="cls-6" x="21" y="21" width="4" height="1"/></svg>