<?xml version="1.0" encoding="utf-8"?>
<!-- Generator: Adobe Illustrator 26.1.0, SVG Export Plug-In . SVG Version: 6.00 Build 0)  -->
<svg version="1.1" id="Layer_1" xmlns="http://www.w3.org/2000/svg" xmlns:xlink="http://www.w3.org/1999/xlink" x="0px" y="0px"
	 viewBox="0 0 32 32" enable-background="new 0 0 32 32" xml:space="preserve">
<polygon fill="#FFFFFF" points="27.5,31.5 4.5,31.5 4.5,0.5 20.5,0.5 27.5,7.5 "/>
<path fill="#949494" d="M28,32H4V0h16.7L28,7.3V32z M5,31h22V7.7L20.3,1H5V31z"/>
<polygon fill="#949494" points="27.3,8 20,8 20,1 21,1 21,7 27.3,7 "/>
<rect x="8" y="24" fill="#C5C5C5" width="16" height="1"/>
<rect x="8" y="26" fill="#C5C5C5" width="16" height="1"/>
<rect x="2.6" y="4.5" fill="#2C5C84" width="14.6" height="5.5"/>
<text transform="matrix(1 0 0 1 5.5 8.6214)" fill="#FFFFFF" font-family="'Ubuntu-Bold'" font-size="3.9922px">FONT</text>
<g transform="scale(.94973 1.0529)">
	<path fill="#2C5C84" d="M18.9,17.9h-3.6l-0.7,0.9l-0.8,1c-0.2,0.2-0.3,0.4-0.4,0.6c-0.1,0.1-0.1,0.3-0.1,0.4c0,0.1,0.1,0.3,0.2,0.4
		c0.1,0.1,0.4,0.2,0.7,0.2v0.4h-3.5v-0.4c0.3,0,0.7-0.2,0.9-0.3c0.3-0.2,0.6-0.5,1.2-1.2l7.8-10.5h0.6v9.9c0,0.5,0,0.8,0,0.9
		c0,0.4,0.1,0.7,0.2,0.8c0.2,0.2,0.4,0.3,0.8,0.3l0,0.4H17v-0.4c0.5,0,1-0.1,1.1-0.1c0.2-0.1,0.5-0.2,0.6-0.5
		c0.1-0.3,0.4-0.8,0.4-1.4v-1.5 M19.1,17v-3.8L16,17H19.1"/>
</g>
</svg>
