<?xml version="1.0" encoding="utf-8"?>
<!-- Generator: Adobe Illustrator 26.1.0, SVG Export Plug-In . SVG Version: 6.00 Build 0)  -->
<svg version="1.1" id="Layer_1" xmlns="http://www.w3.org/2000/svg" xmlns:xlink="http://www.w3.org/1999/xlink" x="0px" y="0px"
	 viewBox="0 0 32 32" enable-background="new 0 0 32 32" xml:space="preserve">
<polygon fill="#FFFFFF" points="27.5,31.5 4.5,31.5 4.5,0.5 20.5,0.5 27.5,7.5 "/>
<path fill="#949494" d="M28,32H4V0h16.7L28,7.3V32z M5,31h22V7.7L20.3,1H5V31z"/>
<polygon fill="#949494" points="27.3,8 20,8 20,1 21,1 21,7 27.3,7 "/>
<path fill="#6EAFDF" d="M16,22.2c-2.9,0-5.2-2.3-5.2-5.2s2.3-5.2,5.2-5.2s5.2,2.3,5.2,5.2S18.9,22.2,16,22.2z M16,12.5
	c-2.5,0-4.5,2-4.5,4.5s2,4.5,4.5,4.5s4.5-2,4.5-4.5S18.5,12.5,16,12.5z"/>
<path fill="#6EAFDF" d="M16,22.2c-1.5,0-2.6-2.3-2.6-5.2s1.1-5.2,2.6-5.2s2.6,2.3,2.6,5.2S17.5,22.2,16,22.2z M16,12.5
	c-0.9,0-1.9,1.8-1.9,4.5s1,4.5,1.9,4.5c0.9,0,1.9-1.8,1.9-4.5S16.9,12.5,16,12.5z"/>
<rect x="11.5" y="14.8" fill="#6EAFDF" width="8.9" height="0.7"/>
<rect x="11.5" y="18.5" fill="#6EAFDF" width="8.9" height="0.7"/>
<rect x="8" y="24" fill="#C8C8C8" width="16" height="1"/>
<rect x="8" y="26" fill="#C8C8C8" width="16" height="1"/>
<rect x="2.6" y="4.5" fill="#6EAFDF" width="14.6" height="5.5"/>
<g>
	<path fill="#FFFFFF" d="M7,5.8h0.6v2.9H7V7.4H6v1.2H5.3V5.8H6v1.1H7V5.8z"/>
	<path fill="#FFFFFF" d="M10.5,5.8v0.5H9.6v2.3H9V6.4H8.1V5.8H10.5z"/>
	<path fill="#FFFFFF" d="M11.6,5.8c0,0.1,0.1,0.2,0.2,0.3c0.1,0.1,0.1,0.3,0.2,0.4C12,6.7,12.1,6.9,12.2,7s0.1,0.3,0.2,0.5
		c0.1-0.1,0.1-0.3,0.2-0.5s0.1-0.3,0.2-0.5c0.1-0.2,0.1-0.3,0.2-0.4C13,6,13.1,5.9,13.1,5.8h0.6c0,0.2,0.1,0.4,0.1,0.6
		c0,0.2,0,0.5,0.1,0.7c0,0.3,0,0.5,0,0.8c0,0.3,0,0.5,0,0.7h-0.6c0-0.3,0-0.6,0-0.9c0-0.3,0-0.7-0.1-1c0,0.1-0.1,0.2-0.2,0.4
		c-0.1,0.1-0.1,0.3-0.2,0.4c-0.1,0.1-0.1,0.3-0.2,0.4c-0.1,0.1-0.1,0.2-0.1,0.3h-0.4C12.1,8.2,12,8.1,12,8c-0.1-0.1-0.1-0.3-0.2-0.4
		c-0.1-0.1-0.1-0.3-0.2-0.4c-0.1-0.1-0.1-0.3-0.2-0.4c0,0.3,0,0.7-0.1,1c0,0.3,0,0.6,0,0.9h-0.6c0-0.2,0-0.5,0-0.7
		c0-0.3,0-0.5,0-0.8c0-0.3,0-0.5,0.1-0.7s0-0.4,0.1-0.6H11.6z"/>
	<path fill="#FFFFFF" d="M16.4,8.1v0.6h-1.9V5.8h0.6v2.3H16.4z"/>
</g>
</svg>
