<svg id="Layer_1" data-name="Layer 1" xmlns="http://www.w3.org/2000/svg" viewBox="0 0 32 32"><defs><style>.cls-1{fill:#fff;}.cls-2{fill:#999;}.cls-3{fill:#f5bb9e;}.cls-4{fill:#86beb7;}</style></defs><title>Fb_Image</title><rect class="cls-1" x="0.5" y="5.5" width="31" height="22"/><path class="cls-2" d="M32,28H0V5H32ZM1,27H31V6H1Z"/><path class="cls-3" d="M25.5,13A2.5,2.5,0,1,1,28,10.5,2.5,2.5,0,0,1,25.5,13Zm0-4A1.5,1.5,0,1,0,27,10.5,1.5,1.5,0,0,0,25.5,9Z"/><polygon class="cls-4" points="31 23.43 21.36 14.51 15.88 20.13 16.6 20.83 21.4 15.9 31 24.79 31 23.43"/><polygon class="cls-4" points="24.16 27 7.36 11 1 17.02 1 18.4 7.35 12.38 22.71 27 24.16 27"/></svg>