<?xml version="1.0" encoding="utf-8"?>
<!-- Generator: Adobe Illustrator 26.1.0, SVG Export Plug-In . SVG Version: 6.00 Build 0)  -->
<svg version="1.1" id="Layer_1" xmlns="http://www.w3.org/2000/svg" xmlns:xlink="http://www.w3.org/1999/xlink" x="0px" y="0px"
	 viewBox="0 0 32 32" enable-background="new 0 0 32 32" xml:space="preserve">
<polygon fill="#FFFFFF" points="27.5,31.5 4.5,31.5 4.5,0.5 20.5,0.5 27.5,7.5 "/>
<path fill="#949494" d="M28,32H4V0h16.7L28,7.3V32z M5,31h22V7.7L20.3,1H5V31z"/>
<polygon fill="#949494" points="28,8 20,8 20,1 21,1 21,7 28,7 "/>
<rect x="8" y="24" fill="#C5C5C5" width="16" height="1"/>
<rect x="8" y="26" fill="#C5C5C5" width="16" height="1"/>
<rect x="2.6" y="4.5" fill="#84A01F" width="14.6" height="5.5"/>
<path fill="#84A01F" d="M9.7,16.9c0.2,0,0.3,0,0.4-0.1c0.1-0.1,0.2-0.1,0.3-0.2c0.1-0.1,0.1-0.2,0.2-0.3c0-0.1,0.1-0.2,0.1-0.4V14
	c0-0.3,0-0.5,0.1-0.8c0.1-0.2,0.2-0.4,0.3-0.6c0.2-0.2,0.4-0.3,0.6-0.3c0.3-0.1,0.6-0.1,1-0.1h0V13c-0.4,0-0.7,0.1-0.9,0.2
	c-0.2,0.1-0.3,0.4-0.3,0.8v1.6c0,0.5-0.1,0.8-0.2,1.1c-0.1,0.3-0.3,0.5-0.5,0.6c0.2,0.1,0.4,0.3,0.5,0.6c0.1,0.3,0.2,0.6,0.2,1.1
	v1.6c0,0.4,0.1,0.7,0.3,0.8c0.2,0.1,0.5,0.2,0.9,0.2v0.8h0c-0.4,0-0.7,0-1-0.1c-0.3-0.1-0.5-0.2-0.6-0.3c-0.2-0.2-0.3-0.3-0.3-0.6
	c-0.1-0.2-0.1-0.5-0.1-0.8v-1.9c0-0.1,0-0.3-0.1-0.4c0-0.1-0.1-0.2-0.2-0.3c-0.1-0.1-0.2-0.2-0.3-0.2c-0.1-0.1-0.3-0.1-0.4-0.1V16.9
	z"/>
<path fill="#84A01F" d="M22.3,17.7c-0.2,0-0.3,0-0.4,0.1c-0.1,0.1-0.2,0.1-0.3,0.2c-0.1,0.1-0.1,0.2-0.2,0.3c0,0.1-0.1,0.2-0.1,0.4
	v1.9c0,0.3,0,0.5-0.1,0.8c-0.1,0.2-0.2,0.4-0.3,0.6c-0.2,0.2-0.4,0.3-0.6,0.3c-0.3,0.1-0.6,0.1-1,0.1h0v-0.8c0.4,0,0.7-0.1,0.9-0.2
	c0.2-0.1,0.3-0.4,0.3-0.8V19c0-0.5,0.1-0.8,0.2-1.1c0.1-0.3,0.3-0.5,0.5-0.6c-0.2-0.1-0.4-0.3-0.5-0.6c-0.1-0.3-0.2-0.6-0.2-1.1V14
	c0-0.4-0.1-0.7-0.3-0.8C20,13,19.7,13,19.3,13v-0.8h0c0.4,0,0.7,0,1,0.1c0.3,0.1,0.5,0.2,0.6,0.3c0.2,0.2,0.3,0.3,0.3,0.6
	c0.1,0.2,0.1,0.5,0.1,0.8v1.9c0,0.1,0,0.3,0.1,0.4c0,0.1,0.1,0.2,0.2,0.3c0.1,0.1,0.2,0.2,0.3,0.2c0.1,0.1,0.3,0.1,0.4,0.1V17.7z"/>
<text transform="matrix(1 0 0 1 6.5001 9.2202)" fill="#FFFFFF" font-family="'Ubuntu-Bold'" font-size="5.5px">JS</text>
<g>
	<path fill="#84A01F" d="M16.6,18.2c0,0.1,0,0.1,0,0.2c0,0.1,0,0.1,0,0.2c0,0.5-0.1,1-0.2,1.5c-0.1,0.5-0.3,1-0.6,1.4l-0.9-0.3
		c0.2-0.4,0.3-0.8,0.4-1.2s0.1-0.8,0.1-1.2c0-0.1,0-0.2,0-0.3c0-0.1,0-0.2,0-0.3H16.6z M16.7,14.1c0,0.2-0.1,0.4-0.2,0.6
		c-0.1,0.2-0.3,0.2-0.6,0.2c-0.2,0-0.4-0.1-0.6-0.2c-0.1-0.2-0.2-0.3-0.2-0.6s0.1-0.4,0.2-0.6s0.3-0.2,0.6-0.2
		c0.2,0,0.4,0.1,0.6,0.2C16.7,13.7,16.7,13.9,16.7,14.1z"/>
</g>
</svg>
