<?xml version="1.0" encoding="utf-8"?>
<!-- Generator: Adobe Illustrator 26.1.0, SVG Export Plug-In . SVG Version: 6.00 Build 0)  -->
<svg version="1.1" id="Layer_1" xmlns="http://www.w3.org/2000/svg" xmlns:xlink="http://www.w3.org/1999/xlink" x="0px" y="0px"
	 viewBox="0 0 32 32" enable-background="new 0 0 32 32" xml:space="preserve">
<polygon fill="#FFFFFF" points="27.5,31.5 4.5,31.5 4.5,0.5 20.5,0.5 27.5,7.5 "/>
<path fill="#FF2116" d="M28,32H4V0h16.7L28,7.3V32z M5,31h22V7.7L20.3,1H5V31z"/>
<polygon fill="#FF2116" points="27.7,8 20,8 20,1 21,1 21,7 27.7,7 "/>
<path id="path2697" fill="#FF2116" d="M9.4,18.5c-0.8-0.8,0.1-1.8,2.3-2.9l1.4-0.7l0.5-1.2c0.3-0.7,0.8-1.7,1-2.4l0.5-1.2l-0.3-0.9
	c-0.4-1.1-0.5-2.7-0.3-3.3c0.3-0.8,1.4-0.7,1.8,0.1c0.3,0.7,0.3,1.9-0.1,3.4l-0.3,1.2l0.3,0.5c0.2,0.3,0.6,0.9,1,1.4l0.8,0.9
	l0.9-0.1c3-0.4,4,0.3,4,1.2c0,1.2-2.4,1.3-4.3-0.1c-0.4-0.3-0.7-0.6-0.7-0.6s-1.2,0.3-1.8,0.4c-0.6,0.2-0.9,0.3-1.9,0.6
	c0,0-0.3,0.5-0.5,0.8c-0.8,1.3-1.7,2.3-2.4,2.7C10.5,18.9,9.7,18.9,9.4,18.5z M10.6,18.1c0.4-0.3,1.3-1.3,1.9-2.2l0.2-0.4L11.6,16
	c-1.7,0.9-2.5,1.7-2.1,2.2C9.7,18.5,10,18.4,10.6,18.1L10.6,18.1z M21.6,15c0.4-0.3,0.4-0.9-0.1-1.1c-0.4-0.2-0.7-0.2-1.6-0.2
	c-0.6,0-1.5,0.2-1.7,0.2c0,0,0.5,0.4,0.8,0.5c0.3,0.2,1.1,0.5,1.6,0.7C21.1,15.2,21.4,15.2,21.6,15L21.6,15z M17.2,13.1
	c-0.3-0.3-0.7-0.8-1-1.2c-0.4-0.5-0.5-0.8-0.5-0.8s-0.3,0.8-0.5,1.3l-0.7,1.7l-0.2,0.4c0,0,1-0.3,1.6-0.5c0.6-0.1,1.7-0.4,1.7-0.4
	L17.2,13.1z M15.8,7.4c0.1-0.5,0.1-1.1-0.1-1.4c-0.5-0.5-1.1-0.1-1,1.2c0,0.4,0.1,1.1,0.3,1.6l0.3,0.8L15.4,9
	C15.5,8.6,15.7,7.9,15.8,7.4L15.8,7.4z"/>
<g id="g858">
	<path id="path845" fill="#2C2C2C" d="M10.7,22h1.2c0.4,0,0.7,0,1,0.1c0.2,0.1,0.5,0.2,0.6,0.5c0.2,0.3,0.3,0.6,0.3,0.9
		c0,0.3-0.1,0.6-0.2,0.8c-0.1,0.2-0.3,0.4-0.6,0.5c-0.2,0.1-0.6,0.2-1.1,0.2h-0.4V27h-0.8L10.7,22z M11.5,22.7v1.7h0.4
		c0.4,0,0.6-0.1,0.8-0.2c0.1-0.1,0.2-0.4,0.2-0.7c0-0.2,0-0.4-0.1-0.6c-0.1-0.1-0.2-0.2-0.3-0.3c-0.1,0-0.3-0.1-0.5-0.1L11.5,22.7z"
		/>
	<path id="path847" fill="#2C2C2C" d="M14.4,22h1.1c0.5,0,1,0.1,1.3,0.3c0.3,0.2,0.6,0.5,0.7,0.9c0.2,0.4,0.3,0.8,0.3,1.3
		c0,0.5-0.1,0.9-0.2,1.3c-0.1,0.4-0.4,0.7-0.7,0.9c-0.3,0.2-0.7,0.4-1.3,0.4h-1.2V22z M15.2,22.7v3.7h0.3c0.5,0,0.8-0.2,1-0.5
		c0.2-0.3,0.3-0.8,0.3-1.3c0-1.2-0.5-1.8-1.4-1.8L15.2,22.7z"/>
	<path id="path849" fill="#2C2C2C" d="M18.6,22h2.8v0.7h-1.9v1.5H21v0.7h-1.6V27h-0.8V22z"/>
</g>
</svg>
