<svg id="Layer_1" data-name="Layer 1" xmlns="http://www.w3.org/2000/svg" viewBox="0 0 32 32"><defs><style>.cls-1{fill:#fff;}.cls-2{fill:#949494;}.cls-3{fill:#c8c8c8;}</style></defs><title>Fb_Text</title><polygon class="cls-1" points="27.33 31.62 4.33 31.37 4.67 0.38 20.67 0.55 27.59 7.63 27.33 31.62"/><path class="cls-2" d="M27.83,32.13l-24-.26.34-32L20.88.05l7.21,7.37Zm-23-1.25,22,.24.25-23.29L20.46,1.05,5.16.88Z"/><polyline class="cls-1" points="27.09 7.62 20.59 7.55 20.66 1.05"/><polygon class="cls-2" points="27.09 8.12 20.09 8.04 20.16 1.04 21.16 1.05 21.1 7.05 27.1 7.12 27.09 8.12"/><line class="cls-1" x1="7.14" y1="3.4" x2="14.14" y2="3.48"/><rect class="cls-3" x="10.14" y="-0.06" width="1" height="7" transform="translate(7.08 14.04) rotate(-89.38)"/><line class="cls-1" x1="7.06" y1="10.4" x2="25.06" y2="10.6"/><rect class="cls-3" x="15.56" y="1.5" width="1" height="18" transform="translate(5.39 26.45) rotate(-89.38)"/><line class="cls-1" x1="6.97" y1="18.4" x2="24.97" y2="18.6"/><rect class="cls-3" x="15.47" y="9.5" width="1" height="18" transform="translate(-2.7 34.27) rotate(-89.38)"/><line class="cls-1" x1="7" y1="16.4" x2="24.99" y2="16.6"/><rect class="cls-3" x="15.49" y="7.5" width="1" height="18" transform="translate(-0.68 32.31) rotate(-89.38)"/><line class="cls-1" x1="7.02" y1="14.4" x2="25.02" y2="14.6"/><rect class="cls-3" x="15.52" y="5.5" width="1" height="18" transform="translate(1.34 30.36) rotate(-89.38)"/><line class="cls-1" x1="7.04" y1="12.4" x2="25.04" y2="12.6"/><rect class="cls-3" x="15.54" y="3.5" width="1" height="18" transform="translate(3.36 28.4) rotate(-89.38)"/><line class="cls-1" x1="6.95" y1="20.4" x2="24.95" y2="20.6"/><rect class="cls-3" x="15.45" y="11.5" width="1" height="18" transform="translate(-4.72 36.23) rotate(-89.38)"/><line class="cls-1" x1="6.93" y1="22.4" x2="24.93" y2="22.6"/><rect class="cls-3" x="15.43" y="13.5" width="1" height="18" transform="translate(-6.74 38.18) rotate(-89.38)"/><line class="cls-1" x1="6.91" y1="24.4" x2="24.91" y2="24.6"/><rect class="cls-3" x="15.41" y="15.5" width="1" height="18" transform="translate(-8.76 40.14) rotate(-89.38)"/><line class="cls-1" x1="6.89" y1="26.4" x2="24.89" y2="26.6"/><rect class="cls-3" x="15.39" y="17.5" width="1" height="18" transform="translate(-10.78 42.1) rotate(-89.38)"/></svg>