<svg id="Layer_1" data-name="Layer 1" xmlns="http://www.w3.org/2000/svg" viewBox="0 0 32 32"><defs><style>.cls-1{fill:#fff;}.cls-2{fill:#949494;}.cls-3{fill:#c8c8c8;}.cls-4{fill:#f5ba9e;}.cls-5{fill:#c5c5c5;}.cls-6{fill:#d15737;}.cls-7{fill:#fefefe;}</style></defs><title>Fb_PPT</title><polygon class="cls-1" points="31.5 31.5 8.5 31.5 8.5 0.5 24.5 0.5 31.5 7.5 31.5 31.5"/><path class="cls-2" d="M32,32H8V0H24.71L32,7.29ZM9,31H31V7.71L24.29,1H9Z"/><circle class="cls-3" cx="20.5" cy="11.5" r="6.5"/><path class="cls-4" d="M27,11.5H20.5V5A6.5,6.5,0,0,1,27,11.5Z"/><polygon class="cls-2" points="31 8 24 8 24 1 25 1 25 7 31 7 31 8"/><rect class="cls-5" x="12" y="22" width="16" height="1"/><rect class="cls-5" x="12" y="24" width="16" height="1"/><rect class="cls-5" x="12" y="26" width="16" height="1"/><polygon class="cls-6" points="18 29 1 27 1 9 18 7 18 29"/><polygon class="cls-1" points="27 12 20 12 20 5 21 5 21 11 27 11 27 12"/><path class="cls-7" d="M9.79,12H5.5V24H7.79V19.43h2a3.72,3.72,0,0,0,0-7.43Zm0,5.14h-2V14.29h2a1.43,1.43,0,0,1,0,2.85Z"/></svg>