<svg id="Layer_1" data-name="Layer 1" xmlns="http://www.w3.org/2000/svg" viewBox="0 0 32 32"><defs><style>.cls-1{fill:#fff;}.cls-2{fill:#949494;}.cls-3{fill:#c5c5c5;}.cls-4{fill:#0279d7;}.cls-5{fill:#6aafe5;}.cls-6{fill:#0078d7;}</style></defs><title>Fb_RTF</title><polygon class="cls-1" points="27.5 31.5 4.5 31.5 4.5 0.5 20.5 0.5 27.5 7.5 27.5 31.5"/><path class="cls-2" d="M28,32H4V0H20.71L28,7.29ZM5,31H27V7.71L20.29,1H5Z"/><polygon class="cls-2" points="27 8 20 8 20 1 21 1 21 7 27 7 27 8"/><rect class="cls-3" x="8" y="24" width="16" height="1"/><rect class="cls-3" x="8" y="26" width="16" height="1"/><rect class="cls-3" x="8" y="20" width="8" height="1"/><rect class="cls-3" x="8" y="22" width="16" height="1"/><rect class="cls-3" x="8" y="16" width="8" height="1"/><rect class="cls-4" x="8" y="13" width="16" height="1"/><rect class="cls-5" x="15" y="11" width="9" height="1"/><rect class="cls-5" x="15" y="9" width="3" height="1"/><rect class="cls-3" x="8" y="18" width="8" height="1"/><rect class="cls-5" x="17" y="16" width="7" height="5"/><path class="cls-6" d="M11.32,11.67v-.3c.6,0,.87-.23.87-.59,0-.06.09-1.61.09-1.61H9.44l-.91,1.15c-.12.22-.35.42-.35.6s.18.45.72.45v.3H6.69v-.3a1,1,0,0,0,.82-.59l5.72-7.3h.28l-.31,6.71c0,1.08.26,1.13,1,1.18v.3Zm1.13-6.25L9.75,8.69h2.52Z"/></svg>