<?xml version="1.0" encoding="utf-8"?>
<!-- Generator: Adobe Illustrator 26.1.0, SVG Export Plug-In . SVG Version: 6.00 Build 0)  -->
<svg version="1.1" id="Layer_1" xmlns="http://www.w3.org/2000/svg" xmlns:xlink="http://www.w3.org/1999/xlink" x="0px" y="0px"
	 viewBox="0 0 32 32" enable-background="new 0 0 32 32" xml:space="preserve">
<polygon fill="#FFFFFF" points="27.5,31.5 4.5,31.5 4.5,0.5 20.5,0.5 27.5,7.5 "/>
<path fill="#949494" d="M28,32H4V0h16.7L28,7.3V32z M5,31h22V7.7L20.3,1H5V31z"/>
<polygon fill="#949494" points="28,8 20,8 20,1 21,1 21,7 28,7 "/>
<rect x="8" y="24" fill="#C5C5C5" width="16" height="1"/>
<rect x="8" y="26" fill="#C5C5C5" width="16" height="1"/>
<path fill="#507187" d="M12.6,17.8c0.6,0,1-0.1,1.3-0.3c0.2-0.2,0.4-0.4,0.4-0.7c0-0.2-0.1-0.4-0.2-0.6c-0.1-0.2-0.3-0.3-0.4-0.4
	c-0.2-0.1-0.4-0.2-0.6-0.3c-0.2-0.1-0.5-0.2-0.7-0.3c-0.2-0.1-0.5-0.2-0.7-0.3c-0.2-0.1-0.4-0.2-0.6-0.4c-0.2-0.2-0.3-0.3-0.4-0.6
	c-0.1-0.2-0.2-0.5-0.2-0.8c0-0.6,0.2-1,0.5-1.4c0.3-0.4,0.8-0.6,1.5-0.7V9.6h1v1.3c0.4,0,0.7,0.1,1,0.1c0.3,0.1,0.5,0.1,0.7,0.2
	l-0.2,0.9c-0.2-0.1-0.4-0.1-0.7-0.2s-0.6-0.1-1.1-0.1c-0.5,0-0.9,0.1-1.1,0.3c-0.3,0.2-0.4,0.4-0.4,0.8c0,0.2,0,0.3,0.1,0.5
	c0.1,0.1,0.2,0.2,0.3,0.3s0.3,0.2,0.5,0.3c0.2,0.1,0.4,0.2,0.7,0.3c0.3,0.1,0.6,0.2,0.9,0.4c0.3,0.1,0.5,0.3,0.7,0.5
	s0.4,0.4,0.5,0.6s0.2,0.5,0.2,0.9c0,0.6-0.2,1-0.5,1.4c-0.3,0.3-0.9,0.6-1.6,0.7v1.5h-1v-1.5c-0.6,0-1-0.1-1.4-0.2
	c-0.4-0.1-0.6-0.2-0.8-0.3l0.3-0.9c0.2,0.1,0.5,0.2,0.9,0.3S12.1,17.8,12.6,17.8z"/>
<path fill="#507187" d="M16.1,20.2h6v0.9h-6V20.2z"/>
</svg>
