<svg id="Layer_1" data-name="Layer 1" xmlns="http://www.w3.org/2000/svg" viewBox="0 0 32 32"><defs><style>.cls-1{fill:#fff;}.cls-2{fill:#949494;}.cls-3{fill:#c5c5c5;}</style></defs><title>Fb_Exclamatory</title><polygon class="cls-1" points="27.5 31.5 4.5 31.5 4.5 0.5 20.5 0.5 27.5 7.5 27.5 31.5"/><path class="cls-2" d="M28,32H4V0H20.71L28,7.29ZM5,31H27V7.71L20.29,1H5Z"/><polygon class="cls-2" points="27 8 20 8 20 1 21 1 21 7 27 7 27 8"/><rect class="cls-3" x="8" y="24" width="16" height="1"/><rect class="cls-3" x="8" y="26" width="16" height="1"/><polygon class="cls-2" points="16.73 18 15.25 18 15 10 17 10 16.73 18"/><circle class="cls-2" cx="16" cy="20" r="1"/></svg>