<svg id="Layer_1" data-name="Layer 1" xmlns="http://www.w3.org/2000/svg" viewBox="0 0 32 32"><defs><style>.cls-1{fill:#fff;}.cls-2{fill:#999;}.cls-3{fill:#6ab0e5;}.cls-4{fill:#c5c5c5;}</style></defs><title>Fb_Video</title><rect class="cls-1" x="0.5" y="4.5" width="31" height="22"/><path class="cls-2" d="M32,27H0V4H32ZM1,26H31V5H1Z"/><polygon class="cls-3" points="12 10 12 21 22 15.5 12 10"/><rect class="cls-4" x="29" y="6" width="1" height="1"/><rect class="cls-4" x="29" y="8" width="1" height="1"/><rect class="cls-4" x="29" y="10" width="1" height="1"/><rect class="cls-4" x="29" y="12" width="1" height="1"/><rect class="cls-4" x="29" y="14" width="1" height="1"/><rect class="cls-4" x="29" y="16" width="1" height="1"/><rect class="cls-4" x="29" y="18" width="1" height="1"/><rect class="cls-4" x="29" y="20" width="1" height="1"/><rect class="cls-4" x="29" y="22" width="1" height="1"/><rect class="cls-4" x="29" y="24" width="1" height="1"/><rect class="cls-4" x="2" y="6" width="1" height="1"/><rect class="cls-4" x="2" y="8" width="1" height="1"/><rect class="cls-4" x="2" y="10" width="1" height="1"/><rect class="cls-4" x="2" y="12" width="1" height="1"/><rect class="cls-4" x="2" y="14" width="1" height="1"/><rect class="cls-4" x="2" y="16" width="1" height="1"/><rect class="cls-4" x="2" y="18" width="1" height="1"/><rect class="cls-4" x="2" y="20" width="1" height="1"/><rect class="cls-4" x="2" y="22" width="1" height="1"/><rect class="cls-4" x="2" y="24" width="1" height="1"/></svg>