<?xml version="1.0" encoding="utf-8"?>
<!-- Generator: Adobe Illustrator 26.1.0, SVG Export Plug-In . SVG Version: 6.00 Build 0)  -->
<svg version="1.1" id="Layer_1" xmlns="http://www.w3.org/2000/svg" xmlns:xlink="http://www.w3.org/1999/xlink" x="0px" y="0px"
	 viewBox="0 0 32 32" enable-background="new 0 0 32 32" xml:space="preserve">
<polygon fill="#FFFFFF" points="31.5,31.5 8.5,31.5 8.5,0.5 24.5,0.5 31.5,7.5 "/>
<path fill="#949494" d="M32,32H8V0h16.7L32,7.3V32z M9,31h22V7.7L24.3,1H9V31z"/>
<path fill="#39559F" d="M17.9,16.3c1,0,2.1,0,3.1,0h0.1v0.1c0,0.5,0,1.1,0,1.6c0,0.1,0,0.1,0.1,0.1c0.4,0,0.8,0,1.2,0
	c0.1,0,0.1,0,0.1-0.1c0-1.1,0-2.2,0-3.2c0,0,0-0.1-0.1-0.1c-0.7-0.7-1.3-1.3-2-2l-0.1-0.1c-0.8,0-1.6,0-2.3,0v-1.1
	c0.8,0,1.7,0,2.5,0c0.1,0,0.1,0,0.2-0.1c0.8-0.8,1.5-1.5,2.3-2.3c0,0,0-0.1,0.1-0.1c1,1,2.1,2.1,3.1,3.1c0,0-0.1,0-0.1,0.1
	c-0.8,0.8-1.6,1.6-2.4,2.4c0,0-0.1,0.1-0.1,0.2c0,1.4,0,2.8,0,4.3v0.1h-0.1c-0.8,0-1.5,0-2.2,0c-0.1,0-0.1,0-0.1,0.1
	c0,0.6,0,1.2,0,1.8v0.1h-0.1c-1,0-2.1,0-3.1,0L17.9,16.3z M20.2,18.7c0-0.4,0-0.8,0-1.3c0-0.1,0-0.1-0.1-0.1c-0.6,0-1.2,0-1.8,0
	c-0.1,0-0.1,0-0.1,0.1c0,0.8,0,1.8,0,2.6c0,0.1,0,0.1,0.1,0.1c0.6,0,1.2,0,1.8,0c0.1,0,0.1,0,0.1-0.1C20.2,19.5,20.2,19.1,20.2,18.7
	z M23,10.9c-0.4,0.4-0.8,0.8-1.3,1.3c0.4,0.4,0.8,0.8,1.3,1.3c0.4-0.4,0.8-0.8,1.3-1.3C23.8,11.7,23.4,11.3,23,10.9z"/>
<polygon fill="#949494" points="31,8 24,8 24,1 25,1 25,7 31,7 "/>
<rect x="12" y="22" fill="#C5C5C5" width="16" height="1"/>
<rect x="12" y="24" fill="#C5C5C5" width="16" height="1"/>
<rect x="12" y="26" fill="#C5C5C5" width="16" height="1"/>
<polygon fill="#39559F" points="18,29 1,27 1,9 18,7 "/>
<path fill="#FFFFFF" d="M7.7,22.8c-0.2-0.7-0.5-1.5-0.7-2.5c-0.2-0.9-0.5-1.7-0.7-2.6c-0.2-0.9-0.4-1.7-0.6-2.5
	c-0.2-0.8-0.3-1.3-0.4-1.8l1.8-0.2c0.1,0.5,0.2,1,0.2,1.7c0.1,0.6,0.2,1.3,0.4,2c0.2,0.7,0.3,1.3,0.5,2.1s0.3,1.3,0.5,1.8
	c0.1-0.5,0.2-1,0.4-1.7c0.2-0.7,0.3-1.3,0.5-2.1c0.2-0.7,0.2-1.4,0.4-2.1c0.2-0.7,0.2-1.3,0.3-1.8l2.1-0.2c-0.2,0.6-0.3,1.4-0.5,2.2
	c-0.2,0.8-0.4,1.7-0.6,2.5c-0.2,0.9-0.5,1.7-0.8,2.6c-0.3,0.9-0.6,1.7-0.9,2.5L7.7,22.8z"/>
</svg>
