<svg id="Layer_1" data-name="Layer 1" xmlns="http://www.w3.org/2000/svg" viewBox="0 0 32 32"><defs><style>.cls-1{fill:#fff;}.cls-2{fill:#949494;}.cls-3{fill:#c5c5c5;}.cls-4{fill:#3862a1;}</style></defs><title>Fb_Word</title><polygon class="cls-1" points="31.5 31.5 8.5 31.5 8.5 0.5 24.5 0.5 31.5 7.5 31.5 31.5"/><path class="cls-2" d="M32,32H8V0H24.71L32,7.29ZM9,31H31V7.71L24.29,1H9Z"/><polygon class="cls-2" points="31 8 24 8 24 1 25 1 25 7 31 7 31 8"/><rect class="cls-3" x="12" y="22" width="16" height="1"/><rect class="cls-3" x="12" y="20" width="16" height="1"/><rect class="cls-3" x="12" y="18" width="16" height="1"/><rect class="cls-3" x="12" y="16" width="16" height="1"/><rect class="cls-3" x="12" y="14" width="16" height="1"/><rect class="cls-3" x="12" y="12" width="16" height="1"/><rect class="cls-3" x="12" y="10" width="16" height="1"/><rect class="cls-3" x="12" y="3" width="5" height="1"/><rect class="cls-3" x="12" y="24" width="16" height="1"/><rect class="cls-3" x="12" y="26" width="16" height="1"/><polygon class="cls-4" points="18 29 1 27 1 9 18 7 18 29"/><polygon class="cls-1" points="13.2 14.29 11.94 19.65 10.54 14.29 8.93 14.29 7.09 19.83 5.8 14.29 4.5 14.29 6.24 21.71 7.8 21.71 9.69 16.02 11.18 21.71 12.76 21.71 14.5 14.29 13.2 14.29"/></svg>