<?xml version="1.0" encoding="utf-8"?>
<!-- Generator: Adobe Illustrator 26.1.0, SVG Export Plug-In . SVG Version: 6.00 Build 0)  -->
<svg version="1.1" id="Layer_1" xmlns="http://www.w3.org/2000/svg" xmlns:xlink="http://www.w3.org/1999/xlink" x="0px" y="0px"
	 viewBox="0 0 32 32" enable-background="new 0 0 32 32" xml:space="preserve">
<polygon fill="#FFFFFF" points="27.5,31.5 4.5,31.5 4.5,0.5 20.5,0.5 27.5,7.5 "/>
<path fill="#949494" d="M28,32H4V0h16.7L28,7.3V32z M5,31h22V7.7L20.3,1H5V31z"/>
<polygon fill="#949494" points="27.3,8 20,8 20,1 21,1 21,7 27.3,7 "/>
<rect x="8" y="24" fill="#C8C8C8" width="16" height="1"/>
<rect x="8" y="26" fill="#C8C8C8" width="16" height="1"/>
<rect x="2.6" y="4.5" fill="#D69400" width="14.6" height="5.5"/>
<g>
	<path fill="#FFFFFF" d="M7.5,9.1C7.4,8.9,7.3,8.7,7.2,8.5S6.9,8.1,6.7,8c0,0.1-0.1,0.1-0.2,0.2S6.4,8.4,6.3,8.5
		C6.3,8.6,6.2,8.8,6.1,8.9C6.1,9,6,9.1,6,9.1H5.1c0.2-0.3,0.3-0.6,0.5-0.9C5.8,8,6,7.6,6.3,7.3L5.1,5.5h1l0.7,1l0.7-1h0.9L7.2,7.3
		C7.5,7.7,7.8,8,8,8.3c0.2,0.3,0.4,0.6,0.5,0.8H7.5z"/>
	<path fill="#FFFFFF" d="M9.9,5.5C9.9,5.7,10,5.8,10.1,6s0.2,0.3,0.3,0.5c0.1,0.2,0.2,0.4,0.3,0.6c0.1,0.2,0.2,0.4,0.2,0.6
		c0.1-0.2,0.2-0.4,0.2-0.6c0.1-0.2,0.2-0.4,0.3-0.6c0.1-0.2,0.2-0.4,0.3-0.5s0.2-0.3,0.2-0.4h0.7c0,0.2,0.1,0.5,0.1,0.8
		s0.1,0.6,0.1,0.9s0,0.6,0.1,1s0,0.6,0,0.9h-0.8c0-0.3,0-0.7,0-1.1c0-0.4,0-0.8-0.1-1.2c-0.1,0.1-0.1,0.3-0.2,0.5
		c-0.1,0.2-0.2,0.4-0.2,0.5c-0.1,0.2-0.1,0.3-0.2,0.5c-0.1,0.2-0.1,0.3-0.2,0.4h-0.6c0-0.1-0.1-0.3-0.2-0.4
		c-0.1-0.2-0.1-0.3-0.2-0.5C10.1,7.6,10,7.4,9.9,7.2C9.9,7.1,9.8,6.9,9.7,6.7c0,0.4-0.1,0.8-0.1,1.2c0,0.4,0,0.8,0,1.1H8.8
		c0-0.3,0-0.6,0-0.9s0-0.6,0.1-1S9,6.6,9,6.3s0.1-0.6,0.1-0.8H9.9z"/>
	<path fill="#FFFFFF" d="M16,8.4v0.7h-2.4V5.5h0.8v2.9H16z"/>
</g>
<polygon fill="#D69400" points="11.1,20.5 8.7,17.3 11.1,14.1 11.9,14.7 9.9,17.3 11.9,19.9 "/>
<polygon fill="#D69400" points="20.6,20.5 19.8,19.9 21.8,17.3 19.8,14.7 20.6,14.1 23,17.3 "/>
<rect x="10.1" y="16.8" transform="matrix(0.5183 -0.8552 0.8552 0.5183 -7.1201 22.0324)" fill="#D69400" width="11.8" height="1"/>
</svg>
